<svg xmlns="http://www.w3.org/2000/svg" xmlns:xlink="http://www.w3.org/1999/xlink" viewBox="0 0 50 50" version="1.1">
<g id="surface1">
<path style=" " d="M 41.75 1 C 39.667969 1 37.589844 1.816406 36 3.40625 L 15.1875 24.1875 C 13.8125 25.5625 13.625 27.714844 14.65625 29.28125 C 13.800781 30.289063 12.875 30.878906 11.71875 31.5625 C 10.359375 32.363281 8.691406 33.3125 6.8125 35.1875 L 6.8125 35.21875 C 1.390625 40.550781 0.03125 47.1875 0.03125 47.1875 L -0.15625 48 L 0.625 48.3125 C 0.625 48.3125 2.652344 49.175781 5.5625 49 C 8.46875 48.824219 12.335938 47.617188 16.09375 43.8125 L 16.09375 43.78125 C 17.800781 42.070313 18.433594 40.898438 18.75 40.03125 C 19.0625 39.175781 19.058594 38.863281 19.78125 38.125 C 19.796875 38.109375 19.796875 38.109375 19.8125 38.09375 C 20.605469 37.386719 21.378906 37.101563 22.34375 36.65625 C 23.824219 37.296875 25.609375 37.015625 26.8125 35.8125 L 47.53125 15.09375 L 47.59375 15 C 50.773438 11.820313 50.773438 6.679688 47.59375 3.5 L 47.5 3.40625 C 45.910156 1.816406 43.832031 1 41.75 1 Z M 41.75 3 C 43.316406 3 44.882813 3.601563 46.09375 4.8125 L 46.1875 4.90625 C 48.609375 7.328125 48.609375 11.171875 46.1875 13.59375 L 25.40625 34.40625 C 24.777344 35.035156 23.902344 35.179688 23.15625 34.84375 C 23.144531 34.832031 23.136719 34.824219 23.125 34.8125 C 23.113281 34.808594 23.105469 34.789063 23.09375 34.78125 C 22.996094 34.6875 22.878906 34.613281 22.75 34.5625 C 22.6875 34.515625 22.621094 34.492188 22.5625 34.4375 L 22.5 34.40625 L 16.71875 28.65625 C 16.699219 28.632813 16.679688 28.613281 16.65625 28.59375 L 16.59375 28.5 C 15.765625 27.671875 15.765625 26.421875 16.59375 25.59375 L 37.40625 4.8125 C 38.617188 3.601563 40.183594 3 41.75 3 Z M 28.90625 16.96875 C 28.863281 16.976563 28.820313 16.988281 28.78125 17 C 28.40625 17.066406 28.105469 17.339844 28 17.703125 C 27.894531 18.070313 28.003906 18.460938 28.28125 18.71875 L 32.28125 22.71875 C 32.679688 23.117188 33.320313 23.117188 33.71875 22.71875 C 34.117188 22.320313 34.117188 21.679688 33.71875 21.28125 L 29.71875 17.28125 C 29.511719 17.058594 29.210938 16.945313 28.90625 16.96875 Z M 25.90625 19.96875 C 25.863281 19.976563 25.820313 19.988281 25.78125 20 C 25.40625 20.066406 25.105469 20.339844 25 20.703125 C 24.894531 21.070313 25.003906 21.460938 25.28125 21.71875 L 29.28125 25.71875 C 29.679688 26.117188 30.320313 26.117188 30.71875 25.71875 C 31.117188 25.320313 31.117188 24.679688 30.71875 24.28125 L 26.71875 20.28125 C 26.511719 20.058594 26.210938 19.945313 25.90625 19.96875 Z M 22.90625 22.96875 C 22.863281 22.976563 22.820313 22.988281 22.78125 23 C 22.40625 23.066406 22.105469 23.339844 22 23.703125 C 21.894531 24.070313 22.003906 24.460938 22.28125 24.71875 L 26.28125 28.71875 C 26.679688 29.117188 27.320313 29.117188 27.71875 28.71875 C 28.117188 28.320313 28.117188 27.679688 27.71875 27.28125 L 23.71875 23.28125 C 23.511719 23.058594 23.210938 22.945313 22.90625 22.96875 Z M 16 30.75 L 20.53125 35.25 C 19.859375 35.582031 19.167969 35.992188 18.4375 36.65625 L 18.40625 36.6875 C 17.375 37.71875 17.132813 38.640625 16.875 39.34375 C 16.617188 40.046875 16.265625 40.828125 14.6875 42.40625 C 11.253906 45.890625 7.925781 46.851563 5.4375 47 C 3.976563 47.089844 2.976563 46.890625 2.28125 46.71875 C 2.578125 45.519531 3.824219 40.90625 8.1875 36.625 L 8.21875 36.625 L 8.21875 36.59375 C 9.929688 34.882813 11.332031 34.101563 12.71875 33.28125 C 13.839844 32.617188 14.96875 31.898438 16 30.75 Z "></path>
</g>
</svg>