<svg xmlns="http://www.w3.org/2000/svg" viewBox="0 0 50 50">
    <path style="line-height:normal;text-indent:0;text-align:start;text-decoration-line:none;text-decoration-style:solid;text-decoration-color:#000;text-transform:none;block-progression:tb;isolation:auto;mix-blend-mode:normal" d="M 19 2 C 18.477778 2 17.94539 2.1913289 17.568359 2.5683594 C 17.191329 2.9453899 17 3.4777778 17 4 L 9 4 C 7.346 4 6 5.346 6 7 L 6 45 C 6 46.654 7.346 48 9 48 L 41 48 C 42.388 48 43.559391 47.053484 43.900391 45.771484 C 43.965391 45.525484 44 45.266 44 45 L 44 7 C 44 5.346 42.654 4 41 4 L 33 4 C 33 3.4777778 32.808671 2.9453899 32.431641 2.5683594 C 32.05461 2.1913289 31.522222 2 31 2 L 19 2 z M 19 4 L 31 4 L 31 10 L 19 10 L 19 4 z M 9 6 L 17 6 L 17 8 L 10 8 L 10 44 L 40 44 L 40 8 L 33 8 L 33 6 L 41 6 C 41.551 6 42 6.448 42 7 L 42 45 C 42 45.552 41.551 46 41 46 L 9 46 C 8.449 46 8 45.552 8 45 L 8 7 C 8 6.448 8.449 6 9 6 z M 12 10 L 17 10 C 17 10.522222 17.191329 11.05461 17.568359 11.431641 C 17.94539 11.808671 18.477778 12 19 12 L 31 12 C 31.522222 12 32.05461 11.808671 32.431641 11.431641 C 32.808671 11.05461 33 10.522222 33 10 L 38 10 L 38 42 L 12 42 L 12 10 z M 33.994141 16.988281 A 1.0001 1.0001 0 0 0 33.175781 17.433594 L 23.541016 31.482422 L 16.675781 25.179688 A 1.0001 1.0001 0 1 0 15.324219 26.652344 L 23.886719 34.515625 L 34.824219 18.566406 A 1.0001 1.0001 0 0 0 33.994141 16.988281 z" font-weight="400" font-family="sans-serif" white-space="normal" overflow="visible"></path>
</svg>