<?xml version="1.0" encoding="UTF-8"?>
<svg xmlns="http://www.w3.org/2000/svg" xmlns:xlink="http://www.w3.org/1999/xlink" width="150pt" height="150pt" viewBox="0 0 150 150" version="1.1">
<g id="surface1">
<path style=" stroke:none;fill-rule:nonzero;fill:rgb(18.039216%,49.019608%,19.607843%);fill-opacity:1;" d="M 100.195312 105.0625 C 96.164062 105.0625 98.171875 95.671875 98.171875 94.316406 C 98.515625 93.648438 95.15625 53.679688 95.15625 53.679688 C 95.5 52.324219 96.164062 50.644531 98.515625 50.644531 L 99.183594 50.644531 C 104.566406 50.644531 109.261719 46.277344 109.261719 40.910156 C 109.261719 35.527344 104.894531 31.15625 99.183594 31.15625 C 93.820312 31.15625 89.105469 35.527344 89.105469 40.910156 C 89.105469 41.917969 89.105469 42.914062 89.449219 43.925781 C 89.449219 43.925781 91.453125 48.964844 87.097656 48.296875 C 87.097656 48.296875 49.136719 61.390625 47.457031 61.734375 C 42.742188 70.132812 30.660156 65.765625 26.957031 63.070312 C 25.949219 61.734375 23.941406 60.722656 21.59375 60.722656 C 17.519531 60.75 14.226562 64.042969 14.1875 68.113281 C 14.53125 71.8125 17.890625 75.171875 21.921875 75.171875 C 23.273438 75.171875 24.953125 74.828125 25.953125 74.164062 C 32 71.140625 43.089844 73.148438 44.429688 78.53125 L 44.429688 78.875 C 44.765625 79.867188 52.492188 95.328125 53.503906 96.664062 C 58.542969 106.074219 46.097656 109.777344 46.097656 109.777344 C 42.738281 109.777344 39.722656 112.792969 39.722656 116.496094 C 39.722656 120.523438 43.082031 123.882812 47.113281 123.882812 C 51.136719 123.882812 54.496094 120.523438 54.496094 116.492188 C 55.507812 108.765625 59.535156 103.726562 66.941406 103.382812 C 67.933594 103.726562 86.085938 102.390625 87.421875 102.046875 C 92.804688 103.054688 89.773438 107.429688 89.773438 114.8125 C 89.773438 120.179688 94.140625 124.554688 99.851562 124.554688 C 105.230469 124.554688 109.929688 120.179688 109.929688 114.8125 C 110.269531 109.4375 105.898438 105.0625 100.191406 105.0625 Z M 100.195312 105.0625 "/>
<path style=" stroke:none;fill-rule:nonzero;fill:rgb(29.803922%,68.627451%,31.372549%);fill-opacity:1;" d="M 122.375 55.6875 C 119.339844 55.6875 116.992188 57.039062 115.980469 59.710938 C 112.964844 64.082031 106.574219 65.09375 102.542969 63.070312 C 101.875 61.390625 59.542969 49.976562 59.542969 50.316406 C 54.175781 53.335938 49.136719 43.925781 49.464844 39.554688 L 49.464844 39.230469 C 49.804688 38.21875 49.804688 37.207031 49.804688 36.195312 C 49.804688 30.832031 45.4375 26.460938 39.726562 26.460938 C 34.34375 26.460938 29.648438 30.828125 29.648438 36.195312 C 29.648438 40.566406 32.664062 43.925781 36.023438 45.605469 C 41.75 47.957031 49.460938 54.675781 48.792969 59.386719 C 51.144531 63.414062 45.777344 84.238281 46.105469 85.917969 C 43.085938 88.953125 37.035156 88.269531 34.6875 87.273438 C 33.679688 85.917969 31.671875 85.25 29.648438 85.25 C 24.265625 85.25 19.570312 89.617188 19.570312 94.984375 C 19.570312 100.367188 23.9375 104.738281 29.648438 104.738281 C 33.007812 104.738281 35.695312 103.382812 37.703125 100.707031 C 40.738281 96.339844 45.777344 92.308594 50.148438 92.308594 C 50.816406 93.304688 104.890625 72.152344 104.890625 71.8125 C 105.234375 69.789062 113.289062 67.78125 120.351562 69.460938 L 122.375 69.460938 C 126.402344 69.460938 129.761719 66.101562 129.761719 62.078125 C 129.761719 58.03125 126.402344 55.683594 122.371094 55.683594 Z M 122.375 55.6875 "/>
<path style=" stroke:none;fill-rule:nonzero;fill:rgb(29.803922%,68.627451%,31.372549%);fill-opacity:1;" d="M 105.234375 75.171875 C 105.234375 91.863281 91.691406 105.40625 75 105.40625 C 58.308594 105.40625 44.765625 91.863281 44.765625 75.171875 C 44.765625 58.476562 58.308594 44.9375 75 44.9375 C 91.691406 44.9375 105.234375 58.476562 105.234375 75.171875 Z M 105.234375 75.171875 "/>
<path style=" stroke:none;fill-rule:nonzero;fill:rgb(54.509804%,76.470588%,29.019608%);fill-opacity:1;" d="M 82.726562 103.726562 C 83.742188 101.703125 80.039062 101.039062 77.023438 101.039062 C 73.988281 101.039062 70.972656 102.71875 71.640625 104.734375 C 79.695312 116.820312 73.664062 118.5 69.960938 120.867188 C 66.945312 122.203125 64.921875 125.90625 64.921875 129.265625 C 64.921875 134.628906 69.289062 139 75 139 C 80.710938 139 85.078125 134.632812 85.078125 129.265625 C 85.421875 119.855469 79.367188 106.742188 82.726562 103.726562 Z M 125.046875 84.90625 C 123.042969 84.90625 121.019531 85.25 119.683594 86.261719 C 113.632812 88.609375 108.25 84.238281 104.222656 81.546875 C 102.21875 80.210938 99.855469 83.570312 99.183594 84.582031 C 98.515625 85.589844 97.503906 90.289062 101.535156 90.289062 C 108.253906 87.9375 116.652344 99.695312 116.652344 99.695312 C 118.003906 103.054688 121.691406 105.0625 125.734375 105.0625 C 131.097656 105.0625 135.8125 100.710938 135.8125 95.328125 C 134.800781 89.28125 130.429688 84.90625 125.046875 84.90625 Z M 66.257812 26.460938 C 72.652344 39.554688 72.308594 44.59375 68.625 45.945312 C 65.589844 48.296875 70.628906 51.3125 74.332031 50.648438 C 78.015625 49.976562 81.375 48.296875 79.027344 44.9375 C 73.320312 34.859375 80.707031 28.140625 80.707031 28.140625 C 83.058594 26.800781 84.738281 23.773438 84.738281 20.75 C 84.738281 15.375 80.382812 11 74.660156 11 C 68.949219 11 64.582031 15.371094 64.582031 20.753906 C 64.582031 22.089844 64.921875 23.769531 65.589844 25.121094 C 65.589844 26.117188 65.589844 26.117188 66.261719 26.460938 Z M 66.257812 26.460938 "/>
<path style=" stroke:none;fill-rule:nonzero;fill:rgb(77.254902%,88.235294%,64.705882%);fill-opacity:1;" d="M 69.617188 75.171875 C 64.253906 75.171875 59.539062 70.804688 59.539062 65.4375 C 59.539062 60.054688 63.910156 55.683594 69.617188 55.683594 C 75.34375 55.683594 79.695312 60.054688 79.695312 65.4375 C 79.695312 70.800781 75.34375 75.171875 69.617188 75.171875 Z M 69.617188 75.171875 "/>
<path style=" stroke:none;fill-rule:nonzero;fill:rgb(94.509804%,97.254902%,91.372549%);fill-opacity:1;" d="M 64.578125 89.945312 C 61.5625 89.945312 59.539062 87.941406 59.539062 84.90625 C 59.539062 81.890625 61.5625 79.867188 64.578125 79.867188 C 67.613281 79.867188 69.617188 81.890625 69.617188 84.90625 C 69.617188 87.941406 67.613281 89.945312 64.578125 89.945312 Z M 64.578125 89.945312 "/>
<path style=" stroke:none;fill-rule:nonzero;fill:rgb(86.27451%,92.941176%,78.431373%);fill-opacity:1;" d="M 82.390625 95.328125 C 78.359375 95.328125 75 91.96875 75 87.9375 C 75 83.914062 78.359375 80.554688 82.390625 80.554688 C 86.414062 80.554688 89.773438 83.914062 89.773438 87.941406 C 89.773438 91.96875 86.414062 95.328125 82.386719 95.328125 Z M 82.390625 95.328125 "/>
</g>
</svg>
