<svg xmlns="http://www.w3.org/2000/svg" xmlns:xlink="http://www.w3.org/1999/xlink" viewBox="0 0 50 50" version="1.1">
<g id="surface1">
<path style=" " d="M 9.3125 1.90625 C 9.210938 2.40625 8.988281 2.886719 8.6875 3.1875 C 8.386719 3.585938 7.992188 3.894531 7.59375 4.09375 C 7.09375 4.292969 6.695313 4.492188 6.09375 4.59375 C 5.492188 4.695313 5.007813 4.6875 4.40625 4.6875 L 4.40625 6.90625 L 8.5 6.90625 L 8.5 18.6875 L 11.5 18.6875 L 11.5 1.90625 Z M 39.78125 7.96875 C 38.75 8.082031 37.976563 8.964844 38 10 L 38 34.71875 L 33.53125 30.21875 C 33.101563 29.777344 32.488281 29.554688 31.875 29.625 C 31.097656 29.699219 30.433594 30.222656 30.179688 30.960938 C 29.921875 31.703125 30.121094 32.523438 30.6875 33.0625 L 38.59375 40.9375 L 40 42.34375 L 41.40625 40.9375 L 49.3125 33.0625 C 50.097656 32.277344 50.097656 31.003906 49.3125 30.21875 C 48.527344 29.433594 47.253906 29.433594 46.46875 30.21875 L 42 34.71875 L 42 10 C 42.007813 9.457031 41.796875 8.9375 41.414063 8.554688 C 41.03125 8.171875 40.511719 7.960938 39.96875 7.96875 C 39.90625 7.964844 39.84375 7.964844 39.78125 7.96875 Z M 9.5 30.3125 C 8.820313 30.359375 8.210938 30.511719 7.6875 30.8125 C 6.988281 31.210938 6.40625 31.585938 5.90625 32.1875 C 5.40625 32.789063 5.113281 33.511719 4.8125 34.3125 C 4.511719 35.113281 4.40625 36.007813 4.40625 36.90625 L 7 36.90625 C 7 36.304688 7.085938 35.6875 7.1875 35.1875 C 7.289063 34.6875 7.488281 34.304688 7.6875 33.90625 C 7.988281 33.507813 8.195313 33.199219 8.59375 33 C 8.992188 32.800781 9.5 32.6875 10 32.6875 C 10.601563 32.6875 11.007813 32.800781 11.40625 33 C 11.804688 33.199219 12.113281 33.386719 12.3125 33.6875 C 12.511719 33.988281 12.585938 34.386719 12.6875 34.6875 C 12.789063 35.085938 12.8125 35.386719 12.8125 35.6875 C 12.8125 36.285156 12.613281 36.90625 12.3125 37.40625 C 12.011719 37.90625 11.59375 38.414063 11.09375 38.8125 C 10.59375 39.210938 10.101563 39.601563 9.5 40 C 8.898438 40.398438 8.3125 40.789063 7.8125 41.1875 C 6.710938 41.988281 5.792969 42.90625 5.09375 43.90625 C 4.492188 44.90625 4.09375 46.101563 4.09375 47.5 L 15.59375 47.5 L 15.59375 45 L 7.40625 45 C 7.507813 44.699219 7.699219 44.300781 8 44 C 8.300781 43.699219 8.613281 43.394531 9.3125 43.09375 C 9.710938 42.792969 10.09375 42.488281 10.59375 42.1875 C 10.992188 41.886719 11.5 41.488281 12 41.1875 C 12.5 40.789063 13.007813 40.492188 13.40625 40.09375 C 13.804688 39.695313 14.195313 39.3125 14.59375 38.8125 C 14.894531 38.3125 15.207031 37.8125 15.40625 37.3125 C 15.605469 36.8125 15.6875 36.199219 15.6875 35.5 C 15.6875 35 15.605469 34.414063 15.40625 33.8125 C 15.207031 33.214844 14.898438 32.59375 14.5 32.09375 C 14 31.59375 13.511719 31.113281 12.8125 30.8125 C 12.113281 30.511719 11.1875 30.3125 10.1875 30.3125 C 9.9375 30.3125 9.726563 30.296875 9.5 30.3125 Z "></path>
</g>
</svg>