<svg xmlns="http://www.w3.org/2000/svg" xmlns:xlink="http://www.w3.org/1999/xlink" viewBox="0 0 50 50" version="1.1">
<g id="surface1">
<path style=" " d="M 2 2 L 2 40 L 19 40 L 19 48 L 48 48 L 48 21.59375 L 47.71875 21.28125 L 36.71875 10.28125 L 36.40625 10 L 27.4375 10 L 19.71875 2.28125 L 19.40625 2 Z M 4 4 L 18 4 L 18 15 L 29 15 L 29 38 L 4 38 Z M 20 5.4375 L 26 11.40625 L 26 11.4375 C 26.007813 11.457031 26.019531 11.480469 26.03125 11.5 C 26.117188 11.640625 26.234375 11.757813 26.375 11.84375 C 26.40625 11.867188 26.4375 11.886719 26.46875 11.90625 L 27.5625 13 L 20 13 Z M 29.4375 12 L 35 12 L 35 23 L 46 23 L 46 46 L 21 46 L 21 40 L 31 40 L 31 36.4375 L 33.28125 38.71875 L 34.71875 37.28125 L 31.4375 34 L 41 34 L 41 32 L 31.4375 32 L 34.71875 28.71875 L 33.28125 27.28125 L 31 29.5625 L 31 13.59375 L 30.71875 13.28125 Z M 37 13.4375 L 44.5625 21 L 37 21 Z M 17.71875 20.28125 L 16.28125 21.71875 L 19.5625 25 L 10 25 L 10 27 L 19.5625 27 L 16.28125 30.28125 L 17.71875 31.71875 L 22.71875 26.71875 L 23.40625 26 L 22.71875 25.28125 Z "></path>
</g>
</svg>