<?xml version="1.0"?>
<svg xmlns="http://www.w3.org/2000/svg" xmlns:xlink="http://www.w3.org/1999/xlink" version="1.1" viewBox="0 0 224 224" ><g fill="none" fill-rule="nonzero" stroke="none" stroke-width="1" stroke-linecap="butt" stroke-linejoin="miter" stroke-miterlimit="10" stroke-dasharray="" stroke-dashoffset="0" font-family="none" font-weight="none" font-size="none" text-anchor="none" style="mix-blend-mode: normal"><path d="M0,224v-224h224v224z" fill="none"/><g fill="#000000"><g id="surface1"><path d="M31.36,8.96v206.08h161.28v-149.66l-1.26,-1.4l-53.76,-53.76l-1.4,-1.26zM40.32,17.92h89.6v53.76h53.76v134.4h-143.36zM138.88,24.36l38.36,38.36h-38.36z"/></g></g><g fill="#000000"><path d="M74.885,108.515v5.37h-21.57v17.63h25.05v5.37h-31.61v-49.77h31.27v5.4h-24.71v16zM116.815,136.885l-17.63,-23.14l-6.09,6.32v16.82h-6.56v-49.77h6.56v24.61l22.12,-24.61h7.93l-19.59,21.98l21.13,27.79zM140.405,113.165v5.16h-16.68v-5.16zM176.085,100.105v0c0,2.48667 -0.65333,4.69667 -1.96,6.63c-1.31333,1.94 -3.08667,3.45667 -5.32,4.55v0c2.6,1.11333 4.65667,2.74333 6.17,4.89c1.51333,2.14 2.27,4.56667 2.27,7.28v0c0,4.30667 -1.45,7.73667 -4.35,10.29c-2.90667,2.54667 -6.73,3.82 -11.47,3.82v0c-4.78667,0 -8.62,-1.28 -11.5,-3.84c-2.88667,-2.56667 -4.33,-5.99 -4.33,-10.27v0c0,-2.69333 0.73667,-5.12 2.21,-7.28c1.46667,-2.16667 3.5,-3.80667 6.1,-4.92v0c-2.21333,-1.1 -3.95667,-2.61667 -5.23,-4.55c-1.27333,-1.94 -1.91,-4.14 -1.91,-6.6v0c0,-4.19333 1.34333,-7.52 4.03,-9.98c2.68667,-2.46 6.23,-3.69 10.63,-3.69v0c4.37333,0 7.91,1.23 10.61,3.69c2.7,2.46 4.05,5.78667 4.05,9.98zM170.925,123.315v0c0,-2.78 -0.88333,-5.04667 -2.65,-6.8c-1.76667,-1.75333 -4.07333,-2.63 -6.92,-2.63c-2.84667,0 -5.13,0.86333 -6.85,2.59c-1.72,1.73333 -2.58,4.01333 -2.58,6.84c0,2.82667 0.83667,5.05 2.51,6.67c1.67333,1.61333 4.00333,2.42 6.99,2.42v0c2.96,0 5.28333,-0.81333 6.97,-2.44c1.68667,-1.63333 2.53,-3.85 2.53,-6.65zM161.425,91.635v0c-2.48667,0 -4.49667,0.76667 -6.03,2.3c-1.54,1.54 -2.31,3.63333 -2.31,6.28v0c0,2.52667 0.75667,4.57 2.27,6.13c1.52,1.56 3.54333,2.34 6.07,2.34c2.52667,0 4.55,-0.78 6.07,-2.34c1.51333,-1.56 2.27,-3.60333 2.27,-6.13c0,-2.53333 -0.78667,-4.59667 -2.36,-6.19c-1.57333,-1.59333 -3.56667,-2.39 -5.98,-2.39z"/></g></g></svg>
