<svg xmlns="http://www.w3.org/2000/svg" xmlns:xlink="http://www.w3.org/1999/xlink" viewBox="0 0 50 50" version="1.1">
<g id="surface1">
<path style=" " d="M 15 6 C 12.445313 6 10.316406 7.957031 10.03125 10.4375 C 8.65625 11.023438 7.535156 12.167969 6.96875 13.625 C 6.96875 13.636719 6.96875 13.644531 6.96875 13.65625 L 1.3125 28.46875 C 0.480469 29.96875 0 31.679688 0 33.5 C 0 39.25 4.75 44 10.5 44 C 15.953125 44 20.484375 39.722656 20.9375 34.375 C 21.996094 35.359375 23.429688 35.9375 25 35.9375 C 26.570313 35.9375 28.003906 35.359375 29.0625 34.375 C 29.515625 39.722656 34.046875 44 39.5 44 C 45.25 44 50 39.25 50 33.5 C 50 31.84375 49.605469 30.277344 48.90625 28.875 C 48.894531 28.789063 48.875 28.707031 48.84375 28.625 L 43.03125 13.625 C 42.464844 12.167969 41.34375 11.023438 39.96875 10.4375 C 39.683594 7.957031 37.554688 6 35 6 C 32.597656 6 30.5625 7.730469 30.09375 10 L 28.8125 10 C 28.363281 8.285156 26.855469 7 25 7 C 23.144531 7 21.636719 8.285156 21.1875 10 L 19.90625 10 C 19.4375 7.730469 17.402344 6 15 6 Z M 15 8 C 16.300781 8 17.394531 8.84375 17.8125 10 L 12.1875 10 C 12.605469 8.84375 13.699219 8 15 8 Z M 35 8 C 36.300781 8 37.394531 8.84375 37.8125 10 L 32.1875 10 C 32.605469 8.84375 33.699219 8 35 8 Z M 25 9 C 26.125 9 26.917969 9.726563 27 10.8125 C 27 10.84375 27 10.875 27 10.90625 C 27 10.9375 27 10.96875 27 11 C 27 11.03125 27 11.0625 27 11.09375 L 28.46875 25.15625 C 27.496094 24.460938 26.296875 24.0625 25 24.0625 C 23.703125 24.0625 22.503906 24.460938 21.53125 25.15625 L 22.96875 11.28125 C 22.980469 11.25 22.992188 11.21875 23 11.1875 L 23 11.15625 C 23 11.136719 23 11.113281 23 11.09375 C 23 11.082031 23 11.074219 23 11.0625 C 23 11.042969 23 11.019531 23 11 C 23 10.96875 23 10.9375 23 10.90625 C 23.003906 10.863281 23.003906 10.824219 23 10.78125 C 23.09375 9.710938 23.882813 9 25 9 Z M 12.1875 12 L 20.875 12 L 19.21875 27.75 C 17.328125 24.914063 14.125 23 10.5 23 C 8.445313 23 6.535156 23.617188 4.90625 24.65625 L 8.84375 14.375 L 8.84375 14.34375 C 9.40625 12.925781 10.71875 12 12.1875 12 Z M 29.125 12 L 37.8125 12 C 39.292969 12 40.601563 12.945313 41.15625 14.375 L 45.15625 24.6875 C 43.515625 23.625 41.578125 23 39.5 23 C 35.875 23 32.671875 24.914063 30.78125 27.75 Z M 10.5 25 C 15.148438 25 19 28.851563 19 33.5 C 19 38.148438 15.148438 42 10.5 42 C 5.851563 42 2 38.148438 2 33.5 C 2 32.144531 2.328125 30.863281 2.90625 29.71875 C 3.003906 29.609375 3.082031 29.484375 3.125 29.34375 C 4.597656 26.769531 7.359375 25 10.5 25 Z M 39.5 25 C 44.148438 25 48 28.851563 48 33.5 C 48 38.148438 44.148438 42 39.5 42 C 34.851563 42 31 38.148438 31 33.5 C 31 28.851563 34.851563 25 39.5 25 Z M 25 25.9375 C 26.871094 25.9375 28.375 27.109375 28.875 28.78125 L 29 30.09375 C 29.003906 30.15625 29.015625 30.21875 29.03125 30.28125 C 28.894531 32.441406 27.207031 34.0625 25 34.0625 C 22.78125 34.0625 21.09375 32.425781 20.96875 30.25 C 20.96875 30.238281 20.96875 30.230469 20.96875 30.21875 C 20.980469 30.179688 20.992188 30.136719 21 30.09375 L 21.125 28.78125 C 21.625 27.109375 23.128906 25.9375 25 25.9375 Z M 4.90625 32.46875 C 4.863281 32.476563 4.820313 32.488281 4.78125 32.5 C 4.316406 32.605469 3.988281 33.023438 4 33.5 C 4 37.054688 6.945313 40 10.5 40 C 10.859375 40.003906 11.195313 39.816406 11.378906 39.503906 C 11.558594 39.191406 11.558594 38.808594 11.378906 38.496094 C 11.195313 38.183594 10.859375 37.996094 10.5 38 C 8.054688 38 6 35.945313 6 33.5 C 6.011719 33.210938 5.894531 32.933594 5.6875 32.738281 C 5.476563 32.539063 5.191406 32.441406 4.90625 32.46875 Z M 33.90625 32.46875 C 33.863281 32.476563 33.820313 32.488281 33.78125 32.5 C 33.316406 32.605469 32.988281 33.023438 33 33.5 C 33 37.054688 35.945313 40 39.5 40 C 39.859375 40.003906 40.195313 39.816406 40.378906 39.503906 C 40.558594 39.191406 40.558594 38.808594 40.378906 38.496094 C 40.195313 38.183594 39.859375 37.996094 39.5 38 C 37.054688 38 35 35.945313 35 33.5 C 35.011719 33.210938 34.894531 32.933594 34.6875 32.738281 C 34.476563 32.539063 34.191406 32.441406 33.90625 32.46875 Z "></path>
</g>
</svg>