<svg xmlns="http://www.w3.org/2000/svg" xmlns:xlink="http://www.w3.org/1999/xlink" viewBox="0 0 50 50" version="1.1">
<g id="surface1">
<path style=" " d="M 4 7 C 2.355469 7 1 8.355469 1 10 L 1 40 C 1 41.644531 2.355469 43 4 43 L 46 43 C 47.644531 43 49 41.644531 49 40 L 49 10 C 49 8.355469 47.644531 7 46 7 Z M 4 9 L 24 9 L 24 41 L 4 41 C 3.433594 41 3 40.566406 3 40 L 3 10 C 3 9.433594 3.433594 9 4 9 Z M 26 9 L 46 9 C 46.566406 9 47 9.433594 47 10 L 47 40 C 47 40.566406 46.566406 41 46 41 L 26 41 Z M 29 14 L 29 16 L 44 16 L 44 14 Z M 29 19 L 29 21 L 44 21 L 44 19 Z M 29 24 L 29 26 L 44 26 L 44 24 Z M 29 29 L 29 31 L 44 31 L 44 29 Z M 29 34 L 29 36 L 44 36 L 44 34 Z "></path>
</g>
</svg>