<svg xmlns="http://www.w3.org/2000/svg" xmlns:xlink="http://www.w3.org/1999/xlink" viewBox="0 0 50 50" version="1.1">
<g id="surface1">
<path style=" " d="M 25 0 C 21.699219 0 19 2.699219 19 6 C 19 9.300781 21.699219 12 25 12 C 28.300781 12 31 9.300781 31 6 C 31 2.699219 28.300781 0 25 0 Z M 25 2 C 27.222656 2 29 3.777344 29 6 C 29 8.222656 27.222656 10 25 10 C 22.777344 10 21 8.222656 21 6 C 21 3.777344 22.777344 2 25 2 Z M 21 13 C 19.46875 13 18.277344 13.675781 17.53125 14.46875 C 16.785156 15.261719 16.429688 16.144531 16.25 16.6875 C 16.25 16.6875 13.160156 26.136719 12.25 28.96875 C 12.246094 28.976563 12.253906 28.992188 12.25 29 C 11.921875 29.941406 12.015625 30.945313 12.5 31.71875 C 12.886719 32.339844 13.554688 32.75 14.3125 32.90625 C 14.144531 33.902344 14 34.96875 14 36 C 14 36.550781 14.449219 37 15 37 L 20 37 L 20 47 C 20 48.644531 21.355469 50 23 50 C 23.765625 50 24.46875 49.699219 25 49.21875 C 25.53125 49.699219 26.234375 50 27 50 C 28.644531 50 30 48.644531 30 47 L 30 37 L 35 37 C 35.550781 37 36 36.550781 36 36 C 36 34.96875 35.855469 33.902344 35.6875 32.90625 C 36.445313 32.75 37.113281 32.339844 37.5 31.71875 C 37.984375 30.945313 38.078125 29.941406 37.75 29 C 37.746094 28.992188 37.753906 28.976563 37.75 28.96875 C 36.839844 26.136719 33.75 16.6875 33.75 16.6875 C 33.570313 16.144531 33.214844 15.261719 32.46875 14.46875 C 31.722656 13.675781 30.53125 13 29 13 L 25.0625 13 C 25.042969 13 25.019531 13 25 13 Z M 21 15 L 25 15 C 25.03125 15 25.0625 15 25.09375 15 L 29 15 C 29.96875 15 30.542969 15.359375 31 15.84375 C 31.457031 16.328125 31.726563 16.957031 31.84375 17.3125 C 31.84375 17.3125 34.945313 26.804688 35.84375 29.59375 C 35.84375 29.605469 35.84375 29.613281 35.84375 29.625 C 36.003906 30.074219 35.949219 30.4375 35.8125 30.65625 C 35.707031 30.828125 35.554688 30.925781 35.3125 30.96875 C 34.980469 29.570313 34.65625 28.59375 34.65625 28.59375 C 34.527344 28.152344 34.113281 27.855469 33.65625 27.875 C 33.335938 27.886719 33.039063 28.050781 32.859375 28.316406 C 32.679688 28.582031 32.640625 28.917969 32.75 29.21875 C 32.75 29.21875 33.65625 32.265625 33.875 35 L 16.125 35 C 16.34375 32.265625 17.25 29.21875 17.25 29.21875 C 17.363281 28.914063 17.316406 28.570313 17.132813 28.304688 C 16.945313 28.035156 16.640625 27.875 16.3125 27.875 C 15.863281 27.871094 15.46875 28.164063 15.34375 28.59375 C 15.34375 28.59375 15.019531 29.570313 14.6875 30.96875 C 14.445313 30.925781 14.292969 30.828125 14.1875 30.65625 C 14.050781 30.4375 13.996094 30.074219 14.15625 29.625 C 14.15625 29.613281 14.15625 29.605469 14.15625 29.59375 C 15.054688 26.804688 18.15625 17.3125 18.15625 17.3125 C 18.273438 16.957031 18.542969 16.328125 19 15.84375 C 19.457031 15.359375 20.03125 15 21 15 Z M 25 19 C 21.144531 19 18 22.144531 18 26 C 18 29.855469 21.144531 33 25 33 C 28.855469 33 32 29.855469 32 26 C 32 22.144531 28.855469 19 25 19 Z M 25 21 C 27.773438 21 30 23.226563 30 26 C 30 28.773438 27.773438 31 25 31 C 22.226563 31 20 28.773438 20 26 C 20 23.226563 22.226563 21 25 21 Z M 23.5 23.59375 C 22.5 23.59375 21.6875 24.40625 21.6875 25.40625 C 21.6875 27.507813 24.101563 28.511719 25 29.3125 C 25.898438 28.613281 28.3125 27.507813 28.3125 25.40625 C 28.3125 24.40625 27.5 23.59375 26.5 23.59375 C 25.898438 23.59375 25.300781 23.90625 25 24.40625 C 24.699219 23.90625 24.101563 23.59375 23.5 23.59375 Z M 22 37 L 24 37 L 24 47 C 24 47.554688 23.554688 48 23 48 C 22.445313 48 22 47.554688 22 47 Z M 26 37 L 28 37 L 28 47 C 28 47.554688 27.554688 48 27 48 C 26.445313 48 26 47.554688 26 47 Z "></path>
</g>
</svg>