<svg xmlns="http://www.w3.org/2000/svg" xmlns:xlink="http://www.w3.org/1999/xlink" viewBox="0 0 50 50" version="1.1">
<g id="surface1">
<path style=" " d="M 3 7 C 1.355469 7 0 8.355469 0 10 L 0 42 C 0 43.644531 1.355469 45 3 45 L 10 45 L 10 43 L 12 43 L 12 45 L 38 45 L 38 43 L 40 43 L 40 45 L 47 45 C 48.644531 45 50 43.644531 50 42 L 50 14 C 50 12.355469 48.644531 11 47 11 L 26 11 L 26 10 C 26 8.355469 24.644531 7 23 7 Z M 3 9 L 23 9 C 23.5625 9 24 9.4375 24 10 L 24 13 L 47 13 C 47.5625 13 48 13.4375 48 14 L 48 42 C 48 42.5625 47.5625 43 47 43 L 42 43 L 42 41 L 36 41 L 36 43 L 14 43 L 14 41 L 8 41 L 8 43 L 3 43 C 2.4375 43 2 42.5625 2 42 L 2 10 C 2 9.4375 2.4375 9 3 9 Z M 13.46875 18 C 10.109375 18.0625 9.703125 20.617188 10.4375 23.5625 C 10.308594 23.644531 10.101563 23.9375 10.15625 24.40625 C 10.257813 25.277344 10.59375 25.480469 10.8125 25.5 C 10.894531 26.3125 11.410156 27.285156 11.6875 27.4375 C 11.6875 28.015625 11.710938 28.457031 11.65625 29.09375 C 10.992188 30.949219 6.207031 30.421875 6 34 L 21 34 C 20.792969 30.421875 16.039063 30.949219 15.375 29.09375 C 15.320313 28.457031 15.34375 28.015625 15.34375 27.4375 C 15.621094 27.285156 16.101563 26.3125 16.1875 25.5 C 16.40625 25.480469 16.742188 25.277344 16.84375 24.40625 C 16.898438 23.9375 16.691406 23.675781 16.5625 23.59375 C 16.914063 22.488281 17.636719 19.042969 15.1875 18.6875 C 14.933594 18.226563 14.308594 18 13.46875 18 Z M 26 22 L 26 24 L 44 24 L 44 22 Z M 26 27 L 26 29 L 44 29 L 44 27 Z M 26 32 L 26 34 L 44 34 L 44 32 Z "></path>
</g>
</svg>