<svg xmlns="http://www.w3.org/2000/svg" xmlns:xlink="http://www.w3.org/1999/xlink" viewBox="0 0 50 50" version="1.1">
<g id="surface1">
<path style=" " d="M 25 0 C 20.054688 0 16 4.054688 16 9 C 16 13.945313 20.054688 18 25 18 C 29.945313 18 34 13.945313 34 9 C 34 4.054688 29.945313 0 25 0 Z M 25 2 C 28.855469 2 32 5.144531 32 9 C 32 12.855469 28.855469 16 25 16 C 21.144531 16 18 12.855469 18 9 C 18 5.144531 21.144531 2 25 2 Z M 25 4.8125 C 24.335938 4.8125 23.8125 5.335938 23.8125 6 C 23.8125 6.664063 24.335938 7.1875 25 7.1875 C 25.664063 7.1875 26.1875 6.664063 26.1875 6 C 26.1875 5.335938 25.664063 4.8125 25 4.8125 Z M 24 8.3125 L 24 13 L 26 13 L 26 8.3125 Z M 3.5 22 C 1.578125 22 0 23.578125 0 25.5 L 0 50 L 7 50 L 7 46 L 43 46 L 43 50 L 50 50 L 50 34.5 C 50 32.578125 48.421875 31 46.5 31 C 45.953125 31 45.460938 31.148438 45 31.375 L 45 31 C 45 29.355469 43.644531 28 42 28 L 22 28 C 20.355469 28 19 29.355469 19 31 L 19 39 L 7 39 L 7 25.5 C 7 23.578125 5.421875 22 3.5 22 Z M 3.5 24 C 4.375 24 5 24.625 5 25.5 L 5 41 L 45 41 L 45 34.5 C 45 33.625 45.625 33 46.5 33 C 47.375 33 48 33.625 48 34.5 L 48 48 L 45 48 L 45 44 L 5 44 L 5 48 L 2 48 L 2 25.5 C 2 24.625 2.625 24 3.5 24 Z M 13 28 C 10.25 28 8 30.25 8 33 C 8 35.75 10.25 38 13 38 C 15.75 38 18 35.75 18 33 C 18 30.25 15.75 28 13 28 Z M 13 30 C 14.667969 30 16 31.332031 16 33 C 16 34.667969 14.667969 36 13 36 C 11.332031 36 10 34.667969 10 33 C 10 31.332031 11.332031 30 13 30 Z M 22 30 L 42 30 C 42.554688 30 43 30.445313 43 31 L 43 39 L 21 39 L 21 31 C 21 30.445313 21.445313 30 22 30 Z "></path>
</g>
</svg>