<svg xmlns="http://www.w3.org/2000/svg" viewBox="0 0 50 50">
    <path d="M41,4h-8c0-1.1-0.9-2-2-2H19c-1.1,0-2,0.9-2,2H9C7.35,4,6,5.35,6,7v38c0,1.65,1.35,3,3,3h32c1.65,0,3-1.35,3-3V7 C44,5.35,42.65,4,41,4z M19,4h12v6H19V4z M19,12h12c1.1,0,2-0.9,2-2h5v32H12V10h5C17,11.1,17.9,12,19,12z M42,45c0,0.55-0.45,1-1,1 H9c-0.55,0-1-0.45-1-1V7c0-0.55,0.45-1,1-1h8v2h-7v36h30V8h-7V6h8c0.55,0,1,0.45,1,1V45z M26,17v2H15v-2H26z M26,23v2H15v-2H26z M35,17v2h-4v-2H35z M35,23v2h-4v-2H35z M26,29v2H15v-2H26z M26,35v2H15v-2H26z M35,29v2h-4v-2H35z M35,35v2h-4v-2H35z"></path>
</svg>