<svg xmlns="http://www.w3.org/2000/svg" xmlns:xlink="http://www.w3.org/1999/xlink" viewBox="0 0 50 50" version="1.1">
<g id="surface1">
<path style=" " d="M 8 0 C 5.253906 0 3 2.253906 3 5 L 3 23 C 1.355469 23 0 24.355469 0 26 L 0 36 C 0 38.746094 2.253906 41 5 41 L 45 41 C 47.746094 41 50 38.746094 50 36 L 50 26 C 50 24.355469 48.644531 23 47 23 L 47 5 C 47 2.253906 44.746094 0 42 0 Z M 8 2 L 42 2 C 43.65625 2 45 3.34375 45 5 L 45 19.9375 C 43.390625 20.382813 36.804688 22 25 22 C 13.195313 22 6.609375 20.382813 5 19.9375 L 5 5 C 5 3.34375 6.34375 2 8 2 Z M 17 5 L 18.8125 8 L 33 8 L 31.1875 5 Z M 17 10 L 18.8125 13 L 33 13 L 31.1875 10 Z M 17 15 L 18.8125 18 L 33 18 L 31.1875 15 Z M 5 22 C 7.667969 22.648438 14.476563 24 25 24 C 35.523438 24 42.332031 22.648438 45 22 L 45 39 L 5 39 Z M 3 25 L 3 28 C 2.445313 28 2 27.554688 2 27 L 2 26 C 2 25.445313 2.445313 25 3 25 Z M 47 25 C 47.554688 25 48 25.445313 48 26 L 48 27 C 48 27.554688 47.554688 28 47 28 Z M 25 26.40625 C 25 26.40625 22.09375 30.710938 22.09375 32.3125 C 22.09375 33.914063 23.398438 35.1875 25 35.1875 C 26.601563 35.1875 27.90625 33.914063 27.90625 32.3125 C 27.90625 30.710938 25 26.40625 25 26.40625 Z M 2 29.8125 C 2.316406 29.925781 2.648438 30 3 30 L 3 38.21875 C 2.390625 37.667969 2 36.882813 2 36 Z M 48 29.8125 L 48 36 C 48 36.882813 47.609375 37.667969 47 38.21875 L 47 30 C 47.351563 30 47.683594 29.925781 48 29.8125 Z M 3 42 L 3 45 C 3 47.746094 5.253906 50 8 50 L 42 50 C 44.746094 50 47 47.746094 47 45 L 47 42 L 45 42 L 45 45 C 45 46.65625 43.65625 48 42 48 L 8 48 C 6.34375 48 5 46.65625 5 45 L 5 42 Z "></path>
</g>
</svg>