<svg xmlns="http://www.w3.org/2000/svg" xmlns:xlink="http://www.w3.org/1999/xlink" viewBox="0 0 50 50" version="1.1">
<g id="surface1">
<path style=" " d="M 25 0 C 23.785156 0 22.066406 0.0195313 20.40625 0.34375 C 18.824219 0.652344 17.203125 1.234375 16.28125 2.59375 C 16.234375 2.640625 16.191406 2.695313 16.15625 2.75 C 16.148438 2.761719 16.132813 2.769531 16.125 2.78125 C 16.0625 2.886719 16.019531 3.003906 16 3.125 C 16 3.136719 16 3.144531 16 3.15625 C 15.8125 3.558594 12.402344 10.882813 11.375 13.65625 C 10.183594 16.878906 11.65625 20.496094 13.375 22.96875 C 13.851563 23.65625 15.332031 25.550781 17.40625 28.15625 C 17.425781 28.179688 17.449219 28.226563 17.46875 28.25 C 11.773438 35.285156 6.125 42.15625 6.125 42.15625 C 5.773438 42.578125 5.828125 43.207031 6.25 43.5625 L 13.75 49.78125 C 13.957031 49.957031 14.230469 50.039063 14.503906 50.011719 C 14.773438 49.980469 15.019531 49.839844 15.1875 49.625 C 15.1875 49.625 20.039063 43.5625 24.90625 37.5 C 29.890625 43.6875 34.71875 49.625 34.71875 49.625 C 35.0625 50.058594 35.695313 50.125 36.125 49.78125 L 43.71875 43.5625 C 44.152344 43.21875 44.21875 42.585938 43.875 42.15625 C 43.875 42.15625 38.585938 35.710938 33.0625 28.875 C 32.859375 28.625 32.703125 28.40625 32.5 28.15625 C 34.488281 25.660156 36.167969 23.503906 36.5625 23.03125 C 36.585938 23.011719 36.605469 22.992188 36.625 22.96875 C 38.34375 20.496094 39.816406 16.878906 38.625 13.65625 C 37.585938 10.855469 34.085938 3.320313 33.96875 3.0625 C 33.964844 3.058594 33.90625 2.875 33.90625 2.875 C 33.898438 2.84375 33.886719 2.8125 33.875 2.78125 C 33.859375 2.757813 33.828125 2.742188 33.8125 2.71875 C 33.792969 2.6875 33.773438 2.65625 33.75 2.625 C 32.832031 1.238281 31.191406 0.65625 29.59375 0.34375 C 27.933594 0.0195313 26.214844 0 25 0 Z M 25 2 C 26.1875 2 27.804688 2.035156 29.21875 2.3125 C 30.570313 2.574219 31.617188 3.074219 32.0625 3.71875 C 32.121094 4.089844 32.203125 4.988281 31.9375 6.1875 C 31.777344 6.929688 31.554688 8.050781 31.09375 9.375 C 29.664063 9.148438 28.167969 9 25 9 C 21.832031 9 20.335938 9.148438 18.90625 9.375 C 18.445313 8.050781 18.222656 6.929688 18.0625 6.1875 C 17.796875 4.988281 17.878906 4.089844 17.9375 3.71875 C 18.382813 3.074219 19.429688 2.574219 20.78125 2.3125 C 22.195313 2.035156 23.8125 2 25 2 Z M 16.3125 7.34375 C 16.5 8.207031 16.789063 9.402344 17.3125 10.78125 C 17.335938 10.859375 17.367188 10.929688 17.40625 11 C 17.824219 12.0625 18.371094 13.222656 19.15625 14.4375 C 19.746094 15.355469 21.394531 17.484375 23.65625 20.34375 C 23.789063 20.511719 23.988281 20.734375 24.125 20.90625 C 24.144531 20.933594 24.167969 20.972656 24.1875 21 C 24.222656 21.054688 24.265625 21.109375 24.3125 21.15625 C 26.097656 23.402344 28.179688 25.988281 30.28125 28.59375 C 30.347656 28.753906 30.457031 28.894531 30.59375 29 C 30.597656 29.003906 30.621094 28.996094 30.625 29 C 30.636719 29.011719 30.644531 29.019531 30.65625 29.03125 C 30.96875 29.421875 31.21875 29.769531 31.53125 30.15625 C 36.734375 36.597656 41.121094 41.964844 41.6875 42.65625 L 35.65625 47.59375 C 35.097656 46.902344 31.023438 41.902344 26.21875 35.9375 C 26.066406 35.75 25.933594 35.597656 25.78125 35.40625 C 25.730469 35.3125 25.667969 35.230469 25.59375 35.15625 C 23.535156 32.59375 21.53125 30.101563 19.78125 27.90625 C 19.78125 27.894531 19.78125 27.886719 19.78125 27.875 C 19.769531 27.859375 19.761719 27.828125 19.75 27.8125 C 19.675781 27.621094 19.546875 27.457031 19.375 27.34375 C 19.363281 27.34375 19.355469 27.34375 19.34375 27.34375 C 19.242188 27.214844 19.097656 27.03125 19 26.90625 C 16.929688 24.308594 15.351563 22.308594 15.03125 21.84375 C 13.550781 19.714844 12.441406 16.523438 13.25 14.34375 C 13.871094 12.664063 15.136719 9.933594 16.3125 7.34375 Z M 33.6875 7.34375 C 34.863281 9.933594 36.128906 12.664063 36.75 14.34375 C 37.546875 16.492188 36.480469 19.621094 35.03125 21.75 C 35.011719 21.777344 34.988281 21.816406 34.96875 21.84375 C 34.492188 22.421875 32.941406 24.402344 31.21875 26.5625 C 29.484375 24.398438 27.792969 22.277344 26.28125 20.375 C 27.296875 19.074219 28.289063 17.828125 29.03125 16.875 C 29.910156 15.746094 30.523438 14.949219 30.84375 14.4375 C 31.644531 13.195313 32.203125 12.015625 32.625 10.9375 C 32.667969 10.847656 32.703125 10.753906 32.71875 10.65625 C 33.214844 9.324219 33.503906 8.183594 33.6875 7.34375 Z M 25 11 C 27.746094 11 29.097656 11.097656 30.3125 11.28125 C 29.996094 11.953125 29.609375 12.640625 29.15625 13.34375 C 29.15625 13.355469 29.15625 13.363281 29.15625 13.375 C 28.976563 13.664063 28.339844 14.503906 27.46875 15.625 C 26.808594 16.476563 25.898438 17.632813 25 18.78125 C 22.882813 16.101563 21.234375 13.949219 20.84375 13.34375 C 20.390625 12.640625 20.003906 11.953125 19.6875 11.28125 C 20.902344 11.097656 22.253906 11 25 11 Z M 18.75 29.84375 C 20.265625 31.738281 21.902344 33.765625 23.625 35.90625 C 18.964844 41.710938 14.789063 46.921875 14.25 47.59375 L 8.3125 42.6875 C 8.847656 42.039063 13.644531 36.152344 18.75 29.84375 Z "></path>
</g>
</svg>