<svg version="1.1" xmlns="http://www.w3.org/2000/svg" xmlns:xlink="http://www.w3.org/1999/xlink" viewBox="0 0 223 223"><g transform="translate(33.59766,33.59766) scale(0.7,0.7)"><g fill="none" fill-rule="nonzero" stroke="none" stroke-width="1" stroke-linecap="butt" stroke-linejoin="miter" stroke-miterlimit="10" stroke-dasharray="" stroke-dashoffset="0" font-family="none" font-weight="none" font-size="none" text-anchor="none" style="mix-blend-mode: normal"><path d="M0,223.98438v-223.98437h223.98438v223.98438z" fill="none"></path><g id="original-icon" fill="#000000" opacity="0" visibility="hidden"><g id="surface1"><path d="M127.11,4.46c-13.50195,0 -24.53,11.02805 -24.53,24.53c0,13.50195 11.02805,24.53 24.53,24.53c13.50195,0 24.53,-11.02805 24.53,-24.53c0,-13.50195 -11.02805,-24.53 -24.53,-24.53zM127.11,13.38c8.6761,0 15.61,6.93391 15.61,15.61c0,8.6761 -6.9339,15.61 -15.61,15.61c-8.67609,0 -15.61,-6.9339 -15.61,-15.61c0,-8.67609 6.93391,-15.61 15.61,-15.61zM111.5,57.98c-12.49148,0 -22.3,9.80852 -22.3,22.3l8.92,62.44h8.92l-2.23,-15.61c0.66203,0.54008 1.35891,1.08016 2.09063,1.53312c0.05227,0.05227 0.08711,0.08711 0.13937,0.13938l24.66938,14.495h0.13938c0.05227,0.03485 0.08711,0.10453 0.13938,0.13938c1.84672,1.16727 4.04188,1.95125 6.27187,1.95125c4.16383,0 8.32766,-2.17773 10.87125,-5.99312c0.05227,-0.08711 0.10453,-0.19164 0.13938,-0.27875c2.57844,-4.65164 1.86414,-10.29633 -1.39375,-14.21625h43.90312c2.68297,0 4.46,1.77703 4.46,4.46c0,2.68297 -1.77703,4.46 -4.46,4.46h-36.09813c0,2.68297 -0.88852,4.87812 -2.23,7.10813c-0.45297,0.45297 -0.97563,0.92336 -0.97563,1.81187h39.30375c7.57852,0 13.38,-5.80148 13.38,-13.38c0,-7.57852 -5.80148,-13.38 -13.38,-13.38h-57.28313l-13.51937,-7.94437l-5.15687,-17.84c-0.69687,-2.3868 -3.1882,-3.76313 -5.575,-3.06625c-2.3868,0.69688 -3.76313,3.1882 -3.06625,5.575l5.85375,19.65187c0.3136,1.04531 1.01047,1.93383 1.95125,2.50875l25.0875,14.77375c1.91641,1.06273 2.40422,3.06625 1.39375,5.0175c-0.97562,1.2718 -2.10805,1.81188 -3.20562,1.81188c-0.34844,0 -0.76656,-0.05227 -1.53312,-0.5575c-0.08711,-0.05227 -0.19164,-0.10453 -0.27875,-0.13938l-24.80875,-14.63438c-0.05227,-0.03484 -0.08711,-0.10453 -0.13938,-0.13938c-2.52617,-1.63765 -4.56453,-4.37289 -5.575,-7.38687l-6.1325,-23.69375c-0.10453,-0.48781 -0.29617,-0.9582 -0.5575,-1.39375l-1.115,-8.22312c0,-7.57852 5.80148,-13.38 13.38,-13.38h31.63813c4.46,0 8.46703,2.28227 11.15,5.85375l26.76,38.74625h10.73188l-30.38375,-43.76375c-4.00703,-6.23703 -11.11515,-9.75625 -18.25813,-9.75625zM152.1975,84.60063c-0.47039,0 -0.94078,0.03485 -1.39375,0.13938c-1.77703,0.45297 -3.20562,2.23 -3.20562,4.46v22.3h8.50187v-7.52625l4.87813,7.52625h10.73188l-16.02813,-24.94813c-0.66203,-1.34148 -2.05578,-1.93383 -3.48437,-1.95125zM24.53,133.8c-13.50195,0 -24.53,11.02805 -24.53,24.53c0,13.50195 11.02805,24.53 24.53,24.53c13.50195,0 24.53,-11.02805 24.53,-24.53c0,-13.50195 -11.02805,-24.53 -24.53,-24.53zM118.19,140.90813l-4.46,6.27187h-42.37c-12.49148,0 -22.3,9.80852 -22.3,22.3c0,12.49148 9.80852,22.3 22.3,22.3h137.84188c7.57852,0 13.79813,-6.21961 13.79813,-13.79812c0,-7.14297 -5.8189,-12.92703 -12.96187,-13.38l-65.50625,-4.04188l5.71438,-15.19188c-3.11852,2.68297 -7.14297,4.46 -11.15,4.46l-4.87813,13.38c-0.45297,1.34148 -0.47039,2.70039 0.41813,4.04188c0.88852,1.34148 2.28227,1.77703 3.62375,2.23l71.77813,4.46c2.68297,0 4.46,2.19516 4.46,4.87813c0,2.68297 -2.19515,4.87812 -4.87812,4.87812h-76.935c0.7143,-1.63765 1.115,-3.41469 1.115,-5.29625c0,-7.33461 -6.04539,-13.38 -13.38,-13.38h-44.6v8.92h44.6c2.47391,0 4.46,1.9861 4.46,4.46c0,2.47391 -1.98609,4.46 -4.46,4.46v0.83625h-49.06c-7.57852,0 -13.38,-5.80148 -13.38,-13.38c0,-7.57852 5.80148,-13.38 13.38,-13.38h45.01813c1.77703,0 3.15336,-0.88852 4.04188,-2.23l5.29625,-9.33813zM24.53,142.72c8.6761,0 15.61,6.93391 15.61,15.61c0,8.6761 -6.9339,15.61 -15.61,15.61c-8.67609,0 -15.61,-6.9339 -15.61,-15.61c0,-8.67609 6.93391,-15.61 15.61,-15.61zM13.38,187.32c-7.33461,0 -13.38,6.04539 -13.38,13.38v17.84h8.92v-17.84c0,-2.4739 1.9861,-4.46 4.46,-4.46h22.3c1.18469,0 2.64813,0.74914 3.62375,1.95125h0.13938l4.46,5.29625l1.25437,1.6725h168.9225v13.38h8.92v-13.38c0,-2.33453 -0.81883,-4.72133 -2.50875,-6.41125c-1.68992,-1.68992 -4.07672,-2.50875 -6.41125,-2.50875h-164.74125l-3.06625,-3.62375c-0.01742,-0.03484 -0.12195,0.03485 -0.13938,0c-2.59586,-3.20562 -6.32414,-5.29625 -10.45312,-5.29625z"></path></g></g><g id="subtracted-icon" fill="#000000"><g id="surface1 1"><path d="M127.11,4.46c-13.50195,0 -24.53,11.02805 -24.53,24.53c0,13.50195 11.02805,24.53 24.53,24.53c13.50195,0 24.53,-11.02805 24.53,-24.53c0,-13.50195 -11.02805,-24.53 -24.53,-24.53zM127.11,13.38c8.6761,0 15.61,6.93391 15.61,15.61c0,8.6761 -6.9339,15.61 -15.61,15.61c-8.67609,0 -15.61,-6.9339 -15.61,-15.61c0,-8.67609 6.93391,-15.61 15.61,-15.61zM111.5,57.98c-12.49148,0 -22.3,9.80852 -22.3,22.3l8.92,62.44h8.92l-2.23,-15.61c0.66203,0.54008 1.35891,1.08016 2.09063,1.53312c0.05227,0.05227 0.08711,0.08711 0.13937,0.13938l24.66938,14.495h0.13938c0.05227,0.03485 0.08711,0.10453 0.13938,0.13938c1.84672,1.16727 4.04188,1.95125 6.27187,1.95125c4.16383,0 8.32766,-2.17773 10.87125,-5.99312c0.05227,-0.08711 0.10453,-0.19164 0.13938,-0.27875c2.57844,-4.65164 1.86414,-10.29633 -1.39375,-14.21625h43.90312c2.68297,0 4.46,1.77703 4.46,4.46c0,2.68297 -1.77703,4.46 -4.46,4.46h-36.09813c0,2.68297 -0.88852,4.87812 -2.23,7.10813c-0.45297,0.45297 -0.97563,0.92336 -0.97563,1.81187h39.30375c7.57852,0 13.38,-5.80148 13.38,-13.38c0,-7.57852 -5.80148,-13.38 -13.38,-13.38h-57.28313l-13.51937,-7.94437l-5.15687,-17.84c-0.69687,-2.3868 -3.1882,-3.76313 -5.575,-3.06625c-2.3868,0.69688 -3.76313,3.1882 -3.06625,5.575l5.85375,19.65187c0.3136,1.04531 1.01047,1.93383 1.95125,2.50875l25.0875,14.77375c1.91641,1.06273 2.40422,3.06625 1.39375,5.0175c-0.97562,1.2718 -2.10805,1.81188 -3.20562,1.81188c-0.34844,0 -0.76656,-0.05227 -1.53312,-0.5575c-0.08711,-0.05227 -0.19164,-0.10453 -0.27875,-0.13938l-24.80875,-14.63438c-0.05227,-0.03484 -0.08711,-0.10453 -0.13938,-0.13938c-2.52617,-1.63765 -4.56453,-4.37289 -5.575,-7.38687l-6.1325,-23.69375c-0.10453,-0.48781 -0.29617,-0.9582 -0.5575,-1.39375l-1.115,-8.22312c0,-7.57852 5.80148,-13.38 13.38,-13.38h31.63813c4.46,0 8.46703,2.28227 11.15,5.85375l26.76,38.74625h10.73188l-30.38375,-43.76375c-4.00703,-6.23703 -11.11515,-9.75625 -18.25813,-9.75625zM152.1975,84.60063c-0.47039,0 -0.94078,0.03485 -1.39375,0.13938c-1.77703,0.45297 -3.20562,2.23 -3.20562,4.46v22.3h8.50187v-7.52625l4.87813,7.52625h10.73188l-16.02813,-24.94813c-0.66203,-1.34148 -2.05578,-1.93383 -3.48437,-1.95125zM24.53,133.8c-13.50195,0 -24.53,11.02805 -24.53,24.53c0,13.50195 11.02805,24.53 24.53,24.53c13.50195,0 24.53,-11.02805 24.53,-24.53c0,-13.50195 -11.02805,-24.53 -24.53,-24.53zM118.19,140.90813l-4.46,6.27187h-42.37c-12.49148,0 -22.3,9.80852 -22.3,22.3c0,12.49148 9.80852,22.3 22.3,22.3h137.84188c7.57852,0 13.79813,-6.21961 13.79813,-13.79812c0,-7.14297 -5.8189,-12.92703 -12.96187,-13.38l-65.50625,-4.04188l5.71438,-15.19188c-3.11852,2.68297 -7.14297,4.46 -11.15,4.46l-4.87813,13.38c-0.45297,1.34148 -0.47039,2.70039 0.41813,4.04188c0.88852,1.34148 2.28227,1.77703 3.62375,2.23l71.77813,4.46c2.68297,0 4.46,2.19516 4.46,4.87813c0,2.68297 -2.19515,4.87812 -4.87812,4.87812h-76.935c0.7143,-1.63765 1.115,-3.41469 1.115,-5.29625c0,-7.33461 -6.04539,-13.38 -13.38,-13.38h-44.6v8.92h44.6c2.47391,0 4.46,1.9861 4.46,4.46c0,2.47391 -1.98609,4.46 -4.46,4.46v0.83625h-49.06c-7.57852,0 -13.38,-5.80148 -13.38,-13.38c0,-7.57852 5.80148,-13.38 13.38,-13.38h45.01813c1.77703,0 3.15336,-0.88852 4.04188,-2.23l5.29625,-9.33813zM24.53,142.72c8.6761,0 15.61,6.93391 15.61,15.61c0,8.6761 -6.9339,15.61 -15.61,15.61c-8.67609,0 -15.61,-6.9339 -15.61,-15.61c0,-8.67609 6.93391,-15.61 15.61,-15.61zM13.38,187.32c-7.33461,0 -13.38,6.04539 -13.38,13.38v17.84h8.92v-17.84c0,-2.4739 1.9861,-4.46 4.46,-4.46h22.3c1.18469,0 2.64813,0.74914 3.62375,1.95125h0.13938l4.46,5.29625l1.25437,1.6725h168.9225v13.38h8.92v-13.38c0,-2.33453 -0.81883,-4.72133 -2.50875,-6.41125c-1.68992,-1.68992 -4.07672,-2.50875 -6.41125,-2.50875h-164.74125l-3.06625,-3.62375c-0.01742,-0.03484 -0.12195,0.03485 -0.13938,0c-2.59586,-3.20562 -6.32414,-5.29625 -10.45312,-5.29625z"></path></g></g><g fill="#000000"><g><g id="????_2" font-family="-apple-system, BlinkMacSystemFont, &quot;San Francisco&quot;, HelveticaNeue-Light, &quot;Helvetica Neue Light&quot;, &quot;Helvetica Neue&quot;, &quot;Segoe UI&quot;, &quot;Fira Sans&quot;, Roboto, Oxygen, Ubuntu, &quot;Droid Sans&quot;, Arial, sans-serif" font-weight="400" font-size="16" text-anchor="start" visibility="hidden"></g><g id="Android_x5F_4" font-family="-apple-system, BlinkMacSystemFont, &quot;San Francisco&quot;, HelveticaNeue-Light, &quot;Helvetica Neue Light&quot;, &quot;Helvetica Neue&quot;, &quot;Segoe UI&quot;, &quot;Fira Sans&quot;, Roboto, Oxygen, Ubuntu, &quot;Droid Sans&quot;, Arial, sans-serif" font-weight="400" font-size="16" text-anchor="start" visibility="hidden"></g><g id="Android_x5F_5" font-family="-apple-system, BlinkMacSystemFont, &quot;San Francisco&quot;, HelveticaNeue-Light, &quot;Helvetica Neue Light&quot;, &quot;Helvetica Neue&quot;, &quot;Segoe UI&quot;, &quot;Fira Sans&quot;, Roboto, Oxygen, Ubuntu, &quot;Droid Sans&quot;, Arial, sans-serif" font-weight="400" font-size="16" text-anchor="start" visibility="hidden"></g><g id="Windows_x5F_8" font-family="-apple-system, BlinkMacSystemFont, &quot;San Francisco&quot;, HelveticaNeue-Light, &quot;Helvetica Neue Light&quot;, &quot;Helvetica Neue&quot;, &quot;Segoe UI&quot;, &quot;Fira Sans&quot;, Roboto, Oxygen, Ubuntu, &quot;Droid Sans&quot;, Arial, sans-serif" font-weight="400" font-size="16" text-anchor="start" visibility="hidden"></g><g id="Windows_x5F_10" font-family="-apple-system, BlinkMacSystemFont, &quot;San Francisco&quot;, HelveticaNeue-Light, &quot;Helvetica Neue Light&quot;, &quot;Helvetica Neue&quot;, &quot;Segoe UI&quot;, &quot;Fira Sans&quot;, Roboto, Oxygen, Ubuntu, &quot;Droid Sans&quot;, Arial, sans-serif" font-weight="400" font-size="16" text-anchor="start" visibility="hidden"></g><g id="Color" font-family="-apple-system, BlinkMacSystemFont, &quot;San Francisco&quot;, HelveticaNeue-Light, &quot;Helvetica Neue Light&quot;, &quot;Helvetica Neue&quot;, &quot;Segoe UI&quot;, &quot;Fira Sans&quot;, Roboto, Oxygen, Ubuntu, &quot;Droid Sans&quot;, Arial, sans-serif" font-weight="400" font-size="16" text-anchor="start" visibility="hidden"></g><g id="IOS" font-family="-apple-system, BlinkMacSystemFont, &quot;San Francisco&quot;, HelveticaNeue-Light, &quot;Helvetica Neue Light&quot;, &quot;Helvetica Neue&quot;, &quot;Segoe UI&quot;, &quot;Fira Sans&quot;, Roboto, Oxygen, Ubuntu, &quot;Droid Sans&quot;, Arial, sans-serif" font-weight="400" font-size="16" text-anchor="start" visibility="hidden"></g><g id="IOS_copy"><path d="M80.82571,34.16286h-26.76v-26.76c0,-2.676 -1.784,-4.46 -4.46,-4.46h-17.84c-2.676,0 -4.46,1.784 -4.46,4.46v26.76h-26.76c-2.676,0 -4.46,1.784 -4.46,4.46v17.84c0,2.676 1.784,4.46 4.46,4.46h26.76v26.76c0,2.676 1.784,4.46 4.46,4.46h17.84c2.676,0 4.46,-1.784 4.46,-4.46v-26.76h26.76c2.676,0 4.46,-1.784 4.46,-4.46v-17.84c0,-2.676 -1.784,-4.46 -4.46,-4.46zM76.36571,52.00286h-26.76c-2.676,0 -4.46,1.784 -4.46,4.46v26.76h-8.92v-26.76c0,-2.676 -1.784,-4.46 -4.46,-4.46h-26.76v-8.92h26.76c2.676,0 4.46,-1.784 4.46,-4.46v-26.76h8.92v26.76c0,2.676 1.784,4.46 4.46,4.46h26.76z"></path></g></g><g opacity="0"><g id="IOS" font-family="-apple-system, BlinkMacSystemFont, &quot;San Francisco&quot;, HelveticaNeue-Light, &quot;Helvetica Neue Light&quot;, &quot;Helvetica Neue&quot;, &quot;Segoe UI&quot;, &quot;Fira Sans&quot;, Roboto, Oxygen, Ubuntu, &quot;Droid Sans&quot;, Arial, sans-serif" font-weight="400" font-size="16" text-anchor="start" visibility="hidden"></g><g id="IOS_copy"><path d="M80.82571,25.24286h-17.84v-17.84c0,-7.582 -5.798,-13.38 -13.38,-13.38h-17.84c-7.582,0 -13.38,5.798 -13.38,13.38v17.84h-17.84c-7.582,0 -13.38,5.798 -13.38,13.38v17.84c0,7.582 5.798,13.38 13.38,13.38h17.84v17.84c0,7.582 5.798,13.38 13.38,13.38h17.84c7.582,0 13.38,-5.798 13.38,-13.38v-17.84h17.84c7.582,0 13.38,-5.798 13.38,-13.38v-17.84c0,-7.582 -5.798,-13.38 -13.38,-13.38z"></path></g></g></g></g></g></svg>