<svg xmlns="http://www.w3.org/2000/svg" xmlns:xlink="http://www.w3.org/1999/xlink" viewBox="0 0 50 50" version="1.1">
<g id="surface1">
<path style=" " d="M 26 1 C 24.355469 1 23 2.355469 23 4 L 23 15 C 23 16.644531 24.355469 18 26 18 L 28.199219 18 C 28.269531 18.28125 28.320313 18.371094 28.382813 18.875 C 28.496094 19.773438 28.457031 20.851563 28.105469 21.550781 C 27.949219 21.863281 27.96875 22.230469 28.148438 22.527344 C 28.332031 22.820313 28.652344 23 29 23 C 31.054688 23 32.492188 21.433594 33.441406 20.074219 C 34.171875 19.03125 34.398438 18.425781 34.582031 18 L 43 18 C 44.644531 18 46 16.644531 46 15 L 46 4 C 46 2.355469 44.644531 1 43 1 Z M 26 3 L 43 3 C 43.566406 3 44 3.433594 44 4 L 44 15 C 44 15.566406 43.566406 16 43 16 L 34 16 C 33.589844 16 33.222656 16.25 33.074219 16.628906 C 33.074219 16.628906 32.605469 17.785156 31.808594 18.925781 C 31.398438 19.507813 30.917969 20.027344 30.421875 20.40625 C 30.46875 19.769531 30.433594 19.160156 30.367188 18.625 C 30.230469 17.523438 29.949219 16.683594 29.949219 16.683594 C 29.8125 16.273438 29.429688 16 29 16 L 26 16 C 25.433594 16 25 15.566406 25 15 L 25 4 C 25 3.433594 25.433594 3 26 3 Z M 21 4.992188 C 16.730469 4.992188 13.960938 6.910156 12.835938 9.808594 C 11.765625 12.5625 12.054688 16.03125 12.9375 19.691406 C 12.464844 20.183594 12 20.871094 11.996094 21.996094 C 11.988281 23.320313 12.441406 24.34375 13.042969 24.996094 C 13.386719 25.367188 13.757813 25.410156 14.121094 25.574219 C 14.191406 26.578125 14.363281 27.59375 14.726563 28.464844 C 15.054688 29.257813 15.511719 29.800781 15.996094 30.328125 C 15.996094 31.605469 16.003906 32.59375 15.996094 33.84375 C 15.605469 34.683594 14.800781 35.363281 13.578125 36.003906 C 12.308594 36.675781 10.675781 37.277344 9.039063 38.03125 C 7.398438 38.785156 5.730469 39.707031 4.40625 41.113281 C 3.082031 42.519531 2.144531 44.4375 1.996094 46.9375 L 1.933594 48.003906 L 42.066406 48.003906 L 42.003906 46.9375 C 41.855469 44.4375 40.917969 42.519531 39.589844 41.109375 C 38.261719 39.703125 36.59375 38.785156 34.949219 38.027344 C 33.304688 37.269531 31.675781 36.671875 30.40625 36 C 29.1875 35.359375 28.386719 34.679688 28.003906 33.847656 C 27.992188 32.503906 28.003906 31.511719 28.003906 30.25 C 28.488281 29.738281 28.953125 29.207031 29.269531 28.550781 C 29.691406 27.675781 30.003906 26.847656 30.003906 26 C 30.003906 25.445313 29.554688 24.996094 29 24.996094 C 28.445313 24.996094 27.996094 25.445313 27.996094 26 C 27.996094 26.152344 27.792969 26.976563 27.457031 27.679688 C 27.121094 28.382813 26.609375 29.042969 26.417969 29.183594 L 25.996094 29.484375 L 25.996094 30 C 25.996094 31.476563 25.972656 32.496094 25.996094 34.140625 L 26 34.328125 L 26.066406 34.5 C 26.691406 36.042969 28.015625 37.015625 29.46875 37.78125 C 30.917969 38.542969 32.566406 39.144531 34.109375 39.855469 C 35.652344 40.5625 37.082031 41.382813 38.125 42.488281 C 38.960938 43.375 39.480469 44.542969 39.757813 45.996094 L 4.242188 45.996094 C 4.515625 44.542969 5.039063 43.375 5.867188 42.488281 C 6.910156 41.382813 8.335938 40.566406 9.875 39.859375 C 11.417969 39.148438 13.0625 38.550781 14.515625 37.785156 C 15.972656 37.019531 17.296875 36.046875 17.929688 34.503906 L 18 34.328125 L 18.003906 34.136719 C 18.023438 32.632813 18.003906 31.605469 18.003906 30.125 L 18.003906 29.617188 L 17.59375 29.316406 C 17.46875 29.222656 16.933594 28.535156 16.582031 27.691406 C 16.234375 26.851563 15.988281 25.835938 16.003906 25.015625 L 16.019531 24.078125 L 15.082031 24 C 15.152344 24.003906 14.777344 23.914063 14.519531 23.632813 C 14.261719 23.351563 14 22.898438 14.003906 22.003906 C 14.011719 21.15625 14.398438 20.933594 14.527344 20.855469 L 15.15625 20.46875 L 14.972656 19.75 C 14.027344 16.085938 13.847656 12.75 14.707031 10.535156 C 15.570313 8.320313 17.269531 7.007813 21 7.007813 C 21.554688 7.007813 22.007813 6.554688 22.007813 6 C 22.007813 5.445313 21.554688 4.992188 21 4.992188 Z M 29 6 L 29 8 L 36 8 L 36 6 Z M 38 6 L 38 8 L 41 8 L 41 6 Z M 29 11 L 29 13 L 32 13 L 32 11 Z M 34 11 L 34 13 L 41 13 L 41 11 Z "></path>
</g>
</svg>