<svg version="1.1" xmlns="http://www.w3.org/2000/svg" xmlns:xlink="http://www.w3.org/1999/xlink" viewBox="0 0 223 223"><g fill="none" fill-rule="nonzero" stroke="none" stroke-width="1" stroke-linecap="butt" stroke-linejoin="miter" stroke-miterlimit="10" stroke-dasharray="" stroke-dashoffset="0" font-family="none" font-weight="none" font-size="none" text-anchor="none" style="mix-blend-mode: normal"><path d="M0,223.99147v-223.99147h223.99147v223.99147z" fill="none"></path><g id="original-icon" fill="#000000" opacity="0" visibility="hidden"><g id="surface1"><path d="M35.68,0c-3.53664,0 -6.63773,2.02094 -8.08375,5.0175c-1.84672,0.4007 -4.32062,1.02789 -6.82938,1.95125c-2.50875,0.92336 -5.08719,2.14289 -7.38687,4.04187c-2.29969,1.89898 -4.46,4.82586 -4.46,8.50188c0,1.60281 0.26133,3.44953 0.69688,6.41125c0.43555,2.96172 1.06273,6.88164 1.95125,11.28938c1.75961,8.81547 4.47742,20.03516 8.08375,31.63812c7.10812,22.89235 17.26508,47.43977 34.0075,57.56188c-0.01742,0.36586 -0.13938,0.73172 -0.13938,1.115c0,5.3311 1.58539,11.69008 4.32063,17.2825c1.35891,2.7875 3.03141,5.27883 5.15687,7.38688c1.13242,1.13242 2.52617,2.21258 4.04187,2.92687c0.1568,11.60297 1.2718,26.30703 9.4775,39.025c9.00711,13.97235 26.58578,24.39063 57.28313,24.39063c27.94469,0 44.30383,-11.5507 52.82312,-24.66937c7.0036,-10.78414 8.98969,-22.02125 9.4775,-29.12937c15.15703,-2.10805 26.89937,-15.2093 26.89937,-30.94125c0,-17.17797 -14.04203,-31.22 -31.22,-31.22c-17.19539,0 -31.22,14.04203 -31.22,31.22c0,15.57516 11.53328,28.50219 26.48125,30.80187c-0.54008,6.08023 -2.33453,15.73195 -7.94437,24.39063c-7.0907,10.92352 -19.72156,20.6275 -45.29687,20.6275c-28.76352,0 -42.42227,-8.98969 -49.75688,-20.34875c-6.67258,-10.33117 -7.89211,-23.29305 -8.08375,-34.28625c1.39375,-0.7143 2.70039,-1.74219 3.76313,-2.7875c2.10805,-2.10805 3.79797,-4.59937 5.15687,-7.38688c2.73523,-5.59242 4.32063,-11.9514 4.32063,-17.2825c0,-0.38328 -0.12195,-0.74914 -0.13938,-1.115c16.74242,-10.12211 26.89937,-34.66953 34.0075,-57.56187c3.60633,-11.60297 6.32414,-22.82265 8.08375,-31.63812c0.88852,-4.40773 1.5157,-8.32765 1.95125,-11.28937c0.43555,-2.96172 0.69688,-4.80844 0.69688,-6.41125c0,-3.67602 -2.16031,-6.60289 -4.46,-8.50187c-2.29969,-1.89898 -4.87813,-3.11852 -7.38688,-4.04187c-2.50875,-0.92336 -4.98265,-1.55055 -6.82937,-1.95125c-0.08711,-0.01742 -0.05227,0.01742 -0.13938,0c-1.44602,-2.96172 -4.42515,-5.0175 -7.94438,-5.0175c-4.93039,0 -8.92,3.98961 -8.92,8.92c0,4.93039 3.98961,8.92 8.92,8.92c3.01398,0 5.62727,-1.48086 7.2475,-3.76313c1.37633,0.3136 2.97914,0.66203 4.59938,1.25438c1.95125,0.7143 3.83281,1.63766 4.87812,2.50875c1.04531,0.8711 1.115,1.21953 1.115,1.6725c0,0.17422 -0.13938,2.36938 -0.5575,5.15687c-0.41813,2.7875 -1.09758,6.4461 -1.95125,10.73187c-1.70734,8.55414 -4.32063,19.58219 -7.805,30.80188c-6.74227,21.70766 -17.4393,44.0425 -29.40812,51.98688c-1.02789,-0.76656 -2.12547,-1.37633 -3.20562,-1.6725c-3.88508,-1.08015 -7.23008,-0.41813 -10.5925,-0.41813c-3.36242,0 -6.70742,-0.64461 -10.5925,0.41813c-1.08015,0.29617 -2.17773,0.90594 -3.20562,1.6725c-11.96883,-7.94437 -22.66586,-30.27922 -29.40812,-51.98687c-3.48437,-11.21969 -6.09765,-22.24773 -7.805,-30.80188c-0.85367,-4.28578 -1.53312,-7.94437 -1.95125,-10.73187c-0.41812,-2.7875 -0.5575,-4.98265 -0.5575,-5.15687c0,-0.45297 0.06969,-0.8014 1.115,-1.6725c1.04531,-0.87109 2.92688,-1.79445 4.87813,-2.50875c1.62023,-0.59234 3.22305,-0.94078 4.59938,-1.25438c1.62023,2.28227 4.23352,3.76313 7.2475,3.76313c4.93039,0 8.92,-3.98961 8.92,-8.92c0,-4.93039 -3.98961,-8.92 -8.92,-8.92zM191.78,111.5c12.35211,0 22.3,9.94789 22.3,22.3c0,12.21273 -9.7214,22.07352 -21.88187,22.3c-0.13938,0 -0.27875,0 -0.41813,0c-12.36953,0 -22.3,-9.94789 -22.3,-22.3c0,-12.35211 9.93047,-22.3 22.3,-22.3zM191.78,120.42c-7.33461,0 -13.38,6.04539 -13.38,13.38c0,7.33461 6.04539,13.38 13.38,13.38c7.33461,0 13.38,-6.04539 13.38,-13.38c0,-7.33461 -6.04539,-13.38 -13.38,-13.38zM66.06375,125.01938c1.4286,0 3.29273,0 5.29625,0c4.02445,0 7.26492,-0.12195 8.22312,0.13938c0.48781,0.13938 0.38328,-0.05227 0.41813,0c0.03485,0.05227 0.27875,0.73172 0.27875,2.36938c0,3.25789 -1.37633,9.05938 -3.48437,13.38c-1.06273,2.16031 -2.26484,3.93735 -3.345,5.0175c-0.85367,0.85367 -1.44602,1.02789 -1.81188,1.115c-0.19164,-0.01742 -0.36586,-0.01742 -0.5575,0c-0.36586,-0.08711 -0.9582,-0.26133 -1.81188,-1.115c-1.08015,-1.08015 -2.28227,-2.85719 -3.345,-5.0175c-2.10805,-4.32063 -3.48437,-10.12211 -3.48437,-13.38c0,-1.63765 0.24391,-2.31711 0.27875,-2.36938c0.03485,-0.05227 -0.06969,0.13938 0.41812,0c0.48781,-0.13938 1.49828,-0.13938 2.92688,-0.13938zM191.78,129.34c2.52617,0 4.46,1.93383 4.46,4.46c0,2.52617 -1.93383,4.46 -4.46,4.46c-2.52617,0 -4.46,-1.93383 -4.46,-4.46c0,-2.52617 1.93383,-4.46 4.46,-4.46z"></path></g></g><g id="subtracted-icon" fill="#000000"><g id="surface1 1"><path d="M44.6,8.92c0,4.93039 -3.98961,8.92 -8.92,8.92c-3.01398,0 -5.62727,-1.48086 -7.2475,-3.76313c-1.37633,0.3136 -2.97914,0.66203 -4.59938,1.25438c-1.95125,0.7143 -3.83281,1.63766 -4.87813,2.50875c-1.04531,0.8711 -1.115,1.21953 -1.115,1.6725c0,0.17422 0.13938,2.36938 0.5575,5.15687c0.41812,2.7875 1.09758,6.4461 1.95125,10.73187c1.70735,8.55414 4.32063,19.58219 7.805,30.80188c6.74227,21.70766 17.4393,44.0425 29.40813,51.98688c1.02789,-0.76656 2.12547,-1.37633 3.20562,-1.6725c3.88508,-1.06273 7.23008,-0.41813 10.5925,-0.41813c3.36242,0 6.70742,-0.66203 10.5925,0.41813c1.08016,0.29617 2.17773,0.90594 3.20562,1.6725c11.96883,-7.94437 22.66586,-30.27922 29.40813,-51.98687c3.48438,-11.21969 6.09766,-22.24773 7.805,-30.80188c0.85367,-4.28578 1.53312,-7.94437 1.95125,-10.73187c0.41812,-2.7875 0.5575,-4.98265 0.5575,-5.15687c0,-0.45297 -0.06969,-0.8014 -1.115,-1.6725c-1.04531,-0.87109 -2.92687,-1.79445 -4.87812,-2.50875c-1.62023,-0.59234 -3.22305,-0.94078 -4.59938,-1.25438c-1.62023,2.28227 -4.23352,3.76313 -7.2475,3.76313c-4.93039,0 -8.92,-3.98961 -8.92,-8.92c0,-4.93039 3.98961,-8.92 8.92,-8.92c3.51922,0 6.49836,2.05578 7.94438,5.0175c0.08711,0.01742 0.05227,-0.01742 0.13938,0c1.84672,0.4007 4.32062,1.02789 6.82937,1.95125c2.50875,0.92336 5.08719,2.14289 7.38688,4.04187c2.29969,1.89898 4.46,4.82586 4.46,8.50188c0,1.60281 -0.26133,3.44953 -0.69688,6.41125c-0.28727,1.95345 -0.65791,4.32373 -1.13191,6.97589c-1.74255,4.72697 -2.83431,9.76197 -3.16517,14.99487c-1.54879,6.49732 -3.46723,13.65105 -5.73792,20.95673c-7.10813,22.89235 -17.26508,47.43977 -34.0075,57.56188c0.01742,0.36586 0.13938,0.73172 0.13938,1.115c0,5.3311 -1.58539,11.69008 -4.32063,17.2825c-1.3589,2.7875 -3.04883,5.27883 -5.15687,7.38688c-1.06273,1.04531 -2.36937,2.0732 -3.76313,2.7875c0.19164,10.9932 1.41117,23.95508 8.08375,34.28625c7.33461,11.35906 20.99336,20.34875 49.75688,20.34875c25.57531,0 38.20617,-9.70398 45.29688,-20.6275c5.60985,-8.65867 7.4043,-18.31039 7.94437,-24.39062c-14.94797,-2.29969 -26.48125,-15.22672 -26.48125,-30.80187c0,-13.13822 8.2039,-24.44203 19.75571,-29.03206c0.63188,0.02237 1.26646,0.03365 1.90354,0.03365c4.86979,0 9.5931,-0.65916 14.08511,-1.89267c15.0522,2.20698 26.69563,15.24889 26.69563,30.89107c0,15.73195 -11.74234,28.8332 -26.89937,30.94125c-0.48781,7.10813 -2.4739,18.34523 -9.4775,29.12937c-8.5193,13.11867 -24.87844,24.66938 -52.82312,24.66938c-30.69734,0 -48.27602,-10.41828 -57.28313,-24.39062c-8.2057,-12.71797 -9.3207,-27.42203 -9.4775,-39.025c-1.5157,-0.7143 -2.90945,-1.79445 -4.04187,-2.92687c-2.12547,-2.10805 -3.79797,-4.59937 -5.15687,-7.38688c-2.73523,-5.59242 -4.32063,-11.9514 -4.32063,-17.2825c0,-0.38328 0.12195,-0.74914 0.13938,-1.115c-16.74242,-10.12211 -26.89937,-34.66953 -34.0075,-57.56187c-3.60633,-11.60297 -6.32414,-22.82265 -8.08375,-31.63812c-0.88852,-4.40773 -1.5157,-8.32765 -1.95125,-11.28937c-0.43555,-2.96172 -0.69688,-4.80844 -0.69688,-6.41125c0,-3.67602 2.16031,-6.60289 4.46,-8.50187c2.29969,-1.89898 4.87813,-3.11852 7.38688,-4.04187c2.50875,-0.92336 4.98266,-1.55055 6.82938,-1.95125c1.44602,-2.99656 4.54711,-5.0175 8.08375,-5.0175c4.93039,0 8.92,3.98961 8.92,8.92zM169.48,133.8c0,12.35211 9.93047,22.3 22.3,22.3c0.13938,0 0.27875,0 0.41813,0c12.16047,-0.22648 21.88187,-10.08727 21.88187,-22.3c0,-12.35211 -9.94789,-22.3 -22.3,-22.3c-12.36953,0 -22.3,9.94789 -22.3,22.3zM205.16,133.8c0,7.33461 -6.04539,13.38 -13.38,13.38c-7.33461,0 -13.38,-6.04539 -13.38,-13.38c0,-7.33461 6.04539,-13.38 13.38,-13.38c7.33461,0 13.38,6.04539 13.38,13.38zM63.13688,125.15875c-0.48781,0.13938 -0.38328,-0.05227 -0.41812,0c-0.03484,0.05227 -0.27875,0.73172 -0.27875,2.36938c0,3.25789 1.37633,9.05938 3.48438,13.38c1.06273,2.16031 2.26485,3.93735 3.345,5.0175c0.85367,0.85367 1.44602,1.02789 1.81188,1.115c0.19164,-0.01742 0.36586,-0.01742 0.5575,0c0.36586,-0.08711 0.9582,-0.26133 1.81188,-1.115c1.08016,-1.08015 2.28227,-2.85719 3.345,-5.0175c2.10805,-4.32063 3.48438,-10.12211 3.48438,-13.38c0,-1.63765 -0.2439,-2.31711 -0.27875,-2.36938c-0.03484,-0.05227 0.06969,0.13938 -0.41813,0c-0.9582,-0.26133 -4.19867,-0.13938 -8.22312,-0.13938c-2.00352,0 -3.86765,0 -5.29625,0c-1.42859,0 -2.43906,0 -2.92688,0.13938zM187.32,133.8c0,2.52617 1.93383,4.46 4.46,4.46c2.52617,0 4.46,-1.93383 4.46,-4.46c0,-2.52617 -1.93383,-4.46 -4.46,-4.46c-2.52617,0 -4.46,1.93383 -4.46,4.46z"></path></g></g><g fill="#000000"><g id="Layer_9"><path d="M150.17732,10.56319c-4.906,0.446 -8.474,4.906 -8.028,9.812c0,2.23 1.338,4.014 2.676,5.798l24.976,24.976l-24.976,24.976c-4.014,3.122 -4.46,8.92 -1.338,12.488c3.122,3.568 8.92,4.46 12.488,1.338c0.446,-0.446 0.892,-0.892 1.338,-1.338l24.976,-24.976l24.976,24.976c3.122,4.014 8.92,4.46 12.488,1.338c3.568,-3.122 4.46,-8.92 1.338,-12.488c-0.446,-0.446 -0.892,-0.892 -1.338,-1.338l-24.976,-25.422l24.976,-24.976c3.568,-3.568 3.568,-8.92 0,-12.488c-1.338,-1.784 -4.014,-2.676 -6.244,-2.676c-2.23,0 -4.46,0.892 -6.244,2.676l-24.976,24.976l-24.976,-24.976c-1.784,-1.784 -4.014,-2.676 -6.244,-2.676c-0.446,0 -0.892,0 -0.892,0z"></path></g><g opacity="0"><g id="IOS" font-family="-apple-system, BlinkMacSystemFont, &quot;San Francisco&quot;, HelveticaNeue-Light, &quot;Helvetica Neue Light&quot;, &quot;Helvetica Neue&quot;, &quot;Segoe UI&quot;, &quot;Fira Sans&quot;, Roboto, Oxygen, Ubuntu, &quot;Droid Sans&quot;, Arial, sans-serif" font-weight="400" font-size="16" text-anchor="start" visibility="hidden"></g><g id="IOS_copy"><path d="M182.21925,-2.23841c-29.436,0 -53.52,24.084 -53.52,53.52c0,29.436 24.084,53.52 53.52,53.52c29.436,0 53.52,-24.084 53.52,-53.52c0,-29.436 -24.084,-53.52 -53.52,-53.52z"></path></g></g></g></g></svg>