<svg xmlns="http://www.w3.org/2000/svg" viewBox="0 0 50 50">
  <path style="line-height:normal;text-indent:0;text-align:start;text-decoration-line:none;text-decoration-style:solid;text-decoration-color:#000;text-transform:none;block-progression:tb;isolation:auto;mix-blend-mode:normal" d="M 20 0 C 18.757813 0 17.671875 0.738281 16.9375 1.75 C 16.410156 2.472656 16.101563 3.382813 15.90625 4.375 C 15.789063 4.144531 15.808594 3.828125 15.65625 3.625 C 15.089844 2.859375 14.195313 2.3125 13.1875 2.3125 C 12.171875 2.3125 11.332031 2.914063 10.8125 3.71875 C 10.449219 4.28125 10.402344 5.050781 10.3125 5.78125 C 9.796875 5.222656 9.046875 4.8125 8.21875 4.9375 L 8.21875 4.90625 C 8.183594 4.910156 8.160156 4.933594 8.125 4.9375 C 8.113281 4.9375 8.105469 4.9375 8.09375 4.9375 C 7.230469 5.066406 6.515625 5.660156 6.15625 6.375 C 5.835938 7.015625 5.828125 7.789063 5.875 8.5625 C 5.460938 8.3125 4.988281 8.152344 4.46875 8.21875 L 4.34375 8.21875 C 3.609375 8.402344 3.082031 8.957031 2.78125 9.59375 C 2.480469 10.230469 2.371094 10.972656 2.5 11.75 L 2.5 11.78125 L 2.53125 11.78125 C 2.570313 12.003906 2.738281 12.140625 2.8125 12.34375 C 2.488281 12.207031 2.230469 11.9375 1.84375 12 C 1.105469 12.105469 0.578125 12.644531 0.3125 13.21875 C 0.0625 13.757813 0.0117188 14.386719 0.125 15 L 0.09375 15 C 0.0976563 15.035156 0.121094 15.058594 0.125 15.09375 C 0.128906 15.109375 0.152344 15.109375 0.15625 15.125 C 0.253906 15.738281 0.484375 16.308594 0.875 16.71875 C 1.011719 16.859375 1.203125 16.953125 1.375 17.0625 C 0.550781 18.714844 0 20.621094 0 22.8125 C 0 27.675781 1.636719 30.773438 3.46875 33.5625 C 5.300781 36.351563 7.289063 38.855469 8.4375 42.96875 C 8.917969 44.683594 9.75 46.492188 11.0625 47.875 C 12.375 49.257813 14.265625 50.195313 16.53125 49.90625 C 19.515625 49.53125 21.496094 48.375 22.59375 46.75 C 23.691406 45.125 23.847656 43.183594 23.6875 41.3125 C 23.367188 37.839844 21.882813 36.296875 20.65625 35.09375 C 19.429688 33.890625 18.425781 32.960938 18 29.5625 C 17.851563 28.382813 18.0625 27.59375 18.5 26.78125 C 18.9375 25.96875 19.621094 25.148438 20.40625 24.1875 C 21.972656 22.261719 23.8125 19.644531 23.8125 15.09375 C 23.8125 13.566406 23.304688 12.285156 22.53125 11.34375 C 22.300781 11.0625 22.019531 10.882813 21.75 10.65625 C 22.132813 10.375 22.535156 10.082031 22.8125 9.6875 C 23.539063 8.652344 23.945313 7.3125 24 5.84375 L 24 5.8125 C 24.050781 4.335938 23.699219 2.972656 23.03125 1.90625 C 22.355469 0.832031 21.28125 0 20 0 Z M 30 0 C 28.71875 0 27.644531 0.832031 26.96875 1.90625 C 26.292969 2.980469 25.941406 4.355469 26 5.84375 C 26.054688 7.3125 26.460938 8.652344 27.1875 9.6875 C 27.507813 10.144531 27.949219 10.511719 28.40625 10.8125 C 28.136719 11.039063 27.792969 11.128906 27.5625 11.40625 C 26.789063 12.34375 26.3125 13.589844 26.3125 15.09375 C 26.3125 15.957031 26.363281 16.734375 26.4375 17.4375 L 26.34375 17.53125 C 26.117188 17.726563 25.992188 18.015625 26 18.3125 L 26 33 C 26 33.550781 26.449219 34 27 34 L 30.40625 34 C 29.902344 34.609375 29.332031 35.128906 28.71875 35.78125 C 27.671875 36.894531 26.671875 38.488281 26.40625 41.3125 C 26.246094 43.175781 26.382813 45.121094 27.46875 46.75 C 28.554688 48.378906 30.53125 49.535156 33.5625 49.90625 C 35.789063 50.199219 37.675781 49.253906 39 47.875 C 40.324219 46.496094 41.171875 44.691406 41.65625 42.96875 C 42.753906 38.910156 44.742188 36.394531 46.5625 33.59375 C 48.382813 30.792969 50 27.675781 50 22.8125 C 50 20.609375 49.441406 18.714844 48.625 17.0625 C 48.816406 16.949219 49.015625 16.84375 49.15625 16.6875 C 49.574219 16.226563 49.835938 15.640625 49.90625 15 C 49.972656 14.34375 49.886719 13.730469 49.625 13.1875 C 49.363281 12.644531 48.847656 12.113281 48.15625 12 C 47.886719 11.960938 47.621094 12.054688 47.375 12.125 C 47.398438 12.027344 47.484375 11.972656 47.5 11.875 C 47.628906 11.09375 47.546875 10.308594 47.25 9.65625 C 46.96875 9.042969 46.402344 8.527344 45.65625 8.375 L 45.65625 8.34375 C 45.636719 8.339844 45.613281 8.347656 45.59375 8.34375 C 45.570313 8.339844 45.554688 8.316406 45.53125 8.3125 L 45.53125 8.34375 C 45.0625 8.261719 44.617188 8.359375 44.21875 8.5625 C 44.257813 7.777344 44.21875 6.996094 43.90625 6.375 C 43.542969 5.644531 42.894531 5.003906 42 4.90625 C 41.105469 4.816406 40.296875 5.257813 39.75 5.875 C 39.734375 5.890625 39.734375 5.921875 39.71875 5.9375 C 39.648438 5.144531 39.578125 4.324219 39.1875 3.71875 C 38.667969 2.914063 37.828125 2.3125 36.8125 2.3125 C 35.824219 2.3125 34.980469 2.871094 34.40625 3.625 C 34.242188 3.84375 34.253906 4.183594 34.125 4.4375 C 33.945313 3.425781 33.625 2.496094 33.09375 1.75 C 32.367188 0.730469 31.269531 0 30 0 Z M 20 2 C 20.417969 2 20.917969 2.292969 21.34375 2.96875 C 21.769531 3.644531 22.042969 4.640625 22 5.75 C 21.957031 6.882813 21.605469 7.890625 21.15625 8.53125 C 20.707031 9.171875 20.25 9.433594 19.75 9.40625 C 19.292969 9.378906 18.800781 9.070313 18.375 8.40625 C 17.949219 7.742188 17.644531 6.734375 17.6875 5.625 C 17.730469 4.507813 18.097656 3.542969 18.5625 2.90625 C 19.027344 2.269531 19.542969 2 20 2 Z M 30 2 C 30.53125 2 31.019531 2.273438 31.46875 2.90625 C 31.917969 3.539063 32.269531 4.496094 32.3125 5.625 C 32.355469 6.734375 32.050781 7.761719 31.625 8.4375 C 31.199219 9.113281 30.730469 9.40625 30.3125 9.40625 L 30.25 9.40625 C 29.75 9.433594 29.292969 9.171875 28.84375 8.53125 C 28.394531 7.890625 28.042969 6.882813 28 5.75 C 27.957031 4.640625 28.230469 3.644531 28.65625 2.96875 C 29.082031 2.292969 29.582031 2 30 2 Z M 13.1875 4.3125 C 13.480469 4.3125 13.746094 4.429688 14.03125 4.8125 C 14.316406 5.195313 14.554688 5.832031 14.59375 6.5625 C 14.632813 7.261719 14.445313 7.882813 14.1875 8.28125 C 13.929688 8.679688 13.683594 8.8125 13.5 8.8125 C 13.207031 8.8125 12.941406 8.664063 12.65625 8.28125 C 12.382813 7.910156 12.144531 7.292969 12.09375 6.59375 L 12.09375 6.53125 C 12.054688 5.832031 12.242188 5.210938 12.5 4.8125 C 12.757813 4.414063 13.003906 4.3125 13.1875 4.3125 Z M 36.8125 4.3125 C 36.996094 4.3125 37.242188 4.414063 37.5 4.8125 C 37.757813 5.210938 37.945313 5.832031 37.90625 6.53125 C 37.867188 7.242188 37.613281 7.886719 37.3125 8.28125 C 37.011719 8.675781 36.710938 8.8125 36.5 8.8125 C 36.316406 8.8125 36.070313 8.679688 35.8125 8.28125 C 35.554688 7.882813 35.367188 7.261719 35.40625 6.5625 L 35.40625 6.5 C 35.457031 5.816406 35.679688 5.226563 35.96875 4.84375 C 36.269531 4.449219 36.601563 4.3125 36.8125 4.3125 Z M 8.46875 6.875 L 8.53125 6.875 C 8.527344 6.875 8.644531 6.863281 8.875 7.125 C 9.105469 7.386719 9.332031 7.871094 9.40625 8.4375 C 9.480469 9 9.378906 9.492188 9.21875 9.8125 C 9.058594 10.132813 8.878906 10.21875 8.875 10.21875 L 8.8125 10.21875 C 8.722656 10.238281 8.578125 10.226563 8.34375 9.96875 C 8.109375 9.710938 7.855469 9.222656 7.78125 8.65625 C 7.703125 8.074219 7.820313 7.578125 7.96875 7.28125 C 8.117188 6.984375 8.199219 6.921875 8.375 6.90625 Z M 41.78125 6.90625 C 41.785156 6.90625 41.964844 6.960938 42.125 7.28125 C 42.285156 7.601563 42.386719 8.09375 42.3125 8.65625 C 42.242188 9.160156 41.996094 9.605469 41.75 9.875 C 41.503906 10.144531 41.292969 10.230469 41.1875 10.21875 C 41.089844 10.210938 40.949219 10.128906 40.8125 9.84375 C 40.675781 9.558594 40.636719 9.101563 40.78125 8.5625 L 40.78125 8.46875 L 40.8125 8.375 C 40.847656 7.894531 41.019531 7.445313 41.25 7.1875 C 41.46875 6.941406 41.671875 6.902344 41.78125 6.90625 Z M 16.15625 8.25 C 16.214844 8.410156 16.273438 8.566406 16.34375 8.71875 C 16.222656 8.710938 16.148438 8.722656 16.03125 8.71875 C 16.09375 8.574219 16.105469 8.402344 16.15625 8.25 Z M 33.84375 8.25 C 33.894531 8.402344 33.90625 8.574219 33.96875 8.71875 C 33.851563 8.726563 33.777344 8.707031 33.65625 8.71875 C 33.722656 8.566406 33.785156 8.410156 33.84375 8.25 Z M 4.78125 10.21875 C 4.828125 10.222656 4.902344 10.214844 5.03125 10.34375 C 5.1875 10.5 5.335938 10.808594 5.40625 11.15625 C 5.410156 11.167969 5.402344 11.175781 5.40625 11.1875 C 5.464844 11.589844 5.410156 11.972656 5.3125 12.1875 C 5.210938 12.410156 5.164063 12.410156 5.1875 12.40625 C 5.152344 12.410156 5.035156 12.410156 4.875 12.25 C 4.71875 12.09375 4.570313 11.777344 4.5 11.4375 C 4.429688 11.015625 4.496094 10.648438 4.59375 10.4375 C 4.667969 10.277344 4.71875 10.25 4.78125 10.21875 Z M 45.09375 10.28125 C 45.121094 10.273438 45.144531 10.277344 45.15625 10.28125 L 45.28125 10.28125 C 45.257813 10.277344 45.304688 10.277344 45.40625 10.5 C 45.507813 10.722656 45.570313 11.113281 45.5 11.53125 C 45.429688 11.953125 45.269531 12.261719 45.125 12.40625 C 45.007813 12.523438 44.988281 12.503906 44.96875 12.5 C 44.898438 12.445313 44.851563 12.367188 44.78125 12.3125 C 44.746094 12.285156 44.722656 12.246094 44.6875 12.21875 C 44.578125 11.984375 44.53125 11.628906 44.59375 11.28125 L 44.59375 11.25 C 44.664063 10.828125 44.824219 10.519531 44.96875 10.375 C 45.039063 10.304688 45.066406 10.289063 45.09375 10.28125 Z M 15.28125 10.65625 C 16.308594 10.664063 17.746094 10.8125 18.96875 11.28125 C 19.785156 11.59375 20.507813 12.027344 21 12.625 C 21.492188 13.222656 21.8125 13.96875 21.8125 15.09375 C 21.8125 19.140625 20.382813 21.085938 18.875 22.9375 C 18.121094 23.863281 17.304688 24.75 16.71875 25.84375 C 16.132813 26.9375 15.800781 28.242188 16 29.8125 C 16.476563 33.613281 18.003906 35.308594 19.25 36.53125 C 20.496094 37.753906 21.4375 38.472656 21.71875 41.5 C 21.859375 43.128906 21.664063 44.546875 20.9375 45.625 C 20.210938 46.703125 18.898438 47.578125 16.28125 47.90625 C 14.648438 48.117188 13.488281 47.542969 12.5 46.5 C 11.511719 45.457031 10.792969 43.925781 10.375 42.4375 C 9.121094 37.949219 6.890625 35.15625 5.125 32.46875 C 3.359375 29.78125 2 27.246094 2 22.8125 C 2 18.707031 3.933594 15.867188 6.46875 13.90625 C 6.507813 13.875 6.550781 13.84375 6.59375 13.8125 C 9.1875 11.851563 12.390625 10.867188 14.375 10.6875 L 14.40625 10.6875 C 14.632813 10.664063 14.9375 10.652344 15.28125 10.65625 Z M 34.84375 10.65625 C 35.1875 10.652344 35.496094 10.667969 35.71875 10.6875 C 37.640625 10.867188 40.773438 11.832031 43.34375 13.75 C 43.453125 13.875 43.582031 13.960938 43.71875 14.0625 C 46.136719 16.003906 48 18.769531 48 22.8125 C 48 27.246094 46.628906 29.800781 44.875 32.5 C 43.121094 35.199219 40.953125 37.996094 39.75 42.4375 C 39.335938 43.914063 38.566406 45.453125 37.5625 46.5 C 36.558594 47.546875 35.417969 48.113281 33.84375 47.90625 L 33.8125 47.90625 C 31.144531 47.578125 29.839844 46.726563 29.125 45.65625 C 28.410156 44.585938 28.265625 43.136719 28.40625 41.5 C 28.640625 39.027344 29.277344 38.09375 30.15625 37.15625 C 30.925781 36.335938 32.015625 35.507813 32.875 34 L 38 34 C 38.550781 34 39 33.550781 39 33 L 39 18.3125 C 39.007813 18.015625 38.882813 17.726563 38.65625 17.53125 L 33.15625 12.75 C 32.953125 12.566406 32.679688 12.476563 32.40625 12.5 C 32.195313 12.523438 32 12.609375 31.84375 12.75 L 28.34375 15.78125 C 28.332031 15.550781 28.3125 15.332031 28.3125 15.09375 C 28.3125 14 28.601563 13.25 29.09375 12.65625 C 29.585938 12.0625 30.304688 11.632813 31.125 11.3125 C 32.351563 10.835938 33.808594 10.671875 34.84375 10.65625 Z M 2.125 14.0625 C 2.179688 14.105469 2.367188 14.195313 2.40625 14.59375 C 2.4375 14.90625 2.371094 15.136719 2.3125 15.28125 C 2.21875 15.164063 2.117188 14.980469 2.09375 14.78125 L 2.09375 14.75 L 2.0625 14.6875 C 2.007813 14.445313 2.066406 14.1875 2.125 14.0625 Z M 47.8125 14.0625 C 47.871094 14.195313 47.929688 14.46875 47.90625 14.78125 C 47.90625 14.792969 47.90625 14.800781 47.90625 14.8125 C 47.871094 15.054688 47.765625 15.257813 47.6875 15.34375 C 47.625 15.214844 47.570313 14.949219 47.59375 14.625 C 47.59375 14.609375 47.59375 14.609375 47.59375 14.59375 C 47.628906 14.351563 47.734375 14.148438 47.8125 14.0625 Z M 32.5 14.8125 L 37 18.75 L 37 32 L 28 32 L 28 18.75 Z M 32.5 18 C 31.671875 18 31 18.671875 31 19.5 C 31 20.328125 31.671875 21 32.5 21 C 33.328125 21 34 20.328125 34 19.5 C 34 18.671875 33.328125 18 32.5 18 Z "></path>
</svg>