<svg xmlns="http://www.w3.org/2000/svg" xmlns:xlink="http://www.w3.org/1999/xlink" viewBox="0 0 50 50" version="1.1">
<g id="surface1">
<path style=" " d="M 35.34375 0.1875 C 35.300781 0.195313 35.257813 0.207031 35.21875 0.21875 L 19.21875 3.125 C 18.785156 3.207031 18.453125 3.5625 18.40625 4 L 17.4375 12.625 L 10.03125 10.9375 C 9.898438 10.898438 9.761719 10.890625 9.625 10.90625 C 9.527344 10.921875 9.433594 10.953125 9.34375 11 L 0.53125 15.5 C 0.152344 15.695313 -0.0625 16.109375 0 16.53125 L 2.59375 38.6875 L 0.84375 39 C 0.351563 39.078125 -0.0078125 39.503906 0 40 L 0 49 C 0 49.550781 0.449219 50 1 50 L 18.625 50 C 18.839844 50.0625 19.070313 50.054688 19.28125 49.96875 C 19.324219 49.960938 19.367188 49.949219 19.40625 49.9375 C 19.429688 49.917969 19.449219 49.898438 19.46875 49.875 C 19.480469 49.875 19.488281 49.875 19.5 49.875 C 19.519531 49.867188 19.542969 49.855469 19.5625 49.84375 C 19.597656 49.816406 19.628906 49.785156 19.65625 49.75 L 19.71875 49.71875 C 19.765625 49.671875 19.808594 49.617188 19.84375 49.5625 L 27.65625 42.75 C 27.894531 42.546875 28.023438 42.242188 28.007813 41.929688 C 27.988281 41.617188 27.824219 41.332031 27.5625 41.15625 L 25.71875 39.90625 L 29.625 36.78125 C 29.863281 36.589844 30 36.304688 30 36 L 30 33.1875 L 31.375 30.09375 L 31 33.90625 C 30.960938 34.367188 31.246094 34.792969 31.6875 34.9375 L 33.34375 35.5 L 30.21875 39.375 C 30.007813 39.640625 29.941406 39.996094 30.050781 40.316406 C 30.15625 40.636719 30.421875 40.882813 30.75 40.96875 L 33.28125 41.59375 L 28.34375 48.21875 C 28.296875 48.265625 28.253906 48.320313 28.21875 48.375 L 28.1875 48.40625 C 28.175781 48.417969 28.167969 48.425781 28.15625 48.4375 C 28.144531 48.457031 28.132813 48.480469 28.125 48.5 C 28.113281 48.511719 28.105469 48.519531 28.09375 48.53125 C 28.09375 48.550781 28.09375 48.574219 28.09375 48.59375 C 28.082031 48.605469 28.074219 48.613281 28.0625 48.625 C 28.0625 48.644531 28.0625 48.667969 28.0625 48.6875 C 28.050781 48.699219 28.042969 48.707031 28.03125 48.71875 C 28.03125 48.738281 28.03125 48.761719 28.03125 48.78125 C 28.019531 48.792969 28.011719 48.800781 28 48.8125 C 28 48.832031 28 48.855469 28 48.875 C 28 48.886719 28 48.894531 28 48.90625 C 28 48.925781 28 48.949219 28 48.96875 C 28 48.980469 28 48.988281 28 49 C 28 49.019531 28 49.042969 28 49.0625 C 28 49.082031 28 49.105469 28 49.125 C 28 49.136719 28 49.144531 28 49.15625 C 28 49.175781 28 49.199219 28 49.21875 C 28.007813 49.238281 28.019531 49.261719 28.03125 49.28125 C 28.03125 49.292969 28.03125 49.300781 28.03125 49.3125 C 28.039063 49.332031 28.050781 49.355469 28.0625 49.375 C 28.070313 49.394531 28.082031 49.417969 28.09375 49.4375 C 28.09375 49.449219 28.09375 49.457031 28.09375 49.46875 C 28.105469 49.480469 28.113281 49.488281 28.125 49.5 C 28.132813 49.519531 28.144531 49.542969 28.15625 49.5625 C 28.175781 49.585938 28.195313 49.605469 28.21875 49.625 C 28.238281 49.648438 28.257813 49.667969 28.28125 49.6875 C 28.292969 49.699219 28.300781 49.707031 28.3125 49.71875 C 28.320313 49.738281 28.332031 49.761719 28.34375 49.78125 C 28.355469 49.78125 28.363281 49.78125 28.375 49.78125 C 28.394531 49.804688 28.414063 49.824219 28.4375 49.84375 C 28.449219 49.84375 28.457031 49.84375 28.46875 49.84375 C 28.488281 49.855469 28.511719 49.867188 28.53125 49.875 C 28.5625 49.898438 28.59375 49.917969 28.625 49.9375 C 28.644531 49.949219 28.667969 49.960938 28.6875 49.96875 C 28.699219 49.96875 28.707031 49.96875 28.71875 49.96875 C 28.75 49.980469 28.78125 49.992188 28.8125 50 C 28.824219 50 28.832031 50 28.84375 50 C 28.863281 50 28.886719 50 28.90625 50 C 28.917969 50 28.925781 50 28.9375 50 C 28.957031 50 28.980469 50 29 50 L 49 50 C 49.550781 50 50 49.550781 50 49 L 50 40 C 49.996094 39.535156 49.671875 39.132813 49.21875 39.03125 L 46.375 38.34375 L 49.6875 7.59375 C 49.730469 7.175781 49.503906 6.777344 49.125 6.59375 L 35.8125 0.28125 C 35.667969 0.210938 35.503906 0.179688 35.34375 0.1875 Z M 35.28125 2.25 L 47.65625 8.09375 L 44.4375 37.90625 L 35.625 35.8125 L 35.78125 35.625 C 35.980469 35.371094 36.042969 35.03125 35.949219 34.722656 C 35.855469 34.414063 35.621094 34.167969 35.3125 34.0625 L 33.0625 33.3125 L 34 24.09375 C 34.03125 23.789063 33.921875 23.488281 33.703125 23.273438 C 33.484375 23.0625 33.179688 22.960938 32.875 23 C 32.527344 23.046875 32.234375 23.273438 32.09375 23.59375 L 28.09375 32.59375 C 28.035156 32.722656 28.003906 32.859375 28 33 L 28 34.3125 L 16.75 36.25 L 20.3125 4.96875 Z M 25.25 9.40625 L 24.6875 14.15625 L 29.46875 14.71875 L 30.03125 9.96875 Z M 37.9375 10.875 L 37.375 15.65625 L 42.125 16.1875 L 42.6875 11.4375 Z M 9.90625 12.96875 L 17.1875 14.625 L 16.78125 18.09375 L 13.1875 18.5 L 13.59375 21.90625 L 16.40625 21.59375 L 16.0625 24.65625 L 14 25 L 14.40625 28.5 L 15.65625 28.28125 L 14.6875 36.59375 L 4.5625 38.34375 L 2.09375 16.96875 Z M 24.3125 17.3125 L 23.75 22.0625 L 28.5 22.625 L 29.0625 17.875 Z M 36.96875 18.78125 L 36.40625 23.5625 L 41.1875 24.125 L 41.75 19.34375 Z M 8.28125 19.03125 L 4.8125 19.4375 L 5.21875 22.9375 L 8.6875 22.53125 Z M 23.375 25.125 L 22.8125 29.875 L 27.5625 30.4375 L 28.125 25.6875 Z M 9.125 25.5625 L 5.65625 25.96875 L 6.0625 29.46875 L 9.53125 29.0625 Z M 36.03125 26.6875 L 35.46875 31.46875 L 40.21875 32.03125 L 40.78125 27.25 Z M 9.90625 32.15625 L 6.4375 32.5625 L 6.84375 36.03125 L 10.3125 35.625 Z M 26.71875 36.5625 L 23.375 39.21875 C 23.121094 39.417969 22.976563 39.726563 22.988281 40.046875 C 23 40.371094 23.167969 40.667969 23.4375 40.84375 L 25.34375 42.125 L 18.625 48 L 2 48 L 2 40.84375 L 3.4375 40.59375 C 3.738281 40.679688 4.0625 40.625 4.3125 40.4375 L 15.25 38.53125 C 15.585938 38.664063 15.96875 38.601563 16.25 38.375 Z M 34.25 37.53125 L 44.59375 39.96875 C 44.847656 40.21875 45.21875 40.316406 45.5625 40.21875 L 48 40.78125 L 48 48 L 31 48 L 35.8125 41.59375 C 36.011719 41.324219 36.0625 40.976563 35.949219 40.664063 C 35.835938 40.347656 35.574219 40.113281 35.25 40.03125 L 32.75 39.40625 Z "></path>
</g>
</svg>