<svg xmlns="http://www.w3.org/2000/svg" xmlns:xlink="http://www.w3.org/1999/xlink" viewBox="0 0 50 50" version="1.1">
<g id="surface1">
<path style=" " d="M 26 0 C 22.699219 0 20 2.699219 20 6 C 20 9.300781 22.699219 12 26 12 C 29.300781 12 32 9.300781 32 6 C 32 2.699219 29.300781 0 26 0 Z M 26 2 C 28.222656 2 30 3.777344 30 6 C 30 8.222656 28.222656 10 26 10 C 23.777344 10 22 8.222656 22 6 C 22 3.777344 23.777344 2 26 2 Z M 21.40625 13 C 20.851563 13 20.292969 13.15625 19.78125 13.40625 C 19.773438 13.410156 19.757813 13.402344 19.75 13.40625 L 11.09375 17.28125 C 10.078125 17.71875 9.503906 18.636719 9.25 19.53125 L 7.03125 27.34375 C 6.589844 28.964844 7.640625 30.605469 9.25 31.03125 C 7.84375 32.996094 7 35.40625 7 38 C 7 44.617188 12.382813 50 19 50 C 24.007813 50 28.296875 46.898438 30.09375 42.53125 L 36.28125 48.71875 C 36.472656 48.90625 36.734375 49.007813 37 49 L 42 49 C 42.359375 49.003906 42.695313 48.816406 42.878906 48.503906 C 43.058594 48.191406 43.058594 47.808594 42.878906 47.496094 C 42.695313 47.183594 42.359375 46.996094 42 47 L 37.4375 47 L 30.75 40.3125 C 30.898438 39.558594 31 38.796875 31 38 C 31 37.3125 30.921875 36.65625 30.8125 36 L 32.9375 36 L 36.15625 43.65625 C 36.160156 43.671875 36.183594 43.671875 36.1875 43.6875 C 36.765625 45.222656 38.34375 46.285156 40.0625 46 C 40.074219 45.988281 40.082031 45.980469 40.09375 45.96875 C 42.25 45.566406 43.511719 43.289063 42.71875 41.25 L 42.71875 41.21875 L 38.53125 30.25 C 38.523438 30.230469 38.511719 30.207031 38.5 30.1875 C 37.953125 28.953125 36.777344 28 35.3125 28 L 28.78125 28 L 30.09375 19.4375 C 30.574219 16.070313 27.976563 13 24.5 13 Z M 21.40625 15 L 24.5 15 C 26.824219 15 28.445313 16.921875 28.125 19.15625 L 26.625 28.75 C 24.878906 27.308594 22.710938 26.359375 20.34375 26.09375 L 21.375 19.65625 C 21.433594 19.304688 21.296875 18.945313 21.019531 18.722656 C 20.742188 18.496094 20.363281 18.433594 20.03125 18.5625 L 13.40625 21.28125 C 13.128906 21.402344 12.921875 21.644531 12.84375 21.9375 L 11.03125 28.21875 C 10.863281 28.773438 10.277344 29.199219 9.90625 29.125 C 9.894531 29.125 9.886719 29.125 9.875 29.125 C 9.242188 29.019531 8.835938 28.363281 8.96875 27.875 L 11.15625 20.0625 C 11.300781 19.554688 11.523438 19.289063 11.90625 19.125 L 20.59375 15.21875 C 20.613281 15.210938 20.636719 15.199219 20.65625 15.1875 C 20.9375 15.046875 21.171875 15 21.40625 15 Z M 19.125 21.125 L 18.34375 26.03125 C 16.558594 26.128906 14.871094 26.609375 13.375 27.40625 L 14.625 22.9375 Z M 19 28 C 24.535156 28 29 32.464844 29 38 C 29 43.535156 24.535156 48 19 48 C 13.464844 48 9 43.535156 9 38 C 9 32.464844 13.464844 28 19 28 Z M 27.90625 30 L 35.3125 30 C 35.832031 30 36.394531 30.421875 36.65625 30.96875 C 36.664063 30.984375 36.679688 30.984375 36.6875 31 L 40.875 41.96875 C 41.25 42.90625 40.75 43.785156 39.75 44 C 39.082031 44.109375 38.265625 43.613281 38.03125 42.96875 C 38.03125 42.949219 38.03125 42.925781 38.03125 42.90625 L 34.53125 34.625 C 34.378906 34.242188 34.003906 33.996094 33.59375 34 L 30.3125 34 C 29.78125 32.507813 28.945313 31.15625 27.90625 30 Z M 19 36 C 17.894531 36 17 36.894531 17 38 C 17 39.105469 17.894531 40 19 40 C 20.105469 40 21 39.105469 21 38 C 21 36.894531 20.105469 36 19 36 Z "></path>
</g>
</svg>