<svg version="1.1" xmlns="http://www.w3.org/2000/svg" xmlns:xlink="http://www.w3.org/1999/xlink" viewBox="0 0 223 223"><g fill="none" fill-rule="nonzero" stroke="none" stroke-width="1" stroke-linecap="butt" stroke-linejoin="miter" stroke-miterlimit="10" stroke-dasharray="" stroke-dashoffset="0" font-family="none" font-weight="none" font-size="none" text-anchor="none" style="mix-blend-mode: normal"><path d="M0,223.98438v-223.98437h223.98438v223.98438z" fill="none"></path><g id="original-icon" fill="#000000" opacity="0" visibility="hidden"><g id="surface1"><path d="M115.96,0c-14.72148,0 -26.76,12.03852 -26.76,26.76c0,14.72148 12.03852,26.76 26.76,26.76c14.72148,0 26.76,-12.03852 26.76,-26.76c0,-14.72148 -12.03852,-26.76 -26.76,-26.76zM115.96,8.92c9.91305,0 17.84,7.92695 17.84,17.84c0,9.91305 -7.92695,17.84 -17.84,17.84c-9.91305,0 -17.84,-7.92695 -17.84,-17.84c0,-9.91305 7.92695,-17.84 17.84,-17.84zM95.47188,57.98c-2.4739,0 -4.96523,0.69688 -7.2475,1.81188c-0.03484,0.01742 -0.10453,-0.01742 -0.13938,0l-38.60687,17.2825c-4.52969,1.95125 -7.0907,6.04539 -8.22312,10.035l-9.89563,34.84375c-1.96867,7.23008 2.71781,14.54727 9.89563,16.44625c-6.27188,8.7632 -10.035,19.5125 -10.035,31.08063c0,29.51266 24.00735,53.52 53.52,53.52c22.33485,0 41.46406,-13.83297 49.47812,-33.31062l27.59625,27.59625c0.85367,0.83625 2.02094,1.28922 3.20562,1.25437h22.3c1.60281,0.01742 3.1011,-0.81883 3.91992,-2.21258c0.80141,-1.39375 0.80141,-3.10109 0,-4.49484c-0.81882,-1.39375 -2.31711,-2.23 -3.91992,-2.21258h-20.34875l-29.82625,-29.82625c0.66203,-3.36242 1.115,-6.75969 1.115,-10.31375c0,-3.06625 -0.34844,-5.99312 -0.83625,-8.92h9.4775l14.35563,34.14687c0.01742,0.06969 0.12195,0.06969 0.13938,0.13938c2.57844,6.8468 9.61687,11.58555 17.2825,10.31375c0.05227,-0.05227 0.08711,-0.08711 0.13938,-0.13938c9.61687,-1.79445 15.24414,-11.9514 11.7075,-21.04562v-0.13938l-18.67625,-48.92062c-0.03484,-0.08711 -0.08711,-0.19164 -0.13938,-0.27875c-2.43906,-5.50531 -7.68305,-9.75625 -14.21625,-9.75625h-29.12938l5.85375,-38.18875c2.14289,-15.01765 -9.44265,-28.71125 -24.94812,-28.71125zM95.47188,66.9h13.79813c10.36602,0 17.5961,8.57156 16.1675,18.53687l-6.69,42.78812c-7.78758,-6.42867 -17.45672,-10.66219 -28.01437,-11.84687l4.59937,-28.71125c0.26133,-1.56797 -0.34844,-3.17078 -1.58539,-4.16383c-1.23695,-1.01047 -2.92687,-1.28922 -4.40773,-0.7143l-29.5475,12.12563c-1.23695,0.54008 -2.16031,1.62023 -2.50875,2.92688l-8.08375,28.01438c-0.74914,2.47391 -3.36242,4.37289 -5.0175,4.04188c-0.05227,0 -0.08711,0 -0.13938,0c-2.82234,-0.47039 -4.63422,-3.39727 -4.04187,-5.575l9.75625,-34.84375c0.64461,-2.26484 1.63766,-3.44953 3.345,-4.18125l38.74625,-17.42187c0.08711,-0.03484 0.19164,-0.08711 0.27875,-0.13938c1.25437,-0.62719 2.29969,-0.83625 3.345,-0.83625zM85.2975,94.2175l-3.48437,21.88187c-7.9618,0.43555 -15.48805,2.57844 -22.16063,6.1325l5.575,-19.93063zM84.74,124.88c24.6868,0 44.6,19.9132 44.6,44.6c0,24.6868 -19.9132,44.6 -44.6,44.6c-24.6868,0 -44.6,-19.9132 -44.6,-44.6c0,-24.6868 19.9132,-44.6 44.6,-44.6zM124.46188,133.8h33.03188c2.31711,0 4.82586,1.88156 5.99312,4.32062c0.03485,0.06969 0.10453,0.06969 0.13938,0.13938l18.67625,48.92063c1.6725,4.18125 -0.5575,8.10117 -5.0175,9.05938c-2.97914,0.48781 -6.62031,-1.72477 -7.66563,-4.59938c0,-0.08711 0,-0.19164 0,-0.27875l-15.61,-36.93437c-0.67945,-1.70734 -2.35195,-2.80492 -4.18125,-2.7875h-14.63438c-2.36937,-6.65515 -6.09765,-12.68312 -10.73188,-17.84zM84.74,160.56c-4.93039,0 -8.92,3.98961 -8.92,8.92c0,4.93039 3.98961,8.92 8.92,8.92c4.93039,0 8.92,-3.98961 8.92,-8.92c0,-4.93039 -3.98961,-8.92 -8.92,-8.92z"></path></g></g><g id="subtracted-icon" fill="#000000"><g id="surface1 1"><path d="M142.72,26.76c0,14.72148 -12.03852,26.76 -26.76,26.76c-14.72148,0 -26.76,-12.03852 -26.76,-26.76c0,-14.72148 12.03852,-26.76 26.76,-26.76c14.72148,0 26.76,12.03852 26.76,26.76zM98.12,26.76c0,9.91305 7.92695,17.84 17.84,17.84c9.91305,0 17.84,-7.92695 17.84,-17.84c0,-9.91305 -7.92695,-17.84 -17.84,-17.84c-9.91305,0 -17.84,7.92695 -17.84,17.84zM109.27,57.98c15.50547,0 27.09102,13.6936 24.94812,28.71125l-5.85375,38.18875h29.12938c6.5332,0 11.77719,4.25094 14.21625,9.75625c0.05227,0.08711 0.10453,0.19164 0.13938,0.27875l18.67625,48.92063v0.13938c3.53664,9.09422 -2.09062,19.25117 -11.7075,21.04563c-0.05227,0.05227 -0.08711,0.08711 -0.13938,0.13938c-7.66563,1.2718 -14.70406,-3.46695 -17.2825,-10.31375c-0.01742,-0.06969 -0.12195,-0.06969 -0.13938,-0.13938l-14.35563,-34.14687h-9.4775c0.48781,2.92687 0.83625,5.85375 0.83625,8.92c0,3.55406 -0.45297,6.95133 -1.115,10.31375l29.82625,29.82625h20.34875c1.60281,-0.01742 3.1011,0.81883 3.91992,2.21258c0.80141,1.39375 0.80141,3.10109 0,4.49484c-0.81882,1.39375 -2.31711,2.23 -3.91992,2.21258h-22.3c-1.18469,0.03485 -2.35195,-0.41813 -3.20562,-1.25437l-27.59625,-27.59625c-8.01406,19.47766 -27.14328,33.31062 -49.47812,33.31062c-29.51265,0 -53.52,-24.00734 -53.52,-53.52c0,-11.56812 3.76313,-22.31742 10.035,-31.08062c-7.17781,-1.89898 -11.8643,-9.21617 -9.89563,-16.44625l9.89563,-34.84375c1.13242,-3.98961 3.69344,-8.08375 8.22312,-10.035l38.60687,-17.2825c0.03485,-0.01742 0.10453,0.01742 0.13938,0c2.28227,-1.115 4.7736,-1.81188 7.2475,-1.81188zM92.12688,67.73625c-0.08711,0.05227 -0.19164,0.10453 -0.27875,0.13938l-38.74625,17.42188c-1.70734,0.73172 -2.70039,1.91641 -3.345,4.18125l-9.75625,34.84375c-0.59234,2.17773 1.21953,5.10461 4.04187,5.575c0.05227,0 0.08711,0 0.13938,0c1.65508,0.33102 4.26836,-1.56797 5.0175,-4.04188l8.08375,-28.01437c0.34844,-1.30664 1.2718,-2.3868 2.50875,-2.92688l29.5475,-12.12562c1.48086,-0.57492 3.17078,-0.29617 4.40773,0.7143c1.23695,0.99305 1.84672,2.59586 1.58539,4.16383l-4.59937,28.71125c10.55766,1.18469 20.2268,5.4182 28.01438,11.84687l6.69,-42.78812c1.4286,-9.96531 -5.80148,-18.53687 -16.1675,-18.53687h-13.79812c-1.04531,0 -2.09063,0.20906 -3.345,0.83625zM65.2275,102.30125l-5.575,19.93063c6.67258,-3.55406 14.19883,-5.69695 22.16063,-6.1325l3.48438,-21.88187zM40.14,169.48c0,24.6868 19.9132,44.6 44.6,44.6c24.6868,0 44.6,-19.9132 44.6,-44.6c0,-24.6868 -19.9132,-44.6 -44.6,-44.6c-24.6868,0 -44.6,19.9132 -44.6,44.6zM135.19375,151.64h14.63438c1.8293,-0.01742 3.5018,1.08016 4.18125,2.7875l15.61,36.93437c0,0.08711 0,0.19164 0,0.27875c1.04531,2.87461 4.68648,5.08719 7.66563,4.59938c4.46,-0.9582 6.69,-4.87813 5.0175,-9.05938l-18.67625,-48.92062c-0.03484,-0.06969 -0.10453,-0.06969 -0.13938,-0.13938c-1.16727,-2.43906 -3.67602,-4.32062 -5.99312,-4.32062h-33.03188c4.63422,5.15687 8.3625,11.18485 10.73188,17.84zM93.66,169.48c0,4.93039 -3.98961,8.92 -8.92,8.92c-4.93039,0 -8.92,-3.98961 -8.92,-8.92c0,-4.93039 3.98961,-8.92 8.92,-8.92c4.93039,0 8.92,3.98961 8.92,8.92z"></path></g></g><g fill="#000000"><g id="Layer_9"><path d="M225.08,62.48h-26.76v-26.76c0,-5.352 -3.568,-8.92 -8.92,-8.92c-5.352,0 -8.92,3.568 -8.92,8.92v26.76h-26.76c-5.352,0 -8.92,3.568 -8.92,8.92c0,5.352 3.568,8.92 8.92,8.92h26.76v26.76c0,5.352 3.568,8.92 8.92,8.92c5.352,0 8.92,-3.568 8.92,-8.92v-26.76h26.76c5.352,0 8.92,-3.568 8.92,-8.92c0,-5.352 -3.568,-8.92 -8.92,-8.92z"></path></g><g opacity="0"><g id="IOS" font-family="-apple-system, BlinkMacSystemFont, &quot;San Francisco&quot;, HelveticaNeue-Light, &quot;Helvetica Neue Light&quot;, &quot;Helvetica Neue&quot;, &quot;Segoe UI&quot;, &quot;Fira Sans&quot;, Roboto, Oxygen, Ubuntu, &quot;Droid Sans&quot;, Arial, sans-serif" font-weight="400" font-size="16" text-anchor="start" visibility="hidden"></g><g id="IOS_copy"><path d="M189.4,17.88c-29.436,0 -53.52,24.084 -53.52,53.52c0,29.436 24.084,53.52 53.52,53.52c29.436,0 53.52,-24.084 53.52,-53.52c0,-29.436 -24.084,-53.52 -53.52,-53.52z"></path></g></g></g></g></svg>