<svg xmlns="http://www.w3.org/2000/svg" xmlns:xlink="http://www.w3.org/1999/xlink" viewBox="0 0 50 50" version="1.1">
<g id="surface1">
<path style=" " d="M 28.5 1 C 25.472656 1 23 3.472656 23 6.5 C 23 9.527344 25.472656 12 28.5 12 C 31.527344 12 34 9.527344 34 6.5 C 34 3.472656 31.527344 1 28.5 1 Z M 28.5 3 C 30.445313 3 32 4.554688 32 6.5 C 32 8.445313 30.445313 10 28.5 10 C 26.554688 10 25 8.445313 25 6.5 C 25 4.554688 26.554688 3 28.5 3 Z M 25 13 C 22.199219 13 20 15.199219 20 18 L 22 32 L 24 32 L 23.5 28.5 C 23.648438 28.621094 23.804688 28.742188 23.96875 28.84375 C 23.980469 28.855469 23.988281 28.863281 24 28.875 L 29.53125 32.125 L 29.5625 32.125 C 29.574219 32.132813 29.582031 32.148438 29.59375 32.15625 C 30.007813 32.417969 30.5 32.59375 31 32.59375 C 31.933594 32.59375 32.867188 32.105469 33.4375 31.25 C 33.449219 31.230469 33.460938 31.207031 33.46875 31.1875 C 34.046875 30.144531 33.886719 28.878906 33.15625 28 L 43 28 C 43.601563 28 44 28.398438 44 29 C 44 29.601563 43.601563 30 43 30 L 34.90625 30 C 34.90625 30.601563 34.707031 31.09375 34.40625 31.59375 C 34.304688 31.695313 34.1875 31.800781 34.1875 32 L 43 32 C 44.699219 32 46 30.699219 46 29 C 46 27.300781 44.699219 26 43 26 L 30.15625 26 L 27.125 24.21875 L 25.96875 20.21875 C 25.8125 19.683594 25.253906 19.375 24.71875 19.53125 C 24.183594 19.6875 23.875 20.246094 24.03125 20.78125 L 25.34375 25.1875 C 25.414063 25.421875 25.570313 25.621094 25.78125 25.75 L 31.40625 29.0625 C 31.835938 29.300781 31.945313 29.75 31.71875 30.1875 C 31.5 30.472656 31.246094 30.59375 31 30.59375 C 30.921875 30.59375 30.828125 30.582031 30.65625 30.46875 C 30.636719 30.457031 30.613281 30.445313 30.59375 30.4375 L 25.03125 27.15625 C 25.019531 27.148438 25.011719 27.132813 25 27.125 C 24.433594 26.757813 23.976563 26.144531 23.75 25.46875 L 22.375 20.15625 C 22.351563 20.046875 22.308594 19.941406 22.25 19.84375 L 22 18 C 22 16.300781 23.300781 15 25 15 L 32.09375 15 C 33.09375 15 33.992188 15.511719 34.59375 16.3125 L 40.59375 25 L 43 25 L 36.1875 15.1875 C 35.289063 13.789063 33.695313 13 32.09375 13 Z M 34.125 18.96875 C 34.019531 18.96875 33.914063 18.976563 33.8125 19 C 33.414063 19.101563 33.09375 19.5 33.09375 20 L 33.09375 25 L 35 25 L 35 23.3125 L 36.09375 25 L 38.5 25 L 34.90625 19.40625 C 34.757813 19.105469 34.445313 18.972656 34.125 18.96875 Z M 5.5 30 C 2.472656 30 0 32.472656 0 35.5 C 0 38.527344 2.472656 41 5.5 41 C 8.527344 41 11 38.527344 11 35.5 C 11 32.472656 8.527344 30 5.5 30 Z M 26.5 31.59375 L 25.5 33 L 16 33 C 13.199219 33 11 35.199219 11 38 C 11 40.800781 13.199219 43 16 43 L 46.90625 43 C 48.605469 43 50 41.605469 50 39.90625 C 50 38.304688 48.695313 37.007813 47.09375 36.90625 L 32.40625 36 L 33.6875 32.59375 C 32.988281 33.195313 32.085938 33.59375 31.1875 33.59375 L 30.09375 36.59375 C 29.992188 36.894531 29.988281 37.199219 30.1875 37.5 C 30.386719 37.800781 30.699219 37.898438 31 38 L 47.09375 39 C 47.695313 39 48.09375 39.492188 48.09375 40.09375 C 48.09375 40.695313 47.601563 41.1875 47 41.1875 L 29.75 41.1875 C 29.910156 40.820313 30 40.421875 30 40 C 30 38.355469 28.644531 37 27 37 L 17 37 L 17 39 L 27 39 C 27.554688 39 28 39.445313 28 40 C 28 40.554688 27.554688 41 27 41 L 27 41.1875 L 16 41.1875 C 14.300781 41.1875 13 39.886719 13 38.1875 C 13 36.488281 14.300781 35.1875 16 35.1875 L 26.09375 35.1875 C 26.492188 35.1875 26.800781 34.988281 27 34.6875 L 28.1875 32.59375 Z M 5.5 32 C 7.445313 32 9 33.554688 9 35.5 C 9 37.445313 7.445313 39 5.5 39 C 3.554688 39 2 37.445313 2 35.5 C 2 33.554688 3.554688 32 5.5 32 Z M 3 42 C 1.355469 42 0 43.355469 0 45 L 0 49 L 2 49 L 2 45 C 2 44.445313 2.445313 44 3 44 L 8 44 C 8.265625 44 8.59375 44.167969 8.8125 44.4375 L 8.84375 44.4375 L 9.84375 45.625 L 10.125 46 L 48 46 L 48 49 L 50 49 L 50 46 C 50 45.476563 49.816406 44.941406 49.4375 44.5625 C 49.058594 44.183594 48.523438 44 48 44 L 11.0625 44 L 10.375 43.1875 C 10.371094 43.179688 10.347656 43.195313 10.34375 43.1875 C 9.761719 42.46875 8.925781 42 8 42 Z "></path>
</g>
</svg>