<svg xmlns="http://www.w3.org/2000/svg" xmlns:xlink="http://www.w3.org/1999/xlink" viewBox="0 0 50 50" version="1.1">
<g id="surface1">
<path style=" " d="M 25 2 C 22.800781 2 21 3.800781 21 6 L 13 6 C 11.355469 6 10 7.355469 10 9 L 10 41 C 10 42.644531 11.355469 44 13 44 L 30.84375 44 C 32.394531 47.519531 35.914063 50 40 50 C 45.511719 50 50 45.511719 50 40 C 50 34.488281 45.511719 30 40 30 L 40 9 C 40 7.355469 38.644531 6 37 6 L 29 6 C 29 3.800781 27.199219 2 25 2 Z M 25 4 C 26.117188 4 27 4.882813 27 6 L 27 9 L 23 9 L 23 6 C 23 4.882813 23.882813 4 25 4 Z M 25 5 C 24.449219 5 24 5.449219 24 6 C 24 6.550781 24.449219 7 25 7 C 25.550781 7 26 6.550781 26 6 C 26 5.449219 25.550781 5 25 5 Z M 13 8 L 21 8 L 21 10 C 21 10.550781 21.449219 11 22 11 L 28 11 C 28.550781 11 29 10.550781 29 10 L 29 8 L 37 8 C 37.566406 8 38 8.433594 38 9 L 38 30.21875 C 36.375 30.550781 34.890625 31.261719 33.65625 32.28125 C 33.417969 31.707031 33.089844 31.203125 32.6875 30.8125 C 32.042969 30.1875 31.292969 29.785156 30.59375 29.46875 C 29.894531 29.152344 29.238281 28.898438 28.78125 28.65625 C 28.371094 28.441406 28.25 28.296875 28.1875 28.1875 C 28.160156 27.777344 28.152344 27.398438 28.15625 27 C 28.179688 26.96875 28.226563 26.9375 28.25 26.90625 C 28.398438 26.703125 28.503906 26.496094 28.625 26.25 C 28.800781 25.890625 28.933594 25.433594 29.03125 25 C 29.144531 24.914063 29.285156 24.898438 29.375 24.78125 C 29.671875 24.402344 29.832031 23.925781 29.90625 23.3125 C 29.96875 22.785156 29.839844 22.351563 29.625 22 C 29.839844 21.242188 30.089844 20.289063 30 19.125 C 29.945313 18.421875 29.777344 17.675781 29.3125 17.03125 C 28.886719 16.441406 28.179688 16.015625 27.34375 15.84375 C 26.710938 15.265625 25.886719 15 24.96875 15 L 24.9375 15 C 22.730469 15.039063 21.121094 16.039063 20.46875 17.53125 C 19.878906 18.882813 20.015625 20.4375 20.375 22.03125 C 20.167969 22.378906 20.03125 22.792969 20.09375 23.3125 C 20.167969 23.925781 20.328125 24.402344 20.625 24.78125 C 20.714844 24.898438 20.855469 24.914063 20.96875 25 C 21.070313 25.4375 21.195313 25.890625 21.375 26.25 C 21.5 26.496094 21.632813 26.707031 21.78125 26.90625 C 21.804688 26.9375 21.851563 26.96875 21.875 27 C 21.878906 27.398438 21.871094 27.777344 21.84375 28.1875 C 21.761719 28.355469 21.574219 28.546875 21.125 28.78125 C 20.632813 29.035156 19.953125 29.257813 19.21875 29.59375 C 18.484375 29.929688 17.695313 30.355469 17.0625 31.0625 C 16.429688 31.769531 16 32.789063 16 34 L 16 35 L 31.375 35 C 30.515625 36.476563 30 38.175781 30 40 C 30 40.6875 30.085938 41.351563 30.21875 42 L 13 42 C 12.433594 42 12 41.566406 12 41 L 12 9 C 12 8.433594 12.433594 8 13 8 Z M 24.96875 17 C 25.773438 17 26.121094 17.273438 26.125 17.28125 L 26.375 17.6875 L 26.84375 17.78125 C 27.335938 17.847656 27.523438 17.988281 27.6875 18.21875 C 27.851563 18.449219 27.964844 18.816406 28 19.28125 C 28.074219 20.214844 27.800781 21.441406 27.625 21.96875 L 27.375 22.71875 L 27.9375 23.0625 C 27.902344 23.359375 27.863281 23.429688 27.84375 23.46875 L 27.25 23.5 L 27.15625 24.34375 C 27.125 24.636719 27 25.058594 26.84375 25.375 C 26.765625 25.535156 26.679688 25.671875 26.625 25.75 L 26.15625 26 L 26.15625 26.59375 C 26.15625 27.222656 26.117188 27.785156 26.1875 28.5625 L 26.1875 28.6875 L 26.25 28.8125 C 26.554688 29.632813 27.242188 30.105469 27.875 30.4375 C 28.507813 30.769531 29.167969 31.003906 29.78125 31.28125 C 30.394531 31.558594 30.941406 31.886719 31.3125 32.25 C 31.515625 32.445313 31.539063 32.75 31.65625 33 L 18.34375 33 C 18.429688 32.828125 18.4375 32.546875 18.5625 32.40625 C 18.902344 32.027344 19.402344 31.722656 20.03125 31.4375 C 20.660156 31.152344 21.386719 30.882813 22.0625 30.53125 C 22.738281 30.179688 23.457031 29.679688 23.78125 28.8125 L 23.84375 28.5625 C 23.914063 27.785156 23.875 27.222656 23.875 26.59375 L 23.875 26 L 23.46875 25.78125 C 23.46875 25.777344 23.433594 25.757813 23.40625 25.71875 C 23.347656 25.640625 23.234375 25.503906 23.15625 25.34375 C 22.996094 25.027344 22.875 24.625 22.84375 24.34375 L 22.75 23.5 L 22.15625 23.46875 C 22.136719 23.429688 22.097656 23.359375 22.0625 23.0625 L 22.5625 22.75 L 22.375 22.03125 C 21.972656 20.488281 21.960938 19.113281 22.3125 18.3125 C 22.664063 17.511719 23.25 17.03125 24.96875 17 Z M 40 32 C 44.429688 32 48 35.570313 48 40 C 48 44.429688 44.429688 48 40 48 C 35.570313 48 32 44.429688 32 40 C 32 35.570313 35.570313 32 40 32 Z M 36.90625 35.96875 C 36.863281 35.976563 36.820313 35.988281 36.78125 36 C 36.40625 36.066406 36.105469 36.339844 36 36.703125 C 35.894531 37.070313 36.003906 37.460938 36.28125 37.71875 L 38.5625 40 L 36.28125 42.28125 C 35.882813 42.679688 35.882813 43.320313 36.28125 43.71875 C 36.679688 44.117188 37.320313 44.117188 37.71875 43.71875 L 40 41.4375 L 42.28125 43.71875 C 42.679688 44.117188 43.320313 44.117188 43.71875 43.71875 C 44.117188 43.320313 44.117188 42.679688 43.71875 42.28125 L 41.4375 40 L 43.71875 37.71875 C 44.042969 37.417969 44.128906 36.941406 43.933594 36.546875 C 43.742188 36.148438 43.308594 35.929688 42.875 36 C 42.652344 36.023438 42.441406 36.125 42.28125 36.28125 L 40 38.5625 L 37.71875 36.28125 C 37.511719 36.058594 37.210938 35.945313 36.90625 35.96875 Z "></path>
</g>
</svg>