<svg xmlns="http://www.w3.org/2000/svg" xmlns:xlink="http://www.w3.org/1999/xlink" viewBox="0 0 50 50" version="1.1">
<g id="surface1">
<path style=" " d="M 3 7 C 1.355469 7 0 8.355469 0 10 L 0 40 C 0 41.644531 1.355469 43 3 43 L 22.78125 43 C 23.332031 43.609375 24.117188 44 25 44 C 25.882813 44 26.667969 43.609375 27.21875 43 L 47 43 C 48.644531 43 50 41.644531 50 40 L 50 10 C 50 8.355469 48.644531 7 47 7 L 27 7 C 26.234375 7 25.53125 7.300781 25 7.78125 C 24.46875 7.300781 23.765625 7 23 7 Z M 3 9 L 23 9 C 23.566406 9 24 9.433594 24 10 L 24 41 L 3 41 C 2.433594 41 2 40.566406 2 40 L 2 10 C 2 9.433594 2.433594 9 3 9 Z M 27 9 L 47 9 C 47.566406 9 48 9.433594 48 10 L 48 40 C 48 40.566406 47.566406 41 47 41 L 26 41 L 26 10 C 26 9.433594 26.433594 9 27 9 Z M 5.71875 14 C 5.167969 14.078125 4.78125 14.589844 4.859375 15.140625 C 4.9375 15.691406 5.449219 16.078125 6 16 L 14 16 C 14.359375 16.003906 14.695313 15.816406 14.878906 15.503906 C 15.058594 15.191406 15.058594 14.808594 14.878906 14.496094 C 14.695313 14.183594 14.359375 13.996094 14 14 L 6 14 C 5.96875 14 5.9375 14 5.90625 14 C 5.875 14 5.84375 14 5.8125 14 C 5.78125 14 5.75 14 5.71875 14 Z M 18 14 C 17.449219 14 17 14.449219 17 15 C 17 15.550781 17.449219 16 18 16 C 18.550781 16 19 15.550781 19 15 C 19 14.449219 18.550781 14 18 14 Z M 21 14 C 20.449219 14 20 14.449219 20 15 C 20 15.550781 20.449219 16 21 16 C 21.550781 16 22 15.550781 22 15 C 22 14.449219 21.550781 14 21 14 Z M 29.71875 14 C 29.167969 14.078125 28.78125 14.589844 28.859375 15.140625 C 28.9375 15.691406 29.449219 16.078125 30 16 L 38 16 C 38.359375 16.003906 38.695313 15.816406 38.878906 15.503906 C 39.058594 15.191406 39.058594 14.808594 38.878906 14.496094 C 38.695313 14.183594 38.359375 13.996094 38 14 L 30 14 C 29.96875 14 29.9375 14 29.90625 14 C 29.875 14 29.84375 14 29.8125 14 C 29.78125 14 29.75 14 29.71875 14 Z M 42 14 C 41.449219 14 41 14.449219 41 15 C 41 15.550781 41.449219 16 42 16 C 42.550781 16 43 15.550781 43 15 C 43 14.449219 42.550781 14 42 14 Z M 45 14 C 44.449219 14 44 14.449219 44 15 C 44 15.550781 44.449219 16 45 16 C 45.550781 16 46 15.550781 46 15 C 46 14.449219 45.550781 14 45 14 Z M 5.71875 19 C 5.167969 19.078125 4.78125 19.589844 4.859375 20.140625 C 4.9375 20.691406 5.449219 21.078125 6 21 L 14 21 C 14.359375 21.003906 14.695313 20.816406 14.878906 20.503906 C 15.058594 20.191406 15.058594 19.808594 14.878906 19.496094 C 14.695313 19.183594 14.359375 18.996094 14 19 L 6 19 C 5.96875 19 5.9375 19 5.90625 19 C 5.875 19 5.84375 19 5.8125 19 C 5.78125 19 5.75 19 5.71875 19 Z M 18 19 C 17.449219 19 17 19.449219 17 20 C 17 20.550781 17.449219 21 18 21 C 18.550781 21 19 20.550781 19 20 C 19 19.449219 18.550781 19 18 19 Z M 21 19 C 20.449219 19 20 19.449219 20 20 C 20 20.550781 20.449219 21 21 21 C 21.550781 21 22 20.550781 22 20 C 22 19.449219 21.550781 19 21 19 Z M 29.71875 19 C 29.167969 19.078125 28.78125 19.589844 28.859375 20.140625 C 28.9375 20.691406 29.449219 21.078125 30 21 L 38 21 C 38.359375 21.003906 38.695313 20.816406 38.878906 20.503906 C 39.058594 20.191406 39.058594 19.808594 38.878906 19.496094 C 38.695313 19.183594 38.359375 18.996094 38 19 L 30 19 C 29.96875 19 29.9375 19 29.90625 19 C 29.875 19 29.84375 19 29.8125 19 C 29.78125 19 29.75 19 29.71875 19 Z M 42 19 C 41.449219 19 41 19.449219 41 20 C 41 20.550781 41.449219 21 42 21 C 42.550781 21 43 20.550781 43 20 C 43 19.449219 42.550781 19 42 19 Z M 45 19 C 44.449219 19 44 19.449219 44 20 C 44 20.550781 44.449219 21 45 21 C 45.550781 21 46 20.550781 46 20 C 46 19.449219 45.550781 19 45 19 Z M 5.71875 24 C 5.167969 24.078125 4.78125 24.589844 4.859375 25.140625 C 4.9375 25.691406 5.449219 26.078125 6 26 L 14 26 C 14.359375 26.003906 14.695313 25.816406 14.878906 25.503906 C 15.058594 25.191406 15.058594 24.808594 14.878906 24.496094 C 14.695313 24.183594 14.359375 23.996094 14 24 L 6 24 C 5.96875 24 5.9375 24 5.90625 24 C 5.875 24 5.84375 24 5.8125 24 C 5.78125 24 5.75 24 5.71875 24 Z M 21 24 C 20.449219 24 20 24.449219 20 25 C 20 25.550781 20.449219 26 21 26 C 21.550781 26 22 25.550781 22 25 C 22 24.449219 21.550781 24 21 24 Z M 29.71875 24 C 29.167969 24.078125 28.78125 24.589844 28.859375 25.140625 C 28.9375 25.691406 29.449219 26.078125 30 26 L 38 26 C 38.359375 26.003906 38.695313 25.816406 38.878906 25.503906 C 39.058594 25.191406 39.058594 24.808594 38.878906 24.496094 C 38.695313 24.183594 38.359375 23.996094 38 24 L 30 24 C 29.96875 24 29.9375 24 29.90625 24 C 29.875 24 29.84375 24 29.8125 24 C 29.78125 24 29.75 24 29.71875 24 Z M 45 24 C 44.449219 24 44 24.449219 44 25 C 44 25.550781 44.449219 26 45 26 C 45.550781 26 46 25.550781 46 25 C 46 24.449219 45.550781 24 45 24 Z M 5.71875 29 C 5.167969 29.078125 4.78125 29.589844 4.859375 30.140625 C 4.9375 30.691406 5.449219 31.078125 6 31 L 14 31 C 14.359375 31.003906 14.695313 30.816406 14.878906 30.503906 C 15.058594 30.191406 15.058594 29.808594 14.878906 29.496094 C 14.695313 29.183594 14.359375 28.996094 14 29 L 6 29 C 5.96875 29 5.9375 29 5.90625 29 C 5.875 29 5.84375 29 5.8125 29 C 5.78125 29 5.75 29 5.71875 29 Z M 18 29 C 17.449219 29 17 29.449219 17 30 C 17 30.550781 17.449219 31 18 31 C 18.550781 31 19 30.550781 19 30 C 19 29.449219 18.550781 29 18 29 Z M 21 29 C 20.449219 29 20 29.449219 20 30 C 20 30.550781 20.449219 31 21 31 C 21.550781 31 22 30.550781 22 30 C 22 29.449219 21.550781 29 21 29 Z M 5.71875 34 C 5.167969 34.078125 4.78125 34.589844 4.859375 35.140625 C 4.9375 35.691406 5.449219 36.078125 6 36 L 14 36 C 14.359375 36.003906 14.695313 35.816406 14.878906 35.503906 C 15.058594 35.191406 15.058594 34.808594 14.878906 34.496094 C 14.695313 34.183594 14.359375 33.996094 14 34 L 6 34 C 5.96875 34 5.9375 34 5.90625 34 C 5.875 34 5.84375 34 5.8125 34 C 5.78125 34 5.75 34 5.71875 34 Z M 21 34 C 20.449219 34 20 34.449219 20 35 C 20 35.550781 20.449219 36 21 36 C 21.550781 36 22 35.550781 22 35 C 22 34.449219 21.550781 34 21 34 Z "></path>
</g>
</svg>