<svg xmlns="http://www.w3.org/2000/svg" viewBox="0 0 50 50">
    <path style="line-height:normal;text-indent:0;text-align:start;text-decoration-line:none;text-decoration-style:solid;text-decoration-color:#000;text-transform:none;block-progression:tb;isolation:auto;mix-blend-mode:normal" d="M 8 4 C 5.794 4 4 5.794 4 8 L 4 42 C 4 44.206 5.794 46 8 46 L 31.203125 46 L 29.222656 44 L 8 44 C 6.897 44 6 43.103 6 42 L 6 8 C 6 7.029 6.6952813 6.2181094 7.6132812 6.0371094 C 9.4862813 8.0071094 19 18.528 19 29 L 19 29.572266 C 18.999871 29.58601 18.999943 29.599536 19 29.613281 L 19 30 L 19.035156 30 C 19.118027 30.625702 19.385542 31.230254 19.859375 31.708984 L 19.861328 31.708984 L 37.099609 49.109375 C 38.261159 50.284327 40.186655 50.289444 41.353516 49.121094 L 49.121094 41.353516 C 50.279913 40.194696 50.286122 38.286324 49.132812 37.121094 L 34.335938 22.1875 C 33.321252 16.816105 31.160069 11.382473 27.875 6 L 42 6 C 43.103 6 44 6.897 44 8 L 44 29.099609 L 46 31.117188 L 46 8 C 46 5.794 44.206 4 42 4 L 26.0625 4 C 25.6955 4 25.358594 4.2014375 25.183594 4.5234375 C 25.008594 4.8454375 25.024609 5.2379219 25.224609 5.5449219 C 28.255213 10.200253 30.405988 14.8923 31.671875 19.539062 C 31.12261 19.082834 30.450124 18.839741 29.769531 18.837891 C 28.997037 18.835791 28.224283 19.125326 27.640625 19.708984 L 20.841797 26.507812 C 19.456926 15.075311 9.1712902 4.7525647 8.703125 4.2890625 C 8.516125 4.1030625 8.264 4 8 4 z M 29.763672 20.824219 C 30.018178 20.824868 30.273281 20.92723 30.472656 21.128906 L 32.492188 23.166016 C 32.492402 23.167264 32.491973 23.168674 32.492188 23.169922 L 32.494141 23.169922 L 38.427734 29.158203 L 38.257812 29.328125 L 30.490234 37.095703 L 29.244141 38.341797 L 21.28125 30.302734 C 21.102505 30.122143 21.016299 29.896763 21 29.667969 L 21 29.529297 C 21.017083 29.299886 21.104768 29.072969 21.285156 28.892578 L 29.054688 21.125 C 29.255029 20.924658 29.509166 20.823569 29.763672 20.824219 z M 39.833984 30.580078 L 47.710938 38.529297 C 48.105626 38.928066 48.104205 39.542273 47.707031 39.939453 L 39.939453 47.707031 L 39.9375 47.707031 C 39.538361 48.10668 38.919935 48.106167 38.521484 47.703125 L 38.519531 47.703125 L 30.652344 39.761719 L 31.904297 38.509766 L 39.671875 30.742188 L 39.833984 30.580078 z" font-weight="400" font-family="sans-serif" white-space="normal" overflow="visible"></path>
</svg>