<svg xmlns="http://www.w3.org/2000/svg" xmlns:xlink="http://www.w3.org/1999/xlink" viewBox="0 0 50 50" version="1.1">
<g id="surface1">
<path style=" " d="M 29.59375 0 C 28.3125 0 27.152344 0.367188 26.125 0.9375 L 20.53125 4 L 16 4 C 14.355469 4 13 5.355469 13 7 C 13 7.207031 13.023438 7.398438 13.0625 7.59375 C 13.0625 7.605469 13.0625 7.613281 13.0625 7.625 C 13.140625 8.023438 13.289063 8.367188 13.5 8.6875 C 13.710938 9.007813 13.996094 9.289063 14.3125 9.5 C 14.628906 9.710938 14.980469 9.859375 15.375 9.9375 C 15.382813 9.941406 15.398438 9.933594 15.40625 9.9375 C 15.59375 9.972656 15.796875 10 16 10 L 20.53125 10 L 26.21875 13.09375 L 26.21875 13.0625 C 27.246094 13.632813 28.394531 14 29.59375 14 L 43 14 C 46.84375 14 50 10.84375 50 7 C 50 3.15625 46.84375 0 43 0 Z M 29.59375 2 L 30 2 L 30 4 L 32 4 L 32 2 L 34 2 L 34 4 L 36 4 L 36 2 L 38 2 L 38 4 L 40 4 L 40 2 L 42 2 L 42 4 L 44 4 L 44 2.09375 C 46.273438 2.5625 48 4.589844 48 7 C 48 9.753906 45.753906 12 43 12 L 29.59375 12 C 28.792969 12 27.960938 11.742188 27.1875 11.3125 L 21.28125 8.125 C 21.191406 8.078125 21.097656 8.046875 21 8.03125 L 21 7 L 15 7 C 15 6.445313 15.445313 6 16 6 L 20.8125 6 C 20.976563 5.996094 21.136719 5.953125 21.28125 5.875 L 27.09375 2.6875 C 27.867188 2.257813 28.675781 2 29.59375 2 Z M 23 6 L 23 8 L 44 8 L 44 6 Z M 3 17 C 1.355469 17 0 18.355469 0 20 L 0 50 L 6 50 L 6 45 L 44 45 L 44 50 L 50 50 L 50 37.15625 C 50.003906 37.105469 50.003906 37.050781 50 37 L 50 31 C 50 28.253906 47.746094 26 45 26 L 19 26 C 18.96875 26 18.9375 26 18.90625 26 C 18.390625 26.046875 17.996094 26.480469 18 27 L 18 36 L 6 36 L 6 20 C 6 18.355469 4.644531 17 3 17 Z M 12 36 C 14.75 36 17 33.75 17 31 C 17 28.25 14.75 26 12 26 C 9.25 26 7 28.25 7 31 C 7 33.75 9.25 36 12 36 Z M 3 19 C 3.554688 19 4 19.445313 4 20 L 4 38 L 48 38 L 48 48 L 46 48 L 46 43 L 4 43 L 4 48 L 2 48 L 2 20 C 2 19.445313 2.445313 19 3 19 Z M 12 28 C 13.667969 28 15 29.332031 15 31 C 15 32.667969 13.667969 34 12 34 C 10.332031 34 9 32.667969 9 31 C 9 29.332031 10.332031 28 12 28 Z M 20 28 L 45 28 C 46.65625 28 48 29.34375 48 31 L 48 36 L 20 36 Z "></path>
</g>
</svg>