<svg xmlns="http://www.w3.org/2000/svg" xmlns:xlink="http://www.w3.org/1999/xlink" viewBox="0 0 50 50" version="1.1">
<g id="surface1">
<path style=" " d="M 27.8125 0 C 27.335938 0.0898438 26.992188 0.511719 27 1 L 27 9 C 27 9.550781 27.449219 10 28 10 L 31 10 L 31 11 L 24 11 L 24 6 C 24 5.449219 23.550781 5 23 5 L 10 5 C 9.96875 5 9.9375 5 9.90625 5 C 9.875 5 9.84375 5 9.8125 5 C 9.335938 5.089844 8.992188 5.511719 9 6 L 9 11 L 7.1875 11 C 6.273438 11 5.410156 11.351563 4.8125 11.96875 C 4.214844 12.585938 3.890625 13.386719 3.71875 14.3125 C 3.71875 14.324219 3.71875 14.332031 3.71875 14.34375 L 0 38.84375 C 0 38.863281 0 38.886719 0 38.90625 C 0 38.917969 0 38.925781 0 38.9375 C 0 38.957031 0 38.980469 0 39 C -0.00390625 39.050781 -0.00390625 39.105469 0 39.15625 L 0 46.5 C 0 48.421875 1.578125 50 3.5 50 L 46.59375 50 C 48.515625 50 50.09375 48.421875 50.09375 46.5 L 50.09375 39 C 50.085938 38.824219 50.03125 38.648438 49.9375 38.5 L 46.28125 14.34375 C 46.28125 14.332031 46.28125 14.324219 46.28125 14.3125 C 46.109375 13.386719 45.785156 12.585938 45.1875 11.96875 C 44.589844 11.351563 43.726563 11 42.8125 11 L 39 11 L 39 10 L 42 10 C 42.550781 10 43 9.550781 43 9 L 43 1 C 43 0.449219 42.550781 0 42 0 L 28 0 C 27.96875 0 27.9375 0 27.90625 0 C 27.875 0 27.84375 0 27.8125 0 Z M 29 2 L 41 2 L 41 8 L 38.21875 8 C 38.117188 7.972656 38.011719 7.960938 37.90625 7.96875 C 37.875 7.976563 37.84375 7.988281 37.8125 8 L 32.21875 8 C 32.117188 7.972656 32.011719 7.960938 31.90625 7.96875 C 31.875 7.976563 31.84375 7.988281 31.8125 8 L 29 8 Z M 11 7 L 22 7 L 22 11.84375 C 22 11.875 22 11.90625 22 11.9375 L 22 23 L 11 23 L 11 12 C 11 11.96875 11 11.9375 11 11.90625 Z M 13 10 L 13 12 L 20 12 L 20 10 Z M 33 10 L 37 10 L 37 11 L 33 11 Z M 7.1875 13 L 9 13 L 9 24 C 9 24.550781 9.449219 25 10 25 L 23 25 C 23.09375 25.003906 23.191406 24.992188 23.28125 24.96875 C 23.347656 24.945313 23.410156 24.914063 23.46875 24.875 C 23.792969 24.703125 23.996094 24.367188 24 24 L 24 13 L 42.8125 13 C 43.296875 13 43.523438 13.109375 43.75 13.34375 C 43.972656 13.570313 44.183594 14.003906 44.3125 14.65625 L 44.3125 14.6875 L 47.8125 38 L 2.1875 38 L 5.6875 14.6875 L 5.6875 14.65625 C 5.816406 14.003906 6.027344 13.570313 6.25 13.34375 C 6.476563 13.109375 6.703125 13 7.1875 13 Z M 13 14 L 13 16 L 20 16 L 20 14 Z M 29.09375 15 C 27.9375 15 27 15.9375 27 17.09375 L 27 20.8125 C 27 22.082031 28.03125 23 29.1875 23 L 41.09375 23 C 41.671875 23 42.246094 22.773438 42.625 22.3125 C 42.976563 21.882813 43.0625 21.242188 42.9375 20.65625 L 43 20.65625 L 42.96875 20.53125 L 42.5 17.09375 L 42.5 16.96875 L 42.4375 16.96875 C 42.355469 15.789063 41.417969 15 40.3125 15 Z M 29.09375 17 L 40.3125 17 C 40.355469 17 40.5 17.160156 40.5 17.09375 C 40.496094 17.136719 40.496094 17.175781 40.5 17.21875 L 41 20.9375 C 41.007813 20.957031 41.019531 20.980469 41.03125 21 L 29.1875 21 C 29.144531 21 29 20.941406 29 20.8125 L 29 17.09375 C 29 17.050781 29.050781 17 29.09375 17 Z M 13 18 L 13 20 L 20 20 L 20 18 Z M 28 25.09375 C 27.5 25.09375 27.09375 25.5 27.09375 26 L 27.09375 28.09375 C 27.09375 28.59375 27.5 29 28 29 L 30.09375 29 C 30.59375 29 31 28.59375 31 28.09375 L 31 26 C 31 25.5 30.59375 25.09375 30.09375 25.09375 Z M 34 25.09375 C 33.5 25.09375 33.09375 25.5 33.09375 26 L 33.09375 28.09375 C 33.09375 28.59375 33.5 29 34 29 L 36.09375 29 C 36.59375 29 37 28.59375 37 28.09375 L 37 26 C 37 25.5 36.59375 25.09375 36.09375 25.09375 Z M 40 25.09375 C 39.5 25.09375 39.09375 25.5 39.09375 26 L 39.09375 28.09375 C 39.09375 28.59375 39.5 29 40 29 L 42.09375 29 C 42.59375 29 43 28.59375 43 28.09375 L 43 26 C 43 25.5 42.59375 25.09375 42.09375 25.09375 Z M 28 31.09375 C 27.5 31.09375 27.09375 31.5 27.09375 32 L 27.09375 34.09375 C 27.09375 34.59375 27.5 35 28 35 L 30.09375 35 C 30.59375 35 31 34.59375 31 34.09375 L 31 32 C 31 31.5 30.59375 31.09375 30.09375 31.09375 Z M 34 31.09375 C 33.5 31.09375 33.09375 31.5 33.09375 32 L 33.09375 34.09375 C 33.09375 34.59375 33.5 35 34 35 L 36.09375 35 C 36.59375 35 37 34.59375 37 34.09375 L 37 32 C 37 31.5 36.59375 31.09375 36.09375 31.09375 Z M 40 31.09375 C 39.5 31.09375 39.09375 31.5 39.09375 32 L 39.09375 34.09375 C 39.09375 34.59375 39.5 35 40 35 L 42.09375 35 C 42.59375 35 43 34.59375 43 34.09375 L 43 32 C 43 31.5 42.59375 31.09375 42.09375 31.09375 Z M 2 40 L 48.09375 40 L 48.09375 46.5 C 48.09375 47.375 47.46875 48 46.59375 48 L 3.5 48 C 2.625 48 2 47.375 2 46.5 Z M 25 42 C 23.894531 42 23 42.894531 23 44 C 23 45.105469 23.894531 46 25 46 C 26.105469 46 27 45.105469 27 44 C 27 42.894531 26.105469 42 25 42 Z "></path>
</g>
</svg>