<svg id="svg" version="1.1" width="400" height="208.33333333333334" viewBox="0 0 400 208.33333333333334" xmlns="http://www.w3.org/2000/svg" xmlns:xlink="http://www.w3.org/1999/xlink" style="display: block;"><g id="svgg"><path id="path0" d="M385.781 123.054 C 385.466 123.108,385.208 123.240,385.208 123.347 C 385.208 123.454,385.076 123.542,384.914 123.542 C 384.236 123.542,382.500 125.792,382.500 126.671 C 382.500 126.884,382.406 127.117,382.292 127.188 C 382.177 127.258,382.083 127.727,382.083 128.229 C 382.083 128.731,382.177 129.200,382.292 129.271 C 382.406 129.342,382.500 129.564,382.500 129.765 C 382.500 130.747,383.535 132.225,384.792 133.039 C 385.778 133.677,389.781 133.974,390.164 133.438 C 390.246 133.323,390.641 133.063,391.042 132.859 C 391.443 132.656,391.958 132.192,392.188 131.828 C 392.417 131.464,392.724 130.974,392.871 130.739 C 393.432 129.841,393.118 126.072,392.398 125.072 C 391.138 123.323,388.646 122.563,385.781 123.054 M388.699 124.709 C 389.044 124.778,389.782 125.253,390.340 125.765 L 391.354 126.696 391.354 128.339 C 391.354 130.110,390.810 131.122,390.330 130.244 C 390.226 130.053,390.078 129.849,390.003 129.792 C 389.927 129.734,389.803 129.547,389.726 129.375 C 389.649 129.203,389.468 128.886,389.324 128.671 C 389.115 128.358,389.115 128.261,389.323 128.185 C 389.484 128.126,389.583 127.690,389.583 127.038 C 389.583 125.571,389.135 125.208,387.322 125.208 C 386.503 125.208,386.037 125.133,386.156 125.020 C 386.548 124.647,387.693 124.507,388.699 124.709 M385.374 129.626 L 385.313 131.146 384.740 130.265 C 383.857 128.906,384.007 127.025,385.104 125.713 C 385.346 125.423,385.471 127.229,385.374 129.626 M387.973 126.719 C 388.122 127.147,387.898 127.500,387.478 127.500 C 387.196 127.500,387.083 127.351,387.083 126.979 C 387.083 126.422,387.796 126.213,387.973 126.719 M388.110 130.052 C 388.447 130.539,388.871 131.104,389.053 131.307 C 389.347 131.634,389.348 131.687,389.067 131.776 C 388.893 131.830,388.593 131.925,388.401 131.987 C 387.925 132.139,386.250 131.872,386.250 131.643 C 386.250 131.541,386.438 131.458,386.667 131.458 C 387.033 131.458,387.083 131.319,387.083 130.313 C 387.083 128.935,387.299 128.880,388.110 130.052 M7.604 138.333 C 7.533 138.448,7.206 138.542,6.876 138.542 C 5.644 138.542,3.910 139.811,3.633 140.916 C 3.557 141.217,3.412 141.514,3.310 141.577 C 3.043 141.742,3.066 191.875,3.333 191.875 C 3.448 191.875,3.542 192.000,3.542 192.153 C 3.542 192.615,4.776 193.565,5.537 193.689 C 5.929 193.752,6.250 193.886,6.250 193.986 C 6.250 194.221,8.274 194.222,8.420 193.986 C 8.481 193.887,8.920 193.754,9.394 193.690 C 11.110 193.460,12.083 191.889,12.083 189.349 C 12.083 188.676,12.170 188.125,12.276 188.125 C 12.383 188.125,12.520 187.352,12.583 186.406 C 12.968 180.554,13.209 177.800,13.342 177.708 C 13.426 177.651,13.564 176.128,13.648 174.323 C 13.732 172.518,13.883 171.042,13.984 171.042 C 14.084 171.042,14.167 170.530,14.167 169.904 C 14.167 167.889,15.554 166.250,17.259 166.250 C 17.607 166.250,17.950 166.156,18.021 166.042 C 18.092 165.927,18.828 165.833,19.658 165.833 C 20.488 165.833,21.256 165.748,21.365 165.644 C 21.473 165.540,23.914 165.388,26.788 165.306 L 32.013 165.157 32.569 165.713 L 33.125 166.269 33.125 177.509 C 33.125 184.864,33.197 188.750,33.333 188.750 C 33.448 188.750,33.542 189.228,33.542 189.812 C 33.542 191.525,34.963 193.750,36.057 193.750 C 36.278 193.750,36.458 193.844,36.458 193.958 C 36.458 194.084,37.313 194.167,38.607 194.167 C 41.036 194.167,42.045 193.830,42.992 192.705 C 43.492 192.110,43.722 191.676,44.346 190.146 C 44.660 189.377,44.688 142.798,44.375 142.604 C 44.260 142.533,44.167 142.247,44.167 141.967 C 44.167 141.687,44.083 141.458,43.981 141.458 C 43.879 141.458,43.732 141.206,43.654 140.897 C 43.373 139.774,41.671 138.542,40.403 138.542 C 40.067 138.542,39.792 138.448,39.792 138.333 C 39.792 138.219,39.422 138.125,38.971 138.125 C 38.519 138.125,38.092 138.219,38.021 138.333 C 37.950 138.448,37.543 138.542,37.117 138.542 C 36.691 138.542,36.111 138.702,35.828 138.897 C 35.091 139.406,34.167 140.349,34.167 140.592 C 34.167 140.705,34.059 140.835,33.927 140.879 C 33.795 140.923,33.648 141.516,33.601 142.198 C 33.553 142.880,33.427 143.625,33.321 143.854 C 33.214 144.083,33.103 147.559,33.074 151.578 C 33.027 158.096,32.983 158.922,32.671 159.234 C 32.355 159.550,31.504 159.583,23.817 159.577 C 15.133 159.570,14.583 159.522,14.583 158.779 C 14.583 158.649,14.490 158.542,14.375 158.542 C 14.240 158.542,14.167 155.729,14.167 150.521 C 14.167 146.096,14.085 142.500,13.985 142.500 C 13.885 142.500,13.743 142.125,13.670 141.667 C 13.597 141.208,13.444 140.833,13.331 140.833 C 13.218 140.833,13.125 140.708,13.125 140.555 C 13.125 139.863,11.112 138.545,10.052 138.543 C 9.680 138.542,9.375 138.448,9.375 138.333 C 9.375 138.219,9.006 138.125,8.554 138.125 C 8.102 138.125,7.675 138.219,7.604 138.333 M75.313 138.333 C 75.242 138.448,75.009 138.542,74.796 138.542 C 74.216 138.542,73.142 139.216,72.995 139.671 C 72.924 139.892,72.686 140.265,72.466 140.501 C 72.247 140.736,72.011 141.165,71.942 141.454 C 71.874 141.743,71.741 142.078,71.647 142.198 C 71.553 142.318,71.414 142.810,71.337 143.292 C 71.260 143.773,71.115 144.167,71.015 144.167 C 70.915 144.167,70.833 144.297,70.833 144.455 C 70.833 144.614,70.693 145.013,70.522 145.341 C 70.351 145.669,70.210 146.148,70.210 146.406 C 70.209 146.664,70.115 146.875,70.000 146.875 C 69.885 146.875,69.792 147.072,69.792 147.312 C 69.792 147.706,69.431 148.696,68.955 149.610 C 68.858 149.796,68.715 150.288,68.637 150.704 C 68.559 151.119,68.412 151.458,68.310 151.458 C 68.208 151.458,68.125 151.655,68.125 151.896 C 68.125 152.293,67.757 153.298,67.278 154.210 C 67.175 154.405,67.031 154.944,66.956 155.408 C 66.882 155.871,66.741 156.250,66.643 156.250 C 66.544 156.250,66.403 156.625,66.330 157.083 C 66.257 157.542,66.115 157.917,66.015 157.917 C 65.915 157.917,65.833 158.099,65.833 158.321 C 65.833 158.543,65.750 158.777,65.649 158.840 C 65.547 158.902,65.403 159.279,65.328 159.676 C 65.254 160.074,65.056 160.661,64.889 160.981 C 64.722 161.301,64.585 161.773,64.585 162.031 C 64.584 162.289,64.490 162.500,64.375 162.500 C 64.260 162.500,64.167 162.734,64.167 163.021 C 64.167 163.307,64.081 163.542,63.977 163.542 C 63.872 163.542,63.723 163.916,63.646 164.374 C 63.569 164.832,63.430 165.252,63.339 165.309 C 63.247 165.366,63.108 165.753,63.030 166.169 C 62.952 166.586,62.809 167.079,62.712 167.265 C 62.283 168.088,61.875 169.151,61.875 169.446 C 61.875 169.623,61.789 169.820,61.685 169.885 C 61.580 169.949,61.428 170.400,61.347 170.887 C 61.265 171.373,61.134 171.818,61.054 171.875 C 60.825 172.039,60.208 173.714,60.208 174.171 C 60.208 174.398,60.125 174.583,60.023 174.583 C 59.921 174.583,59.774 174.923,59.696 175.338 C 59.619 175.753,59.475 176.245,59.378 176.432 C 58.902 177.346,58.542 178.336,58.542 178.729 C 58.542 178.970,58.448 179.167,58.333 179.167 C 58.219 179.167,58.125 179.363,58.125 179.604 C 58.125 179.992,57.774 180.961,57.301 181.882 C 57.210 182.057,57.069 182.509,56.986 182.885 C 56.903 183.262,56.705 183.821,56.544 184.129 C 56.384 184.436,56.252 184.806,56.251 184.951 C 56.251 185.096,56.142 185.424,56.009 185.680 C 55.561 186.546,55.470 186.783,55.319 187.469 C 55.237 187.845,55.038 188.405,54.877 188.712 C 54.717 189.019,54.585 189.482,54.585 189.740 C 54.584 189.997,54.490 190.208,54.375 190.208 C 54.259 190.208,54.167 190.766,54.167 191.466 C 54.167 192.855,54.584 193.750,55.232 193.750 C 55.448 193.750,55.625 193.844,55.625 193.958 C 55.625 194.286,56.946 194.202,57.728 193.825 C 58.669 193.371,59.326 192.609,59.618 191.632 C 59.750 191.193,59.932 190.833,60.024 190.833 C 60.115 190.833,60.251 190.505,60.326 190.104 C 60.401 189.703,60.523 189.375,60.597 189.375 C 60.671 189.375,60.862 189.070,61.020 188.698 C 61.179 188.326,61.483 187.628,61.696 187.147 C 61.909 186.666,62.083 186.174,62.083 186.053 C 62.083 185.932,62.155 185.833,62.243 185.833 C 62.410 185.833,63.125 184.313,63.125 183.957 C 63.125 183.843,63.219 183.750,63.333 183.750 C 63.448 183.750,63.542 183.651,63.542 183.530 C 63.542 183.409,63.732 182.894,63.964 182.384 L 64.385 181.458 74.458 181.458 L 84.530 181.458 84.663 182.292 C 84.737 182.750,84.889 183.125,85.002 183.125 C 85.116 183.125,85.208 183.275,85.208 183.458 C 85.208 183.814,85.825 185.243,86.053 185.417 C 86.128 185.474,86.255 185.872,86.334 186.302 C 86.413 186.732,86.567 187.083,86.676 187.083 C 86.785 187.083,86.876 187.247,86.876 187.448 C 86.877 187.648,87.018 188.081,87.189 188.409 C 87.360 188.737,87.500 189.136,87.500 189.295 C 87.500 189.453,87.594 189.583,87.708 189.583 C 87.823 189.583,87.917 189.729,87.917 189.907 C 87.917 190.775,88.840 192.229,90.027 193.229 C 90.632 193.740,96.242 193.877,96.406 193.385 C 96.454 193.242,96.602 193.122,96.736 193.118 C 97.368 193.100,98.750 191.274,98.750 190.456 C 98.750 190.219,98.844 189.967,98.958 189.896 C 99.216 189.737,99.238 187.500,98.982 187.500 C 98.880 187.500,98.734 187.078,98.657 186.563 C 98.579 186.047,98.439 185.625,98.344 185.625 C 98.249 185.625,98.110 185.297,98.035 184.896 C 97.959 184.495,97.808 184.167,97.699 184.167 C 97.590 184.167,97.500 184.040,97.500 183.886 C 97.500 183.633,97.128 182.717,96.680 181.868 C 96.587 181.693,96.445 181.247,96.364 180.879 C 96.283 180.510,96.131 180.208,96.025 180.208 C 95.920 180.208,95.833 179.974,95.833 179.688 C 95.833 179.401,95.760 179.167,95.670 179.167 C 95.579 179.167,95.278 178.510,95.000 177.708 C 94.722 176.906,94.421 176.250,94.330 176.250 C 94.240 176.250,94.167 176.016,94.167 175.729 C 94.167 175.443,94.077 175.208,93.968 175.208 C 93.858 175.208,93.707 174.880,93.632 174.479 C 93.557 174.078,93.412 173.750,93.310 173.750 C 93.208 173.750,93.124 173.586,93.124 173.385 C 93.123 173.185,92.982 172.752,92.811 172.424 C 92.640 172.096,92.500 171.697,92.500 171.539 C 92.500 171.380,92.417 171.250,92.315 171.250 C 92.213 171.250,92.068 170.922,91.993 170.521 C 91.918 170.120,91.767 169.792,91.657 169.792 C 91.548 169.792,91.458 169.628,91.457 169.427 C 91.456 169.227,91.316 168.794,91.145 168.466 C 90.973 168.138,90.833 167.739,90.833 167.580 C 90.833 167.422,90.750 167.292,90.648 167.292 C 90.546 167.292,90.401 166.964,90.326 166.563 C 90.251 166.161,90.100 165.833,89.991 165.833 C 89.881 165.833,89.792 165.617,89.792 165.352 C 89.792 165.088,89.654 164.689,89.486 164.467 C 89.318 164.244,89.177 163.898,89.173 163.698 C 89.170 163.497,89.083 163.333,88.982 163.333 C 88.880 163.333,88.735 163.005,88.660 162.604 C 88.584 162.203,88.445 161.875,88.351 161.875 C 88.256 161.875,88.118 161.500,88.045 161.042 C 87.972 160.583,87.842 160.208,87.757 160.208 C 87.577 160.208,87.168 159.318,86.968 158.490 C 86.892 158.174,86.758 157.917,86.671 157.917 C 86.583 157.917,86.452 157.542,86.378 157.083 C 86.305 156.625,86.152 156.250,86.039 156.250 C 85.926 156.250,85.833 156.063,85.833 155.833 C 85.833 155.604,85.740 155.417,85.625 155.417 C 85.510 155.417,85.416 155.253,85.415 155.052 C 85.415 154.852,85.274 154.419,85.103 154.091 C 84.932 153.763,84.792 153.412,84.792 153.311 C 84.792 152.994,84.075 151.458,83.927 151.458 C 83.850 151.458,83.723 151.083,83.646 150.625 C 83.568 150.167,83.420 149.792,83.315 149.792 C 83.211 149.792,83.125 149.642,83.125 149.459 C 83.125 149.103,82.509 147.674,82.280 147.500 C 82.205 147.443,82.079 147.044,82.000 146.615 C 81.921 146.185,81.767 145.833,81.657 145.833 C 81.548 145.833,81.458 145.683,81.458 145.500 C 81.458 145.144,80.842 143.715,80.614 143.542 C 80.538 143.484,80.412 143.086,80.333 142.656 C 80.254 142.227,80.110 141.875,80.013 141.875 C 79.916 141.875,79.774 141.623,79.697 141.316 C 79.456 140.356,77.886 138.542,77.297 138.542 C 77.078 138.542,76.842 138.448,76.771 138.333 C 76.700 138.219,76.372 138.125,76.042 138.125 C 75.711 138.125,75.383 138.219,75.313 138.333 M161.563 138.333 C 161.492 138.448,161.097 138.542,160.684 138.542 C 159.866 138.542,158.542 139.385,158.542 139.906 C 158.542 140.072,158.448 140.208,158.333 140.208 C 158.196 140.208,158.125 148.888,158.125 165.831 L 158.125 191.453 158.698 192.281 C 159.013 192.736,159.348 193.113,159.442 193.117 C 159.536 193.121,159.754 193.266,159.926 193.438 C 160.097 193.609,160.460 193.750,160.732 193.750 C 161.003 193.750,161.283 193.844,161.354 193.958 C 161.516 194.220,190.134 194.247,190.296 193.986 C 190.357 193.886,190.785 193.744,191.245 193.671 C 191.706 193.597,192.083 193.444,192.083 193.331 C 192.083 193.218,192.221 193.125,192.388 193.125 C 192.556 193.125,192.931 192.775,193.222 192.347 C 194.140 190.996,193.813 187.500,192.768 187.500 C 192.620 187.500,192.500 187.413,192.500 187.306 C 192.500 187.199,192.289 187.046,192.031 186.965 C 191.773 186.885,191.496 186.714,191.414 186.587 C 191.309 186.422,188.054 186.336,180.216 186.292 L 169.167 186.230 169.167 178.417 C 169.167 170.136,169.184 169.971,170.178 168.963 C 170.585 168.551,171.909 167.917,172.363 167.917 C 172.539 167.917,172.742 167.823,172.813 167.708 C 172.883 167.594,173.358 167.500,173.866 167.500 C 174.375 167.500,174.792 167.422,174.792 167.328 C 174.792 167.233,175.706 167.049,176.823 166.920 C 180.720 166.469,182.887 166.145,183.040 165.990 C 183.125 165.904,183.648 165.833,184.201 165.833 C 184.755 165.833,185.208 165.752,185.208 165.652 C 185.208 165.553,185.573 165.423,186.018 165.363 C 187.002 165.231,188.125 164.298,188.125 163.611 C 188.125 163.344,188.219 163.125,188.333 163.125 C 188.448 163.125,188.542 162.896,188.542 162.616 C 188.542 162.337,188.448 162.050,188.333 161.979 C 188.219 161.908,188.125 161.636,188.125 161.374 C 188.125 160.889,187.547 160.208,187.136 160.208 C 187.012 160.208,186.871 160.091,186.823 159.948 C 186.756 159.747,184.888 159.674,178.629 159.630 C 170.489 159.572,169.583 159.491,169.583 158.819 C 169.583 158.666,169.490 158.542,169.375 158.542 C 169.242 158.542,169.167 156.736,169.167 153.542 C 169.167 150.347,169.091 148.542,168.958 148.542 C 168.844 148.542,168.750 148.322,168.750 148.053 C 168.750 147.785,168.516 147.292,168.230 146.959 L 167.710 146.354 178.378 146.300 C 185.071 146.266,189.122 146.169,189.252 146.040 C 189.365 145.926,189.674 145.833,189.938 145.833 C 190.201 145.833,190.417 145.740,190.417 145.625 C 190.417 145.510,190.551 145.417,190.714 145.417 C 191.181 145.417,192.500 144.061,192.500 143.581 C 192.500 143.344,192.603 143.086,192.728 143.009 C 192.949 142.872,192.908 142.271,192.588 140.938 C 192.505 140.594,192.382 140.266,192.313 140.208 C 192.244 140.151,192.089 139.925,191.968 139.706 C 191.647 139.122,190.433 138.542,189.535 138.542 C 189.103 138.542,188.750 138.448,188.750 138.333 C 188.750 138.197,184.101 138.125,175.221 138.125 C 166.426 138.125,161.646 138.198,161.563 138.333 M209.688 138.333 C 209.617 138.448,209.289 138.542,208.960 138.542 C 207.877 138.542,205.833 139.874,205.833 140.580 C 205.833 140.700,205.716 140.838,205.573 140.885 C 205.141 141.029,205.087 191.515,205.518 191.946 C 205.691 192.120,205.833 192.322,205.833 192.396 C 205.833 192.570,206.389 193.125,206.563 193.125 C 206.636 193.125,206.837 193.266,207.009 193.438 C 207.181 193.609,207.549 193.750,207.827 193.750 C 208.106 193.750,208.333 193.844,208.333 193.958 C 208.333 194.221,234.717 194.248,234.879 193.985 C 234.941 193.885,235.281 193.746,235.634 193.675 C 236.357 193.531,237.272 192.689,237.659 191.813 C 237.968 191.115,238.006 188.542,237.708 188.542 C 237.594 188.542,237.500 188.447,237.500 188.332 C 237.500 188.015,236.427 186.875,236.129 186.875 C 235.985 186.875,235.829 186.758,235.781 186.615 C 235.714 186.412,233.334 186.341,225.039 186.293 L 214.383 186.232 214.639 185.780 C 214.780 185.532,215.013 185.201,215.156 185.045 C 215.299 184.889,215.417 184.534,215.417 184.256 C 215.417 183.978,215.504 183.750,215.610 183.750 C 216.089 183.750,216.519 142.894,216.045 142.420 C 215.929 142.304,215.833 141.993,215.833 141.729 C 215.833 141.466,215.740 141.250,215.625 141.250 C 215.510 141.250,215.417 141.116,215.417 140.952 C 215.417 140.135,213.321 138.542,212.245 138.542 C 211.812 138.542,211.458 138.448,211.458 138.333 C 211.458 138.219,211.089 138.125,210.637 138.125 C 210.186 138.125,209.758 138.219,209.688 138.333 M304.375 138.333 C 304.203 138.444,303.875 138.538,303.646 138.542 C 303.184 138.549,301.875 139.609,301.875 139.975 C 301.875 140.103,301.783 140.208,301.671 140.208 C 301.558 140.208,301.407 140.443,301.336 140.729 C 301.264 141.016,301.121 141.250,301.019 141.250 C 300.917 141.250,300.833 141.427,300.833 141.643 C 300.833 141.859,300.693 142.304,300.522 142.632 C 300.351 142.961,300.210 143.440,300.210 143.698 C 300.209 143.956,300.115 144.167,300.000 144.167 C 299.885 144.167,299.792 144.363,299.792 144.604 C 299.792 144.992,299.441 145.961,298.967 146.882 C 298.877 147.057,298.735 147.509,298.653 147.885 C 298.570 148.262,298.371 148.821,298.211 149.129 C 298.050 149.436,297.919 149.806,297.918 149.951 C 297.917 150.096,297.823 150.400,297.708 150.628 C 297.202 151.633,297.128 151.822,296.986 152.469 C 296.903 152.845,296.705 153.405,296.544 153.712 C 296.384 154.019,296.252 154.482,296.251 154.740 C 296.251 154.997,296.156 155.208,296.042 155.208 C 295.927 155.208,295.833 155.443,295.833 155.729 C 295.833 156.016,295.748 156.250,295.643 156.250 C 295.539 156.250,295.390 156.625,295.313 157.083 C 295.235 157.542,295.097 157.917,295.005 157.917 C 294.914 157.917,294.776 158.339,294.698 158.854 C 294.621 159.370,294.470 159.792,294.362 159.792 C 294.255 159.792,294.167 160.026,294.167 160.313 C 294.167 160.599,294.081 160.833,293.977 160.833 C 293.872 160.833,293.723 161.208,293.646 161.667 C 293.568 162.125,293.428 162.500,293.335 162.500 C 293.241 162.500,293.100 162.969,293.021 163.542 C 292.942 164.115,292.808 164.583,292.723 164.583 C 292.637 164.583,292.392 165.122,292.178 165.781 C 291.963 166.440,291.724 167.073,291.647 167.188 C 291.570 167.302,291.437 167.724,291.352 168.125 C 291.267 168.526,291.138 168.901,291.066 168.958 C 290.871 169.113,290.206 171.088,290.207 171.510 C 290.208 171.711,290.123 171.875,290.018 171.875 C 289.914 171.875,289.765 172.250,289.688 172.708 C 289.610 173.167,289.461 173.542,289.357 173.542 C 289.252 173.542,289.167 173.718,289.167 173.935 C 289.167 174.151,289.027 174.596,288.855 174.924 C 288.684 175.252,288.544 175.732,288.543 175.990 C 288.542 176.247,288.456 176.458,288.352 176.458 C 288.247 176.458,288.098 176.833,288.021 177.292 C 287.943 177.750,287.795 178.125,287.690 178.125 C 287.586 178.125,287.500 178.354,287.500 178.634 C 287.500 178.913,287.406 179.200,287.292 179.271 C 287.177 179.342,287.083 179.558,287.082 179.752 C 287.081 179.946,286.940 180.374,286.768 180.705 C 286.595 181.035,286.396 181.668,286.326 182.111 C 286.255 182.554,286.115 182.917,286.015 182.917 C 285.915 182.917,285.833 183.047,285.833 183.205 C 285.833 183.364,285.693 183.763,285.522 184.091 C 285.351 184.419,285.210 184.898,285.210 185.156 C 285.209 185.414,285.120 185.625,285.013 185.625 C 284.905 185.625,284.754 186.047,284.677 186.563 C 284.599 187.078,284.453 187.500,284.351 187.500 C 284.250 187.500,284.167 187.630,284.167 187.789 C 284.167 187.947,284.027 188.346,283.855 188.674 C 283.684 189.002,283.544 189.482,283.543 189.740 C 283.542 189.997,283.448 190.208,283.333 190.208 C 283.216 190.208,283.125 190.799,283.125 191.563 C 283.125 192.307,283.208 192.917,283.309 192.917 C 283.410 192.917,283.542 193.104,283.602 193.333 C 283.667 193.583,283.886 193.750,284.147 193.750 C 284.387 193.750,284.583 193.844,284.583 193.958 C 284.583 194.311,285.917 194.189,286.820 193.753 C 287.789 193.285,288.421 192.504,288.636 191.510 C 288.717 191.138,288.847 190.833,288.926 190.833 C 289.081 190.833,289.792 189.293,289.792 188.957 C 289.792 188.843,289.878 188.750,289.983 188.750 C 290.089 188.750,290.237 188.470,290.312 188.127 C 290.387 187.785,290.535 187.451,290.641 187.386 C 290.747 187.321,290.833 187.085,290.833 186.863 C 290.833 186.640,290.920 186.458,291.025 186.458 C 291.131 186.458,291.279 186.177,291.354 185.833 C 291.430 185.490,291.573 185.208,291.674 185.208 C 291.774 185.208,291.918 184.880,291.993 184.479 C 292.068 184.078,292.190 183.749,292.263 183.748 C 292.392 183.745,292.969 182.565,293.205 181.823 C 293.313 181.482,293.983 181.458,303.404 181.458 L 313.488 181.458 313.622 182.292 C 313.695 182.750,313.848 183.125,313.961 183.125 C 314.074 183.125,314.167 183.307,314.167 183.529 C 314.167 183.752,314.253 183.987,314.359 184.053 C 314.465 184.118,314.613 184.452,314.688 184.794 C 314.763 185.136,314.899 185.417,314.990 185.417 C 315.081 185.417,315.215 185.792,315.288 186.250 C 315.362 186.708,315.514 187.083,315.627 187.083 C 315.741 187.083,315.833 187.271,315.833 187.500 C 315.833 187.729,315.927 187.917,316.042 187.917 C 316.156 187.917,316.251 188.081,316.251 188.281 C 316.252 188.482,316.393 188.914,316.564 189.243 C 316.735 189.571,316.875 189.932,316.875 190.044 C 316.875 190.566,317.663 191.857,318.501 192.708 L 319.424 193.646 322.351 193.646 C 324.507 193.646,325.300 193.577,325.364 193.385 C 325.412 193.242,325.583 193.125,325.745 193.125 C 327.252 193.125,328.911 187.785,327.760 186.635 C 327.617 186.492,327.500 186.206,327.500 186.000 C 327.500 185.794,327.406 185.625,327.292 185.625 C 327.177 185.625,327.083 185.461,327.082 185.260 C 327.081 185.060,326.950 184.644,326.789 184.337 C 326.629 184.030,326.434 183.491,326.357 183.139 C 326.280 182.788,326.131 182.500,326.025 182.500 C 325.920 182.500,325.833 182.374,325.833 182.220 C 325.833 181.967,325.461 181.050,325.013 180.201 C 324.920 180.026,324.778 179.581,324.697 179.212 C 324.616 178.843,324.464 178.542,324.358 178.542 C 324.253 178.542,324.167 178.360,324.167 178.137 C 324.167 177.915,324.080 177.679,323.974 177.614 C 323.869 177.549,323.721 177.215,323.645 176.873 C 323.570 176.530,323.434 176.250,323.343 176.250 C 323.253 176.250,323.118 175.875,323.045 175.417 C 322.972 174.958,322.819 174.583,322.706 174.583 C 322.593 174.583,322.500 174.457,322.500 174.303 C 322.500 174.042,322.106 173.082,321.653 172.242 C 321.546 172.043,321.456 171.762,321.454 171.617 C 321.451 171.473,321.172 170.792,320.833 170.104 C 320.495 169.417,320.216 168.690,320.213 168.490 C 320.210 168.289,320.115 168.125,320.000 168.125 C 319.885 168.125,319.791 167.961,319.791 167.760 C 319.790 167.560,319.563 166.948,319.286 166.402 C 319.008 165.855,318.720 165.128,318.645 164.787 C 318.570 164.446,318.422 164.167,318.317 164.167 C 318.211 164.167,318.125 164.017,318.125 163.834 C 318.125 163.478,317.509 162.049,317.280 161.875 C 317.205 161.818,317.079 161.419,317.000 160.990 C 316.921 160.560,316.767 160.208,316.657 160.208 C 316.548 160.208,316.458 160.058,316.458 159.875 C 316.458 159.519,315.842 158.090,315.614 157.917 C 315.538 157.859,315.412 157.461,315.333 157.031 C 315.254 156.602,315.100 156.250,314.991 156.250 C 314.881 156.250,314.791 156.086,314.790 155.885 C 314.790 155.685,314.649 155.252,314.478 154.924 C 314.307 154.596,314.167 154.197,314.167 154.039 C 314.167 153.880,314.073 153.750,313.958 153.750 C 313.844 153.750,313.750 153.604,313.750 153.426 C 313.750 153.118,313.130 151.556,312.701 150.784 C 312.590 150.585,312.500 150.280,312.500 150.107 C 312.500 149.934,312.414 149.792,312.310 149.792 C 312.205 149.792,312.057 149.417,311.979 148.958 C 311.902 148.500,311.772 148.125,311.691 148.125 C 311.611 148.125,311.369 147.609,311.155 146.979 C 310.941 146.349,310.695 145.833,310.609 145.833 C 310.524 145.833,310.390 145.458,310.313 145.000 C 310.235 144.542,310.106 144.167,310.025 144.167 C 309.944 144.167,309.703 143.651,309.488 143.021 C 309.274 142.391,309.020 141.875,308.924 141.875 C 308.829 141.875,308.750 141.756,308.750 141.611 C 308.750 140.707,306.971 138.542,306.228 138.542 C 306.011 138.542,305.833 138.448,305.833 138.333 C 305.833 138.067,304.786 138.067,304.375 138.333 M338.542 138.333 C 338.542 138.448,338.326 138.542,338.062 138.542 C 337.456 138.542,336.250 139.762,336.250 140.375 C 336.250 140.627,336.156 140.833,336.042 140.833 C 335.764 140.833,335.753 189.650,336.030 190.159 C 336.139 190.358,336.283 190.872,336.352 191.302 C 336.421 191.732,336.552 192.083,336.643 192.083 C 336.734 192.083,336.915 192.318,337.045 192.604 C 337.176 192.891,337.415 193.125,337.577 193.125 C 337.739 193.125,337.926 193.266,337.992 193.438 C 338.058 193.609,338.302 193.750,338.535 193.750 C 338.768 193.750,338.958 193.844,338.958 193.958 C 338.958 194.085,339.896 194.167,341.354 194.167 C 342.813 194.167,343.750 194.085,343.750 193.958 C 343.750 193.844,343.887 193.750,344.055 193.750 C 344.482 193.750,346.159 192.074,346.353 191.453 C 346.442 191.169,346.619 190.871,346.747 190.789 C 346.913 190.683,346.998 186.503,347.045 176.101 L 347.110 161.563 347.647 161.166 C 348.397 160.612,349.278 161.103,350.075 162.521 C 350.400 163.098,350.797 163.621,350.958 163.682 C 351.118 163.744,351.250 163.918,351.250 164.070 C 351.250 164.221,351.372 164.469,351.522 164.621 C 351.672 164.772,351.973 165.201,352.192 165.573 C 352.411 165.945,352.663 166.250,352.753 166.250 C 352.843 166.250,352.917 166.386,352.917 166.552 C 352.917 166.718,353.041 166.929,353.193 167.021 C 353.346 167.113,353.647 167.492,353.863 167.865 C 354.080 168.237,354.330 168.542,354.420 168.542 C 354.510 168.542,354.583 168.641,354.583 168.762 C 354.583 168.998,355.833 170.683,356.094 170.799 C 356.180 170.837,356.250 170.987,356.250 171.133 C 356.250 171.278,356.461 171.631,356.719 171.917 C 357.479 172.759,358.125 173.620,358.125 173.793 C 358.125 173.957,358.492 174.441,359.323 175.370 C 359.581 175.658,359.792 176.013,359.792 176.159 C 359.792 176.304,359.862 176.455,359.948 176.493 C 360.209 176.609,361.458 178.294,361.458 178.529 C 361.458 178.651,361.532 178.750,361.622 178.750 C 361.712 178.750,361.962 179.055,362.178 179.427 C 362.395 179.799,362.696 180.179,362.848 180.271 C 363.000 180.362,363.125 180.533,363.125 180.650 C 363.125 180.767,363.242 180.994,363.385 181.153 C 364.004 181.843,364.167 182.079,364.167 182.283 C 364.167 182.402,364.237 182.503,364.323 182.506 C 364.409 182.509,364.709 182.884,364.990 183.339 C 365.271 183.794,365.575 184.167,365.667 184.167 C 365.758 184.167,365.833 184.299,365.833 184.462 C 365.833 184.624,365.908 184.788,365.998 184.826 C 366.089 184.865,366.378 185.247,366.640 185.677 C 366.903 186.107,367.203 186.458,367.309 186.458 C 367.414 186.458,367.500 186.591,367.500 186.753 C 367.500 186.916,367.574 187.080,367.665 187.118 C 367.756 187.156,368.045 187.539,368.307 187.969 C 368.569 188.398,368.870 188.750,368.975 188.750 C 369.081 188.750,369.167 188.850,369.167 188.973 C 369.167 189.096,369.284 189.327,369.427 189.487 C 370.022 190.150,370.595 191.021,370.760 191.510 C 370.827 191.711,370.959 191.875,371.054 191.875 C 371.149 191.875,371.393 192.156,371.596 192.500 C 371.799 192.844,372.045 193.125,372.143 193.125 C 372.241 193.125,372.462 193.266,372.634 193.438 C 372.806 193.609,373.174 193.750,373.452 193.750 C 373.731 193.750,373.958 193.844,373.958 193.958 C 373.958 194.073,374.380 194.167,374.896 194.167 C 375.411 194.167,375.833 194.085,375.833 193.986 C 375.833 193.886,376.163 193.751,376.566 193.686 C 377.002 193.615,377.572 193.294,377.972 192.893 L 378.646 192.220 378.646 166.804 C 378.646 146.657,378.592 141.371,378.385 141.302 C 378.242 141.254,378.125 141.091,378.125 140.938 C 378.125 140.159,375.827 138.542,374.720 138.542 C 374.429 138.542,374.133 138.448,374.063 138.333 C 373.992 138.219,373.564 138.125,373.113 138.125 C 372.661 138.125,372.292 138.219,372.292 138.333 C 372.292 138.448,371.954 138.542,371.542 138.542 C 369.949 138.542,368.236 139.974,367.988 141.515 C 367.919 141.947,367.781 142.351,367.681 142.413 C 367.581 142.474,367.500 149.120,367.500 157.200 C 367.500 171.788,367.498 171.875,367.079 171.875 C 366.832 171.875,366.560 171.660,366.420 171.354 C 366.290 171.068,366.104 170.833,366.008 170.833 C 365.912 170.833,365.833 170.727,365.833 170.597 C 365.833 170.467,365.599 170.143,365.313 169.878 C 365.026 169.612,364.792 169.311,364.792 169.209 C 364.792 169.107,364.557 168.751,364.270 168.418 C 363.982 168.085,363.695 167.648,363.631 167.448 C 363.566 167.247,363.426 167.083,363.319 167.083 C 363.212 167.083,363.125 166.940,363.125 166.764 C 363.125 166.589,362.996 166.396,362.839 166.335 C 362.681 166.275,362.379 165.903,362.166 165.509 C 361.954 165.114,361.708 164.792,361.619 164.792 C 361.531 164.792,361.458 164.658,361.458 164.494 C 361.458 164.331,361.224 164.013,360.938 163.787 C 360.651 163.562,360.417 163.293,360.417 163.189 C 360.417 162.974,359.895 162.245,359.235 161.539 C 358.986 161.273,358.722 160.865,358.648 160.632 C 358.574 160.399,358.432 160.208,358.333 160.208 C 358.234 160.208,358.100 160.044,358.036 159.844 C 357.972 159.643,357.686 159.198,357.401 158.854 C 357.116 158.510,356.800 158.130,356.699 158.008 C 356.598 157.886,356.409 157.589,356.280 157.347 C 356.150 157.105,355.927 156.782,355.783 156.628 C 355.639 156.474,355.198 155.881,354.802 155.310 C 354.407 154.738,354.032 154.224,353.969 154.167 C 353.906 154.109,353.531 153.594,353.136 153.021 C 352.741 152.448,352.361 151.932,352.291 151.875 C 352.222 151.818,351.966 151.443,351.722 151.042 C 351.477 150.641,351.104 150.125,350.893 149.896 C 350.681 149.667,350.292 149.128,350.028 148.698 C 349.765 148.268,349.463 147.917,349.358 147.917 C 349.253 147.917,349.167 147.818,349.167 147.697 C 349.167 147.443,346.891 144.305,346.632 144.201 C 346.536 144.163,346.458 144.049,346.458 143.947 C 346.458 143.693,345.163 141.875,344.982 141.875 C 344.902 141.875,344.780 141.650,344.711 141.374 C 344.529 140.650,342.438 138.542,341.902 138.542 C 341.658 138.542,341.458 138.448,341.458 138.333 C 341.458 138.214,340.833 138.125,340.000 138.125 C 339.167 138.125,338.542 138.214,338.542 138.333 M250.260 138.692 C 249.888 138.739,249.583 138.864,249.583 138.972 C 249.583 139.079,249.354 139.167,249.075 139.167 C 248.795 139.167,248.515 139.250,248.452 139.351 C 248.389 139.453,248.009 139.598,247.606 139.673 C 247.204 139.749,246.875 139.890,246.875 139.987 C 246.875 140.084,246.641 140.222,246.354 140.294 C 246.068 140.366,245.833 140.517,245.833 140.629 C 245.833 140.741,245.727 140.833,245.597 140.833 C 245.396 140.833,243.482 142.711,242.802 143.576 C 242.351 144.150,241.250 146.613,241.250 147.048 C 241.250 147.296,241.156 147.500,241.042 147.500 C 240.927 147.500,240.833 147.809,240.833 148.188 C 240.833 148.566,240.716 148.992,240.573 149.135 C 240.377 149.331,240.313 150.794,240.313 155.000 C 240.313 159.206,240.377 160.669,240.573 160.865 C 240.716 161.008,240.833 161.434,240.833 161.813 C 240.833 162.191,240.927 162.500,241.042 162.500 C 241.156 162.500,241.250 162.697,241.250 162.937 C 241.250 163.588,242.460 166.250,242.756 166.250 C 242.844 166.250,242.917 166.359,242.917 166.493 C 242.917 166.796,245.304 169.167,245.610 169.167 C 245.733 169.167,245.833 169.259,245.833 169.371 C 245.833 169.483,246.068 169.634,246.354 169.706 C 246.641 169.778,246.875 169.919,246.875 170.020 C 246.875 170.121,247.250 170.263,247.708 170.337 C 248.167 170.410,248.542 170.552,248.542 170.652 C 248.542 170.752,248.757 170.833,249.021 170.833 C 249.284 170.833,249.617 170.951,249.760 171.094 C 249.955 171.289,251.685 171.369,256.625 171.413 C 260.257 171.446,263.417 171.556,263.646 171.657 C 263.875 171.759,264.531 171.898,265.104 171.965 C 265.677 172.033,266.177 172.182,266.215 172.295 C 266.253 172.408,266.371 172.500,266.476 172.500 C 267.283 172.500,269.167 175.420,269.167 176.672 C 269.167 176.999,269.260 177.325,269.375 177.396 C 269.490 177.467,269.583 177.894,269.583 178.346 C 269.583 178.797,269.490 179.167,269.375 179.167 C 269.260 179.167,269.167 179.630,269.167 180.196 C 269.167 180.762,269.084 181.277,268.982 181.340 C 268.880 181.402,268.735 181.783,268.660 182.185 C 268.585 182.588,268.433 182.917,268.324 182.917 C 268.215 182.917,268.125 183.036,268.125 183.183 C 268.125 183.482,267.398 184.167,267.081 184.167 C 266.968 184.167,266.875 184.259,266.875 184.371 C 266.875 184.483,266.641 184.634,266.354 184.706 C 266.068 184.778,265.833 184.919,265.833 185.020 C 265.833 185.121,265.456 185.264,264.995 185.337 C 264.535 185.411,264.107 185.553,264.046 185.652 C 263.984 185.752,263.096 185.833,262.071 185.833 C 261.047 185.833,260.208 185.916,260.208 186.016 C 260.208 186.117,258.263 186.267,255.885 186.351 C 253.508 186.434,251.469 186.574,251.354 186.662 C 251.240 186.750,249.458 186.888,247.396 186.968 C 245.333 187.049,243.615 187.201,243.576 187.307 C 243.538 187.413,243.276 187.500,242.995 187.500 C 242.150 187.500,241.104 188.544,240.674 189.818 C 240.171 191.305,241.286 193.750,242.467 193.750 C 242.701 193.750,242.950 193.844,243.021 193.958 C 243.182 194.219,267.083 194.248,267.083 193.988 C 267.083 193.890,267.669 193.748,268.385 193.673 C 269.102 193.599,269.719 193.445,269.757 193.331 C 269.795 193.218,269.956 193.125,270.114 193.125 C 270.524 193.125,271.875 192.456,271.875 192.253 C 271.875 192.160,271.992 192.083,272.135 192.082 C 272.361 192.082,272.938 191.591,273.903 190.582 C 274.045 190.434,274.443 190.031,274.788 189.688 C 275.134 189.344,275.416 188.945,275.416 188.802 C 275.417 188.659,275.494 188.542,275.589 188.542 C 275.817 188.542,277.083 186.014,277.083 185.560 C 277.083 185.367,277.177 185.208,277.292 185.208 C 277.406 185.208,277.500 184.979,277.500 184.700 C 277.500 184.420,277.585 184.139,277.688 184.075 C 277.791 184.011,277.942 183.373,278.024 182.657 C 278.105 181.940,278.277 181.224,278.406 181.065 C 278.754 180.635,278.736 171.152,278.385 170.802 C 278.242 170.659,278.125 170.303,278.126 170.010 C 278.127 169.357,277.480 167.500,277.251 167.500 C 277.159 167.500,277.083 167.367,277.083 167.205 C 277.083 166.729,276.034 164.775,275.712 164.652 C 275.549 164.590,275.417 164.411,275.417 164.254 C 275.417 163.859,273.124 161.552,272.551 161.370 C 272.294 161.289,272.083 161.134,272.083 161.028 C 272.083 160.921,271.943 160.833,271.771 160.833 C 271.599 160.833,271.458 160.740,271.458 160.625 C 271.458 160.510,271.341 160.416,271.198 160.415 C 271.055 160.415,270.667 160.273,270.337 160.101 C 270.007 159.929,269.351 159.729,268.879 159.657 C 268.407 159.585,267.921 159.448,267.798 159.353 C 267.676 159.257,264.770 159.144,261.340 159.101 C 250.857 158.971,249.688 158.337,249.688 152.793 C 249.688 149.738,249.784 149.417,251.143 147.958 C 252.702 146.284,252.218 146.362,261.561 146.293 C 266.495 146.257,269.975 146.150,270.092 146.033 C 270.202 145.923,270.601 145.833,270.979 145.833 C 271.357 145.833,271.667 145.760,271.667 145.671 C 271.667 145.581,271.948 145.402,272.291 145.272 C 272.635 145.143,272.979 144.864,273.057 144.654 C 273.135 144.443,273.289 144.210,273.400 144.136 C 273.747 143.904,273.662 141.195,273.284 140.405 C 272.922 139.651,272.128 138.947,271.381 138.719 C 270.909 138.575,251.406 138.550,250.260 138.692 M75.399 160.275 C 75.638 160.769,75.833 161.284,75.833 161.420 C 75.833 161.556,75.917 161.667,76.018 161.667 C 76.120 161.667,76.265 161.995,76.340 162.396 C 76.416 162.797,76.555 163.125,76.649 163.125 C 76.744 163.125,76.882 163.500,76.955 163.958 C 77.028 164.417,77.181 164.792,77.294 164.792 C 77.407 164.792,77.500 164.974,77.500 165.196 C 77.500 165.418,77.587 165.654,77.692 165.719 C 77.798 165.785,77.946 166.118,78.021 166.461 C 78.097 166.803,78.232 167.083,78.323 167.083 C 78.414 167.083,78.548 167.458,78.622 167.917 C 78.695 168.375,78.848 168.750,78.961 168.750 C 79.074 168.750,79.167 168.892,79.167 169.065 C 79.167 169.239,79.257 169.543,79.368 169.742 C 79.478 169.941,79.766 170.573,80.008 171.146 C 80.818 173.069,81.425 174.183,82.055 174.908 L 82.497 175.417 74.790 175.417 C 69.791 175.417,67.083 175.343,67.083 175.208 C 67.083 175.094,67.177 175.000,67.292 175.000 C 67.406 175.000,67.500 174.813,67.500 174.583 C 67.500 174.354,67.594 174.167,67.708 174.167 C 67.823 174.167,67.920 174.049,67.924 173.906 C 67.928 173.763,68.112 173.271,68.333 172.813 C 68.555 172.354,68.739 171.862,68.743 171.719 C 68.747 171.576,68.829 171.458,68.924 171.458 C 69.020 171.458,69.274 170.943,69.488 170.313 C 69.703 169.682,69.952 169.167,70.043 169.167 C 70.134 169.167,70.208 169.055,70.208 168.919 C 70.208 168.782,70.481 168.103,70.813 167.408 C 71.709 165.540,72.083 164.652,72.083 164.396 C 72.083 164.270,72.155 164.167,72.243 164.167 C 72.410 164.167,73.125 162.646,73.125 162.290 C 73.125 162.176,73.211 162.083,73.315 162.083 C 73.420 162.083,73.568 161.708,73.646 161.250 C 73.723 160.792,73.872 160.417,73.977 160.417 C 74.081 160.417,74.167 160.276,74.167 160.104 C 74.167 159.932,74.260 159.792,74.375 159.792 C 74.490 159.792,74.583 159.646,74.583 159.467 C 74.583 158.957,74.924 159.295,75.399 160.275 M304.584 160.521 C 304.585 160.635,304.717 160.981,304.877 161.288 C 305.038 161.595,305.232 162.134,305.309 162.486 C 305.387 162.837,305.536 163.125,305.642 163.125 C 305.747 163.125,305.833 163.267,305.833 163.440 C 305.833 163.614,305.921 163.918,306.028 164.117 C 306.475 164.947,306.849 165.868,306.979 166.456 C 307.054 166.801,307.203 167.083,307.308 167.083 C 307.414 167.083,307.500 167.213,307.500 167.372 C 307.500 167.531,307.640 167.929,307.811 168.257 C 307.982 168.586,308.123 169.018,308.124 169.219 C 308.124 169.419,308.219 169.583,308.333 169.583 C 308.448 169.583,308.542 169.747,308.543 169.948 C 308.545 170.507,310.522 174.352,311.069 174.862 L 311.553 175.313 303.974 175.367 C 295.385 175.429,296.097 175.528,296.623 174.343 C 296.843 173.845,297.154 173.133,297.313 172.760 C 297.472 172.388,297.673 172.083,297.759 172.083 C 297.846 172.083,297.920 171.966,297.924 171.823 C 297.928 171.680,298.112 171.188,298.333 170.729 C 298.555 170.271,298.739 169.732,298.743 169.531 C 298.747 169.331,298.822 169.167,298.909 169.167 C 299.077 169.167,299.792 167.646,299.792 167.290 C 299.792 167.176,299.878 167.083,299.983 167.083 C 300.089 167.083,300.237 166.803,300.312 166.461 C 300.387 166.118,300.535 165.785,300.641 165.719 C 300.747 165.654,300.833 165.418,300.833 165.196 C 300.833 164.974,300.920 164.792,301.025 164.792 C 301.131 164.792,301.279 164.510,301.354 164.167 C 301.430 163.823,301.567 163.542,301.660 163.542 C 301.753 163.542,301.890 163.214,301.965 162.813 C 302.041 162.411,302.176 162.083,302.267 162.083 C 302.358 162.083,302.608 161.568,302.822 160.938 C 303.036 160.307,303.286 159.792,303.376 159.792 C 303.467 159.792,303.545 159.628,303.549 159.427 C 303.557 159.030,304.579 160.111,304.584 160.521 " stroke="none" fill="#ffffff" fill-rule="evenodd"></path><path id="path1" d="M178.542 7.680 C 178.542 7.779,178.122 7.918,177.609 7.988 C 177.096 8.058,176.510 8.204,176.307 8.313 C 176.104 8.421,174.813 9.045,173.438 9.701 C 172.063 10.356,170.906 10.972,170.868 11.071 C 170.830 11.169,170.672 11.250,170.518 11.250 C 170.364 11.250,170.113 11.367,169.960 11.510 C 169.806 11.654,169.331 11.950,168.903 12.168 C 168.475 12.387,168.125 12.634,168.125 12.719 C 168.125 12.803,167.891 12.930,167.604 13.002 C 167.318 13.074,167.083 13.225,167.083 13.337 C 167.083 13.450,166.947 13.542,166.781 13.542 C 166.615 13.542,166.404 13.659,166.312 13.802 C 166.117 14.107,165.467 14.544,164.948 14.718 C 164.747 14.785,164.583 14.902,164.583 14.977 C 164.583 15.052,164.255 15.290,163.854 15.506 C 163.453 15.722,163.125 15.978,163.125 16.074 C 163.125 16.171,162.989 16.250,162.823 16.250 C 162.657 16.250,162.446 16.375,162.354 16.527 C 162.262 16.679,161.883 16.980,161.510 17.197 C 161.138 17.413,160.833 17.663,160.833 17.753 C 160.833 17.843,160.734 17.917,160.613 17.917 C 160.428 17.917,158.880 19.014,158.542 19.385 C 158.484 19.448,158.109 19.725,157.708 20.000 C 157.307 20.275,156.932 20.552,156.875 20.615 C 156.818 20.679,156.208 21.150,155.521 21.664 C 154.833 22.177,154.064 22.810,153.812 23.069 C 153.560 23.329,153.271 23.542,153.170 23.542 C 153.069 23.542,152.713 23.820,152.378 24.161 C 152.044 24.501,151.687 24.783,151.584 24.786 C 151.481 24.789,151.078 25.120,150.688 25.521 C 150.299 25.922,149.897 26.250,149.796 26.250 C 149.696 26.250,149.285 26.555,148.884 26.927 C 148.484 27.299,147.862 27.839,147.503 28.125 C 145.812 29.473,145.512 29.725,144.956 30.260 C 144.628 30.576,144.310 30.833,144.249 30.833 C 144.187 30.833,144.012 30.951,143.860 31.094 C 143.707 31.237,143.190 31.682,142.709 32.083 C 142.229 32.484,141.412 33.211,140.894 33.698 C 140.377 34.185,139.893 34.583,139.820 34.583 C 139.746 34.583,139.199 35.029,138.603 35.573 C 138.007 36.117,137.133 36.891,136.662 37.292 C 135.063 38.653,134.689 38.982,133.229 40.319 C 132.427 41.054,131.536 41.850,131.250 42.088 C 130.239 42.928,127.210 45.756,124.931 47.987 C 123.662 49.228,122.385 50.428,122.093 50.653 C 121.801 50.877,120.612 51.994,119.451 53.135 C 117.530 55.020,116.458 55.690,116.458 55.002 C 116.458 54.889,116.083 54.737,115.625 54.663 C 115.167 54.590,114.792 54.464,114.792 54.382 C 114.792 54.301,114.276 54.059,113.646 53.845 C 113.016 53.631,112.500 53.389,112.500 53.309 C 112.500 53.228,112.125 53.098,111.667 53.021 C 111.208 52.943,110.833 52.795,110.833 52.690 C 110.833 52.586,110.707 52.500,110.553 52.500 C 110.292 52.500,109.332 52.106,108.492 51.653 C 108.293 51.546,108.026 51.458,107.899 51.458 C 107.653 51.458,106.495 50.980,105.618 50.517 C 104.312 49.827,103.860 49.994,103.791 51.196 L 103.728 52.287 105.458 53.401 C 106.409 54.013,107.609 54.741,108.125 55.018 C 108.641 55.294,109.094 55.591,109.132 55.677 C 109.170 55.763,109.334 55.833,109.497 55.833 C 109.659 55.833,109.792 55.925,109.792 56.038 C 109.792 56.150,110.026 56.301,110.313 56.373 C 110.599 56.445,110.833 56.580,110.833 56.673 C 110.833 56.766,111.115 56.904,111.458 56.979 C 111.802 57.055,112.084 57.179,112.086 57.256 C 112.087 57.333,112.467 57.578,112.931 57.800 C 113.395 58.022,113.819 58.276,113.874 58.365 C 113.929 58.454,110.924 61.593,107.195 65.341 C 103.467 69.089,100.417 72.218,100.417 72.294 C 100.417 72.371,98.753 74.115,96.719 76.171 C 94.685 78.226,92.789 80.204,92.505 80.566 C 91.921 81.311,91.572 81.199,91.352 80.196 C 91.278 79.862,91.131 79.535,91.026 79.469 C 90.920 79.404,90.833 79.168,90.833 78.946 C 90.833 78.724,90.741 78.542,90.627 78.542 C 90.514 78.542,90.362 78.167,90.288 77.708 C 90.215 77.250,90.083 76.875,89.996 76.875 C 89.908 76.875,89.775 76.617,89.698 76.302 C 89.509 75.519,89.093 74.583,88.934 74.583 C 88.862 74.583,88.743 74.208,88.670 73.750 C 88.597 73.292,88.456 72.917,88.357 72.917 C 88.259 72.917,88.118 72.542,88.045 72.083 C 87.972 71.625,87.819 71.250,87.706 71.250 C 87.593 71.250,87.500 71.016,87.500 70.729 C 87.500 70.443,87.414 70.208,87.310 70.208 C 87.205 70.208,87.057 69.833,86.979 69.375 C 86.902 68.917,86.765 68.542,86.675 68.542 C 86.585 68.542,86.452 68.167,86.378 67.708 C 86.305 67.250,86.152 66.875,86.039 66.875 C 85.926 66.875,85.833 66.641,85.833 66.354 C 85.833 66.068,85.748 65.833,85.643 65.833 C 85.539 65.833,85.390 65.458,85.313 65.000 C 85.235 64.542,85.086 64.167,84.982 64.167 C 84.877 64.167,84.791 63.956,84.790 63.698 C 84.790 63.440,84.649 62.961,84.478 62.632 C 84.307 62.304,84.167 61.859,84.167 61.643 C 84.167 61.427,84.081 61.250,83.977 61.250 C 83.872 61.250,83.723 60.875,83.646 60.417 C 83.568 59.958,83.420 59.583,83.315 59.583 C 83.211 59.583,83.125 59.398,83.125 59.171 C 83.125 58.768,82.646 57.317,82.290 56.640 C 82.192 56.454,82.048 55.962,81.970 55.546 C 81.892 55.131,81.756 54.792,81.667 54.792 C 81.578 54.792,81.442 54.370,81.365 53.854 C 81.288 53.339,81.136 52.917,81.029 52.917 C 80.921 52.917,80.833 52.682,80.833 52.396 C 80.833 52.109,80.748 51.875,80.645 51.875 C 80.541 51.875,80.391 51.406,80.313 50.833 C 80.234 50.260,80.095 49.792,80.004 49.792 C 79.913 49.792,79.776 49.370,79.698 48.854 C 79.621 48.339,79.470 47.917,79.362 47.917 C 79.255 47.917,79.167 47.688,79.167 47.408 C 79.167 47.128,79.084 46.848,78.982 46.786 C 78.881 46.723,78.735 46.251,78.658 45.737 C 78.581 45.222,78.435 44.750,78.333 44.687 C 78.232 44.625,78.086 44.153,78.009 43.638 C 77.932 43.124,77.786 42.652,77.684 42.589 C 77.583 42.527,77.500 42.247,77.500 41.967 C 77.500 41.687,77.417 41.458,77.316 41.458 C 77.214 41.458,77.067 40.943,76.988 40.313 C 76.909 39.682,76.767 39.167,76.671 39.167 C 76.576 39.167,76.433 38.698,76.354 38.125 C 76.275 37.552,76.126 37.031,76.022 36.967 C 75.918 36.903,75.833 36.575,75.833 36.238 C 75.833 35.901,75.749 35.625,75.645 35.625 C 75.542 35.625,75.390 35.039,75.308 34.323 C 75.226 33.607,75.090 32.974,75.007 32.917 C 74.798 32.772,74.361 29.648,74.238 27.413 C 74.127 25.404,74.447 24.235,75.311 23.497 C 75.762 23.111,78.414 22.958,78.629 23.306 C 78.690 23.406,79.117 23.547,79.576 23.620 C 80.035 23.694,80.723 23.929,81.105 24.144 C 81.487 24.358,82.097 24.599,82.462 24.679 C 82.827 24.759,83.125 24.911,83.125 25.017 C 83.125 25.122,83.289 25.211,83.490 25.215 C 83.690 25.218,84.414 25.500,85.099 25.840 C 85.783 26.180,86.463 26.458,86.609 26.458 C 86.755 26.458,86.875 26.545,86.875 26.650 C 86.875 26.756,87.156 26.904,87.500 26.979 C 87.844 27.055,88.125 27.181,88.125 27.259 C 88.125 27.414,89.665 28.125,90.001 28.125 C 90.115 28.125,90.208 28.211,90.208 28.317 C 90.208 28.422,90.490 28.570,90.833 28.646 C 91.177 28.721,91.458 28.847,91.458 28.926 C 91.458 29.081,92.998 29.792,93.335 29.792 C 93.449 29.792,93.542 29.875,93.542 29.977 C 93.542 30.080,93.799 30.228,94.112 30.306 C 94.426 30.385,94.731 30.513,94.790 30.589 C 94.848 30.666,95.552 31.057,96.354 31.458 C 97.156 31.859,97.844 32.258,97.882 32.344 C 97.920 32.430,98.076 32.500,98.229 32.500 C 98.382 32.500,98.538 32.570,98.576 32.656 C 98.615 32.742,99.115 33.047,99.688 33.333 C 100.260 33.620,100.776 33.902,100.833 33.960 C 100.891 34.019,101.289 34.251,101.719 34.476 C 102.148 34.702,102.500 34.959,102.500 35.047 C 102.500 35.136,102.607 35.208,102.738 35.208 C 102.869 35.208,103.578 35.589,104.315 36.054 C 105.761 36.968,106.316 37.032,106.421 36.300 C 106.457 36.043,106.575 35.833,106.681 35.833 C 106.926 35.833,106.938 34.230,106.695 34.080 C 106.596 34.019,106.460 33.634,106.394 33.226 C 106.189 31.961,104.469 29.801,101.504 27.083 C 99.938 25.649,99.532 25.311,98.854 24.878 C 98.155 24.432,97.692 24.074,96.922 23.385 C 96.633 23.128,96.278 22.917,96.133 22.917 C 95.987 22.917,95.837 22.846,95.799 22.760 C 95.699 22.537,94.339 21.557,93.906 21.397 C 93.706 21.324,93.542 21.177,93.542 21.073 C 93.542 20.968,93.378 20.827,93.177 20.760 C 92.760 20.619,92.127 20.224,91.713 19.844 C 91.556 19.701,91.295 19.583,91.131 19.583 C 90.967 19.583,90.833 19.490,90.833 19.375 C 90.833 19.260,90.693 19.167,90.521 19.167 C 90.349 19.167,90.208 19.079,90.208 18.972 C 90.208 18.866,90.002 18.713,89.749 18.632 C 89.497 18.552,89.162 18.358,89.005 18.202 C 88.848 18.045,88.586 17.917,88.423 17.917 C 88.259 17.917,88.125 17.823,88.125 17.708 C 88.125 17.594,87.984 17.500,87.813 17.500 C 87.641 17.500,87.500 17.413,87.500 17.306 C 87.500 17.199,87.289 17.046,87.031 16.965 C 86.773 16.885,86.516 16.761,86.458 16.691 C 86.401 16.620,86.049 16.398,85.677 16.198 C 83.978 15.283,83.647 15.088,83.380 14.844 C 83.223 14.701,82.969 14.583,82.815 14.583 C 82.661 14.583,82.503 14.513,82.465 14.427 C 82.401 14.283,81.898 14.004,78.750 12.367 C 78.120 12.039,77.573 11.701,77.535 11.615 C 77.497 11.529,77.362 11.458,77.235 11.458 C 77.108 11.458,76.436 11.186,75.742 10.853 C 75.047 10.520,74.104 10.092,73.646 9.902 C 72.052 9.239,71.769 9.117,71.432 8.948 C 71.245 8.855,70.730 8.712,70.286 8.630 C 69.842 8.548,69.415 8.382,69.336 8.260 C 69.118 7.924,63.290 7.944,63.177 8.281 C 63.129 8.424,62.973 8.542,62.830 8.542 C 62.457 8.542,61.495 9.678,61.338 10.304 C 61.265 10.595,61.121 10.833,61.019 10.833 C 60.917 10.833,60.833 11.096,60.833 11.417 C 60.833 11.738,60.734 12.099,60.613 12.220 C 60.239 12.594,60.643 20.417,61.036 20.417 C 61.127 20.417,61.267 21.119,61.347 21.978 C 61.428 22.836,61.568 23.585,61.660 23.642 C 61.751 23.698,61.891 24.260,61.969 24.890 C 62.048 25.520,62.200 26.089,62.306 26.155 C 62.413 26.221,62.500 26.550,62.500 26.887 C 62.500 27.224,62.587 27.500,62.693 27.500 C 62.800 27.500,62.951 28.016,63.030 28.646 C 63.109 29.276,63.256 29.792,63.357 29.792 C 63.459 29.792,63.542 29.977,63.542 30.204 C 63.542 30.600,64.015 32.045,64.365 32.716 C 64.457 32.893,64.599 33.432,64.680 33.914 C 64.762 34.397,64.902 34.792,64.992 34.792 C 65.082 34.792,65.216 35.171,65.290 35.634 C 65.364 36.097,65.516 36.660,65.629 36.884 C 66.135 37.892,66.206 38.074,66.347 38.719 C 66.430 39.095,66.629 39.655,66.789 39.962 C 66.950 40.269,67.081 40.639,67.082 40.784 C 67.083 40.929,67.169 41.210,67.274 41.409 C 67.755 42.320,68.125 43.330,68.125 43.729 C 68.125 43.970,68.219 44.167,68.333 44.167 C 68.448 44.167,68.542 44.317,68.542 44.500 C 68.542 44.683,68.682 45.152,68.854 45.541 C 69.026 45.931,69.314 46.602,69.493 47.031 C 69.673 47.461,69.899 48.000,69.996 48.229 C 70.094 48.458,70.340 49.138,70.544 49.740 C 70.749 50.341,70.979 50.833,71.056 50.833 C 71.133 50.833,71.257 51.208,71.330 51.667 C 71.403 52.125,71.556 52.500,71.669 52.500 C 71.782 52.500,71.876 52.664,71.876 52.865 C 71.877 53.065,72.018 53.498,72.189 53.826 C 72.360 54.154,72.500 54.553,72.500 54.711 C 72.500 54.870,72.583 55.000,72.685 55.000 C 72.787 55.000,72.932 55.328,73.007 55.729 C 73.082 56.130,73.221 56.458,73.316 56.458 C 73.411 56.458,73.548 56.833,73.622 57.292 C 73.695 57.750,73.848 58.125,73.961 58.125 C 74.074 58.125,74.167 58.307,74.167 58.529 C 74.167 58.752,74.253 58.987,74.359 59.053 C 74.465 59.118,74.613 59.452,74.688 59.794 C 74.763 60.136,74.911 60.417,75.017 60.417 C 75.122 60.417,75.208 60.633,75.208 60.898 C 75.208 61.162,75.346 61.561,75.514 61.783 C 75.682 62.006,75.823 62.352,75.827 62.552 C 75.830 62.753,75.927 62.917,76.042 62.917 C 76.156 62.917,76.253 63.081,76.257 63.281 C 76.261 63.482,76.445 64.021,76.667 64.479 C 76.888 64.938,77.072 65.430,77.076 65.573 C 77.080 65.716,77.177 65.833,77.292 65.833 C 77.406 65.833,77.500 66.015,77.500 66.238 C 77.500 66.460,77.587 66.696,77.692 66.761 C 77.798 66.826,77.946 67.160,78.021 67.502 C 78.097 67.845,78.225 68.125,78.307 68.125 C 78.388 68.125,78.631 68.641,78.845 69.271 C 79.059 69.901,79.309 70.417,79.399 70.417 C 79.490 70.417,79.626 70.745,79.701 71.146 C 79.776 71.547,79.914 71.875,80.007 71.875 C 80.099 71.875,80.237 72.156,80.313 72.500 C 80.388 72.844,80.536 73.125,80.642 73.125 C 80.747 73.125,80.836 73.289,80.840 73.490 C 80.844 73.690,80.984 74.036,81.152 74.259 C 81.321 74.481,81.458 74.833,81.458 75.040 C 81.458 75.247,81.552 75.417,81.667 75.417 C 81.781 75.417,81.875 75.510,81.875 75.624 C 81.875 75.960,82.586 77.500,82.741 77.500 C 82.819 77.500,82.945 77.781,83.021 78.125 C 83.096 78.469,83.244 78.750,83.350 78.750 C 83.455 78.750,83.542 78.900,83.542 79.082 C 83.542 79.450,84.181 80.689,84.427 80.799 C 84.513 80.837,84.583 80.959,84.583 81.070 C 84.583 81.299,85.307 83.012,85.671 83.646 C 85.802 83.875,86.039 84.344,86.198 84.688 C 86.356 85.031,86.573 85.475,86.680 85.674 C 86.936 86.149,86.930 86.875,86.671 86.875 C 86.558 86.875,86.408 87.106,86.337 87.388 C 86.267 87.671,86.030 87.958,85.813 88.027 C 85.595 88.097,85.417 88.227,85.417 88.318 C 85.417 88.409,85.112 88.813,84.740 89.217 C 83.497 90.563,82.209 92.074,82.026 92.401 C 81.927 92.579,81.594 92.989,81.287 93.313 C 78.925 95.805,77.757 97.423,78.084 97.751 C 78.613 98.279,80.318 98.205,80.895 97.628 C 81.195 97.328,81.533 97.083,81.647 97.083 C 81.761 97.083,81.929 96.964,82.021 96.817 C 82.113 96.671,82.609 96.226,83.125 95.828 C 84.055 95.111,84.510 94.699,87.475 91.895 C 89.118 90.341,89.389 90.297,89.700 91.537 C 89.775 91.838,89.920 92.083,90.023 92.083 C 90.125 92.083,90.208 92.233,90.208 92.416 C 90.208 92.748,90.813 93.968,91.077 94.169 C 91.154 94.227,91.281 94.532,91.360 94.846 C 91.439 95.160,91.587 95.417,91.689 95.417 C 91.791 95.417,91.875 95.520,91.875 95.646 C 91.875 95.916,92.524 97.349,92.714 97.500 C 92.787 97.557,93.073 98.073,93.350 98.646 C 93.627 99.219,93.924 99.719,94.010 99.757 C 94.096 99.795,94.167 99.959,94.167 100.122 C 94.167 100.284,94.250 100.417,94.352 100.417 C 94.454 100.417,94.599 100.745,94.674 101.146 C 94.749 101.547,94.877 101.876,94.957 101.877 C 95.038 101.878,95.289 102.300,95.515 102.814 C 95.742 103.329,95.999 103.750,96.088 103.750 C 96.177 103.750,96.250 103.884,96.250 104.048 C 96.250 104.211,96.378 104.473,96.535 104.630 C 96.692 104.787,96.892 105.145,96.979 105.426 C 97.066 105.707,97.290 106.172,97.476 106.458 C 97.662 106.745,98.048 107.448,98.334 108.021 C 98.620 108.594,98.924 109.094,99.010 109.132 C 99.096 109.170,99.167 109.334,99.167 109.497 C 99.167 109.659,99.260 109.792,99.375 109.792 C 99.490 109.792,99.583 109.913,99.583 110.060 C 99.583 110.208,99.915 110.935,100.319 111.675 C 100.724 112.415,101.167 113.279,101.303 113.594 C 101.438 113.909,101.615 114.167,101.696 114.167 C 101.776 114.167,101.904 114.448,101.979 114.792 C 102.055 115.135,102.203 115.417,102.308 115.417 C 102.414 115.417,102.500 115.557,102.500 115.729 C 102.500 115.901,102.594 116.042,102.708 116.042 C 102.823 116.042,102.917 116.176,102.917 116.339 C 102.917 116.503,103.041 116.762,103.194 116.914 C 103.446 117.166,103.714 117.910,103.743 118.438 C 103.755 118.652,101.473 118.866,96.876 119.081 C 95.444 119.148,94.223 119.284,94.161 119.384 C 94.099 119.484,90.181 119.632,85.454 119.712 C 80.726 119.793,76.810 119.937,76.750 120.033 C 76.609 120.262,61.516 120.262,61.375 120.033 C 61.315 119.937,58.943 119.799,56.104 119.726 C 52.879 119.644,50.914 119.514,50.870 119.380 C 50.831 119.263,50.338 119.167,49.774 119.167 C 49.211 119.167,48.750 119.085,48.750 118.985 C 48.750 118.885,48.260 118.739,47.661 118.659 C 47.063 118.580,46.477 118.440,46.359 118.349 C 46.242 118.257,45.876 118.118,45.546 118.039 C 44.104 117.693,42.899 114.910,43.882 114.194 C 44.078 114.051,44.499 113.417,44.730 112.917 C 44.810 112.745,44.952 112.510,45.045 112.396 C 45.139 112.281,45.378 111.989,45.577 111.746 C 47.022 109.979,47.659 109.262,49.688 107.121 C 52.193 104.477,57.308 99.399,59.531 97.348 C 60.304 96.634,61.540 95.485,62.276 94.796 C 63.013 94.106,63.672 93.542,63.742 93.542 C 64.059 93.542,65.930 91.554,65.869 91.283 C 65.656 90.337,61.875 89.122,61.875 90.000 C 61.875 90.115,61.605 90.208,61.274 90.208 C 60.523 90.208,58.542 90.835,58.542 91.073 C 58.542 91.170,58.388 91.250,58.200 91.250 C 57.806 91.250,55.972 92.110,55.868 92.344 C 55.830 92.430,55.674 92.500,55.521 92.500 C 55.368 92.500,55.212 92.570,55.174 92.656 C 55.135 92.742,54.656 93.047,54.107 93.333 C 53.559 93.619,52.865 94.065,52.564 94.323 C 52.264 94.581,51.935 94.792,51.834 94.792 C 51.635 94.792,51.300 95.039,50.492 95.781 C 50.211 96.039,49.912 96.250,49.827 96.250 C 49.666 96.250,48.702 96.965,48.133 97.508 C 47.948 97.684,47.473 98.029,47.076 98.276 C 46.679 98.522,46.216 98.917,46.048 99.154 C 45.879 99.390,45.645 99.584,45.527 99.586 C 45.409 99.587,44.844 100.004,44.271 100.513 C 42.446 102.134,41.576 102.896,41.042 103.343 C 39.857 104.331,38.195 105.796,37.102 106.815 C 36.462 107.412,35.656 108.151,35.313 108.456 C 33.878 109.730,32.314 111.287,31.042 112.705 C 30.297 113.536,29.500 114.425,29.271 114.680 C 28.450 115.594,27.917 116.345,27.917 116.585 C 27.917 116.720,27.775 116.885,27.601 116.952 C 27.427 117.018,27.193 117.286,27.081 117.547 C 26.968 117.807,26.786 118.161,26.677 118.333 C 26.568 118.505,26.325 119.021,26.138 119.479 C 25.951 119.938,25.712 120.475,25.607 120.674 C 25.378 121.108,25.350 123.750,25.574 123.750 C 25.661 123.750,25.864 124.055,26.026 124.427 C 26.516 125.555,28.367 127.083,29.243 127.083 C 29.430 127.083,29.583 127.177,29.583 127.292 C 29.583 127.406,29.765 127.500,29.988 127.500 C 30.210 127.500,30.446 127.587,30.512 127.694 C 30.578 127.800,31.147 127.952,31.777 128.031 C 32.407 128.109,32.968 128.248,33.024 128.339 C 33.081 128.430,33.947 128.566,34.949 128.640 C 35.951 128.715,36.958 128.861,37.188 128.965 C 38.514 129.567,64.964 129.571,65.726 128.970 C 65.842 128.878,67.897 128.736,70.292 128.654 C 72.687 128.572,74.796 128.426,74.979 128.328 C 75.163 128.231,77.047 128.050,79.167 127.926 C 84.842 127.594,86.123 127.482,86.354 127.297 C 86.469 127.205,87.805 127.062,89.323 126.979 C 90.841 126.896,92.083 126.759,92.083 126.673 C 92.083 126.587,93.232 126.451,94.635 126.370 C 96.039 126.289,97.277 126.135,97.385 126.028 C 97.494 125.921,98.122 125.833,98.779 125.833 C 99.437 125.833,100.026 125.751,100.089 125.650 C 100.151 125.549,101.211 125.398,102.445 125.315 C 103.678 125.231,104.734 125.089,104.792 124.999 C 104.849 124.909,105.458 124.814,106.146 124.788 C 107.815 124.726,107.917 124.744,107.917 125.089 C 107.917 125.253,108.034 125.512,108.177 125.665 C 108.320 125.819,108.616 126.294,108.835 126.722 C 109.053 127.150,109.311 127.500,109.408 127.500 C 109.504 127.500,109.583 127.634,109.583 127.798 C 109.583 127.961,109.701 128.221,109.844 128.374 C 109.987 128.527,110.283 129.002,110.502 129.430 C 110.720 129.858,110.978 130.208,111.074 130.208 C 111.171 130.208,111.250 130.342,111.250 130.506 C 111.250 130.670,111.367 130.931,111.510 131.088 C 111.891 131.502,112.286 132.135,112.426 132.552 C 112.494 132.753,112.631 132.917,112.733 132.917 C 112.834 132.917,112.917 133.060,112.917 133.236 C 112.917 133.411,113.057 133.609,113.229 133.675 C 113.401 133.741,113.542 133.958,113.542 134.159 C 113.542 134.359,113.764 134.762,114.035 135.055 C 114.307 135.348,114.591 135.834,114.666 136.136 C 115.068 137.738,116.534 136.424,116.373 134.606 C 116.319 133.988,116.175 133.383,116.054 133.262 C 115.932 133.141,115.833 132.873,115.833 132.667 C 115.833 132.460,115.740 132.292,115.625 132.292 C 115.510 132.292,115.416 132.128,115.415 131.927 C 115.415 131.727,115.283 131.311,115.123 131.004 C 114.962 130.696,114.768 130.157,114.691 129.806 C 114.613 129.454,114.464 129.167,114.358 129.167 C 114.253 129.167,114.167 128.979,114.167 128.750 C 114.167 128.521,114.083 128.333,113.982 128.333 C 113.880 128.333,113.735 128.005,113.660 127.604 C 113.584 127.203,113.433 126.875,113.324 126.875 C 113.215 126.875,113.125 126.772,113.125 126.646 C 113.125 126.374,112.475 124.941,112.284 124.792 C 111.452 124.141,111.947 123.783,113.878 123.639 C 114.954 123.558,115.833 123.422,115.833 123.335 C 115.833 123.249,116.676 123.113,117.706 123.032 C 118.735 122.952,119.631 122.799,119.697 122.693 C 119.763 122.587,120.279 122.500,120.846 122.500 C 121.412 122.500,121.875 122.416,121.875 122.314 C 121.875 122.211,122.719 122.061,123.751 121.979 C 124.783 121.897,125.673 121.758,125.728 121.669 C 125.782 121.581,126.625 121.442,127.600 121.360 C 128.576 121.279,129.426 121.127,129.491 121.023 C 129.555 120.919,130.024 120.833,130.533 120.833 C 131.042 120.833,131.458 120.751,131.458 120.650 C 131.458 120.549,132.255 120.400,133.228 120.319 C 134.202 120.237,135.044 120.097,135.100 120.006 C 135.156 119.916,136.000 119.775,136.975 119.694 C 137.951 119.613,138.801 119.461,138.866 119.356 C 138.930 119.252,139.391 119.167,139.891 119.167 C 140.390 119.167,140.830 119.086,140.868 118.988 C 141.076 118.453,143.542 118.513,143.542 119.052 C 143.542 119.344,143.457 119.583,143.354 119.583 C 143.250 119.583,143.101 120.146,143.021 120.834 C 142.941 121.521,142.791 122.136,142.688 122.200 C 142.585 122.264,142.500 122.586,142.500 122.917 C 142.500 123.247,142.411 123.572,142.301 123.640 C 142.192 123.707,142.039 124.322,141.962 125.006 C 141.884 125.690,141.752 126.250,141.667 126.250 C 141.582 126.250,141.449 126.727,141.371 127.310 C 141.294 127.893,141.153 128.526,141.058 128.716 C 140.801 129.230,140.461 130.410,140.298 131.354 C 140.219 131.813,140.079 132.284,139.986 132.401 C 139.894 132.518,139.753 133.104,139.674 133.703 C 139.595 134.302,139.448 134.792,139.348 134.792 C 139.248 134.792,139.167 135.067,139.167 135.404 C 139.167 135.741,139.078 136.072,138.970 136.138 C 138.862 136.205,138.710 136.703,138.632 137.244 C 138.553 137.786,138.418 138.323,138.331 138.438 C 138.243 138.552,138.106 139.044,138.026 139.530 C 137.946 140.017,137.795 140.467,137.690 140.532 C 137.586 140.597,137.500 140.873,137.500 141.146 C 137.500 141.419,137.417 141.693,137.316 141.756 C 137.214 141.819,137.068 142.291,136.991 142.805 C 136.914 143.319,136.771 143.789,136.674 143.850 C 136.577 143.910,136.433 144.427,136.354 145.000 C 136.275 145.573,136.126 146.094,136.022 146.158 C 135.918 146.222,135.833 146.446,135.833 146.655 C 135.833 146.864,135.693 147.304,135.522 147.632 C 135.351 147.961,135.210 148.440,135.210 148.698 C 135.209 148.956,135.123 149.167,135.020 149.167 C 134.916 149.167,134.766 149.635,134.688 150.208 C 134.609 150.781,134.459 151.250,134.355 151.250 C 134.252 151.250,134.167 151.479,134.167 151.759 C 134.167 152.038,134.081 152.320,133.976 152.385 C 133.872 152.449,133.723 152.876,133.646 153.333 C 133.569 153.790,133.428 154.212,133.333 154.271 C 133.239 154.329,133.095 154.772,133.013 155.253 C 132.932 155.735,132.794 156.274,132.708 156.450 C 132.216 157.455,131.875 158.398,131.875 158.757 C 131.875 158.982,131.790 159.167,131.686 159.167 C 131.582 159.167,131.433 159.635,131.354 160.208 C 131.275 160.781,131.144 161.250,131.063 161.250 C 130.982 161.250,130.747 161.742,130.541 162.344 C 130.335 162.945,130.035 163.733,129.875 164.094 C 129.714 164.455,129.583 164.838,129.583 164.944 C 129.583 165.051,129.349 165.599,129.063 166.163 C 128.777 166.726,128.543 167.352,128.543 167.552 C 128.542 167.753,128.458 167.917,128.356 167.917 C 128.254 167.917,128.106 168.174,128.027 168.487 C 127.948 168.801,127.821 169.106,127.744 169.165 C 127.486 169.360,126.875 170.582,126.875 170.900 C 126.875 171.073,126.805 171.247,126.719 171.285 C 126.633 171.323,126.245 171.810,125.856 172.367 C 123.540 175.686,121.941 175.627,119.115 172.115 C 118.914 171.866,118.750 171.576,118.750 171.471 C 118.750 171.366,118.633 171.152,118.490 170.996 C 118.109 170.581,117.714 169.948,117.574 169.531 C 117.506 169.331,117.369 169.167,117.267 169.167 C 117.166 169.167,117.083 169.033,117.083 168.869 C 117.083 168.705,116.965 168.448,116.821 168.296 C 116.677 168.145,116.373 167.623,116.144 167.138 C 115.916 166.652,115.669 166.254,115.596 166.252 C 115.522 166.251,115.403 166.016,115.331 165.729 C 115.259 165.443,115.108 165.208,114.996 165.208 C 114.884 165.208,114.792 165.105,114.792 164.979 C 114.792 164.701,114.139 163.270,113.945 163.125 C 113.869 163.068,113.734 162.786,113.646 162.500 C 113.558 162.214,113.420 161.932,113.340 161.875 C 113.193 161.771,109.883 155.074,109.349 153.802 C 109.193 153.430,108.994 153.125,108.907 153.125 C 108.821 153.125,108.750 153.022,108.750 152.896 C 108.750 152.682,108.623 152.364,107.740 150.367 C 107.551 149.939,107.338 149.587,107.266 149.586 C 107.195 149.584,107.077 149.208,107.003 148.750 C 106.930 148.292,106.794 147.917,106.701 147.917 C 106.608 147.917,106.445 147.565,106.339 147.135 C 105.942 145.529,104.289 146.206,103.494 148.301 C 103.096 149.349,102.944 154.655,103.306 154.879 C 103.405 154.940,103.552 155.647,103.631 156.449 C 103.710 157.251,103.863 157.962,103.970 158.028 C 104.078 158.095,104.167 158.420,104.167 158.750 C 104.167 159.080,104.252 159.403,104.355 159.467 C 104.459 159.531,104.609 160.052,104.688 160.625 C 104.766 161.198,104.908 161.714,105.001 161.772 C 105.095 161.830,105.235 162.251,105.313 162.708 C 105.390 163.165,105.539 163.592,105.643 163.657 C 105.748 163.722,105.833 164.003,105.833 164.283 C 105.833 164.563,105.919 164.792,106.023 164.792 C 106.128 164.792,106.277 165.167,106.354 165.625 C 106.432 166.083,106.568 166.458,106.658 166.458 C 106.748 166.458,106.882 166.833,106.955 167.292 C 107.028 167.750,107.181 168.125,107.294 168.125 C 107.407 168.125,107.500 168.359,107.500 168.646 C 107.500 168.932,107.586 169.167,107.692 169.167 C 107.797 169.167,107.946 169.449,108.021 169.794 C 108.151 170.382,108.525 171.303,108.972 172.133 C 109.079 172.332,109.167 172.636,109.167 172.810 C 109.167 172.983,109.253 173.125,109.358 173.125 C 109.464 173.125,109.612 173.407,109.688 173.752 C 109.764 174.097,109.947 174.636,110.095 174.950 C 110.243 175.264,110.493 175.826,110.650 176.198 C 110.807 176.570,111.006 176.875,111.093 176.875 C 111.179 176.875,111.253 177.039,111.257 177.240 C 111.261 177.440,111.445 177.979,111.667 178.438 C 111.888 178.896,112.072 179.388,112.076 179.531 C 112.080 179.674,112.177 179.792,112.292 179.792 C 112.406 179.792,112.500 179.932,112.500 180.104 C 112.500 180.276,112.583 180.417,112.685 180.417 C 112.787 180.417,112.932 180.745,113.007 181.146 C 113.082 181.547,113.226 181.875,113.326 181.875 C 113.427 181.875,113.568 182.144,113.640 182.472 C 113.712 182.800,113.943 183.253,114.153 183.479 C 114.363 183.704,114.600 184.186,114.680 184.549 C 114.760 184.911,114.901 185.208,114.994 185.208 C 115.087 185.208,115.217 185.421,115.282 185.681 C 115.347 185.941,115.592 186.359,115.825 186.610 C 116.059 186.861,116.250 187.132,116.250 187.213 C 116.250 187.352,117.355 189.156,117.809 189.760 C 118.674 190.910,121.454 193.537,121.929 193.654 C 122.245 193.732,122.555 193.880,122.618 193.981 C 122.768 194.223,125.566 194.223,125.715 193.981 C 125.778 193.880,126.077 193.734,126.379 193.658 C 126.983 193.507,129.785 190.886,129.789 190.469 C 129.790 190.326,129.879 190.208,129.986 190.208 C 130.093 190.208,130.245 190.005,130.324 189.756 C 130.403 189.507,130.647 189.110,130.867 188.874 C 131.086 188.639,131.320 188.233,131.385 187.973 C 131.450 187.713,131.580 187.500,131.673 187.500 C 131.766 187.500,131.908 187.195,131.989 186.823 C 132.070 186.451,132.196 186.099,132.271 186.042 C 132.528 185.843,133.500 183.791,133.641 183.147 C 133.719 182.791,133.869 182.500,133.975 182.500 C 134.080 182.500,134.167 182.266,134.167 181.979 C 134.167 181.693,134.259 181.458,134.373 181.458 C 134.486 181.458,134.638 181.083,134.712 180.625 C 134.785 180.167,134.916 179.792,135.003 179.792 C 135.091 179.792,135.226 179.452,135.304 179.037 C 135.381 178.622,135.525 178.130,135.622 177.943 C 136.098 177.029,136.458 176.039,136.458 175.646 C 136.458 175.405,136.543 175.208,136.647 175.208 C 136.751 175.208,136.900 174.740,136.979 174.167 C 137.058 173.594,137.207 173.125,137.311 173.125 C 137.415 173.125,137.500 172.896,137.500 172.616 C 137.500 172.337,137.588 172.053,137.696 171.987 C 137.804 171.920,137.956 171.444,138.033 170.930 C 138.110 170.416,138.247 169.949,138.338 169.893 C 138.428 169.837,138.567 169.323,138.646 168.750 C 138.725 168.177,138.874 167.656,138.978 167.592 C 139.082 167.528,139.167 167.247,139.167 166.967 C 139.167 166.687,139.254 166.458,139.360 166.458 C 139.466 166.458,139.618 165.943,139.697 165.313 C 139.775 164.682,139.916 164.167,140.009 164.167 C 140.102 164.167,140.243 163.650,140.322 163.018 C 140.401 162.386,140.548 161.818,140.649 161.756 C 140.751 161.693,140.833 161.366,140.833 161.029 C 140.833 160.692,140.916 160.417,141.018 160.417 C 141.119 160.417,141.266 159.903,141.345 159.274 C 141.423 158.646,141.565 158.083,141.661 158.024 C 141.756 157.966,141.899 157.355,141.979 156.667 C 142.059 155.979,142.199 155.417,142.289 155.417 C 142.380 155.417,142.506 155.112,142.570 154.740 C 142.798 153.407,143.232 151.559,143.365 151.354 C 143.439 151.240,143.567 150.607,143.649 149.948 C 143.731 149.289,143.881 148.750,143.982 148.750 C 144.084 148.750,144.167 148.427,144.167 148.033 C 144.167 147.639,144.253 147.263,144.359 147.198 C 144.464 147.132,144.616 146.471,144.695 145.727 C 144.775 144.983,144.914 144.375,145.003 144.375 C 145.093 144.375,145.232 143.719,145.313 142.917 C 145.393 142.115,145.543 141.458,145.646 141.458 C 145.749 141.458,145.833 141.136,145.833 140.741 C 145.833 140.347,145.922 139.970,146.030 139.903 C 146.137 139.837,146.290 139.128,146.369 138.329 C 146.448 137.529,146.584 136.875,146.672 136.875 C 146.761 136.875,146.900 136.195,146.981 135.365 C 147.063 134.534,147.202 133.760,147.291 133.646 C 147.380 133.531,147.507 133.063,147.574 132.604 C 147.861 130.621,148.240 128.630,148.367 128.436 C 148.442 128.320,148.572 127.453,148.654 126.508 C 148.736 125.564,148.876 124.792,148.964 124.792 C 149.053 124.792,149.178 124.393,149.243 123.906 C 149.696 120.499,149.916 119.178,150.052 119.044 C 150.138 118.959,150.208 118.584,150.208 118.211 C 150.208 117.126,150.388 116.875,151.168 116.875 C 151.557 116.875,151.875 116.792,151.875 116.691 C 151.875 116.590,152.483 116.442,153.227 116.362 C 153.971 116.282,154.632 116.131,154.698 116.025 C 154.763 115.920,155.086 115.833,155.417 115.833 C 155.747 115.833,156.069 115.749,156.133 115.645 C 156.197 115.542,156.812 115.392,157.500 115.313 C 158.187 115.233,158.750 115.094,158.750 115.004 C 158.750 114.914,159.359 114.775,160.104 114.695 C 160.849 114.615,161.458 114.464,161.458 114.358 C 161.458 114.253,161.781 114.167,162.175 114.167 C 162.569 114.167,162.950 114.073,163.021 113.958 C 163.092 113.844,163.425 113.750,163.762 113.750 C 164.529 113.750,164.565 113.272,163.864 112.414 L 163.368 111.808 159.139 111.949 C 156.813 112.027,154.817 112.183,154.705 112.295 C 154.592 112.408,153.909 112.500,153.188 112.500 C 152.451 112.500,151.875 112.591,151.875 112.708 C 151.875 112.823,151.723 112.917,151.538 112.917 C 151.179 112.917,151.286 109.678,151.669 108.957 C 151.761 108.784,151.904 107.776,151.986 106.717 C 152.069 105.658,152.219 104.792,152.319 104.792 C 152.418 104.792,152.500 104.282,152.500 103.658 C 152.500 103.035,152.585 102.472,152.688 102.408 C 152.792 102.344,152.944 101.306,153.026 100.101 C 153.108 98.896,153.247 97.866,153.336 97.811 C 153.424 97.757,153.563 96.680,153.646 95.419 C 153.728 94.157,153.879 93.125,153.981 93.125 C 154.083 93.125,154.167 92.568,154.167 91.887 C 154.167 91.207,154.250 90.598,154.352 90.535 C 154.454 90.472,154.605 89.388,154.687 88.127 C 154.770 86.865,154.921 85.833,155.023 85.833 C 155.125 85.833,155.208 85.472,155.208 85.031 C 155.208 81.433,155.493 80.786,156.621 81.823 C 156.777 81.966,157.039 82.083,157.202 82.083 C 157.366 82.083,157.500 82.177,157.500 82.292 C 157.500 82.406,157.641 82.500,157.813 82.500 C 157.984 82.500,158.125 82.587,158.125 82.694 C 158.125 82.801,158.332 82.954,158.584 83.034 C 158.837 83.114,159.171 83.308,159.328 83.465 C 159.485 83.622,159.747 83.750,159.911 83.750 C 160.074 83.750,160.208 83.844,160.208 83.958 C 160.208 84.073,160.349 84.167,160.521 84.167 C 160.693 84.167,160.833 84.254,160.833 84.361 C 160.833 84.468,161.040 84.621,161.292 84.701 C 161.545 84.781,161.880 84.975,162.036 85.132 C 162.193 85.288,162.455 85.417,162.619 85.417 C 162.783 85.417,162.917 85.510,162.917 85.625 C 162.917 85.740,163.057 85.833,163.229 85.833 C 163.401 85.833,163.542 85.925,163.542 86.038 C 163.542 86.150,163.769 86.299,164.047 86.369 C 164.326 86.439,164.604 86.628,164.666 86.790 C 164.728 86.951,164.882 87.083,165.007 87.083 C 165.133 87.083,165.543 87.318,165.919 87.604 C 166.295 87.891,166.710 88.125,166.843 88.125 C 166.975 88.125,167.083 88.217,167.083 88.329 C 167.083 88.442,167.318 88.593,167.604 88.664 C 167.891 88.736,168.125 88.859,168.125 88.936 C 168.125 89.013,168.430 89.254,168.802 89.471 C 169.174 89.687,169.526 89.918,169.583 89.984 C 169.762 90.190,170.504 90.631,170.885 90.760 C 171.086 90.827,171.250 90.967,171.250 91.071 C 171.250 91.175,171.461 91.352,171.719 91.463 C 172.311 91.719,172.883 92.086,173.411 92.550 C 173.638 92.749,173.994 92.966,174.203 93.032 C 174.412 93.099,174.583 93.241,174.583 93.347 C 174.583 93.454,174.677 93.542,174.791 93.542 C 174.959 93.542,176.912 94.861,177.813 95.583 C 177.927 95.675,178.161 95.815,178.333 95.895 C 178.773 96.098,179.382 96.508,179.789 96.875 C 180.479 97.498,181.344 98.125,181.512 98.125 C 181.696 98.125,181.773 98.181,182.944 99.159 C 183.360 99.507,183.763 99.792,183.838 99.792 C 183.987 99.792,184.085 99.865,185.236 100.826 C 185.652 101.174,186.057 101.458,186.136 101.458 C 186.215 101.458,186.410 101.576,186.570 101.719 C 187.260 102.337,187.495 102.500,187.700 102.500 C 187.819 102.500,187.917 102.591,187.917 102.703 C 187.917 102.815,188.174 103.040,188.490 103.204 C 188.805 103.368,189.297 103.704,189.583 103.951 C 189.870 104.198,190.316 104.582,190.575 104.804 C 190.833 105.027,191.124 105.208,191.221 105.208 C 191.317 105.208,191.675 105.466,192.016 105.781 C 192.357 106.096,192.848 106.495,193.108 106.667 C 193.368 106.839,193.764 107.135,193.988 107.325 C 194.212 107.515,194.761 107.969,195.208 108.333 C 196.057 109.025,196.265 109.202,198.099 110.797 C 199.897 112.360,201.294 113.862,202.280 115.293 C 202.445 115.533,202.673 115.792,202.786 115.869 C 202.899 115.946,203.032 116.563,203.081 117.240 C 203.185 118.683,202.824 119.225,201.246 119.995 C 200.733 120.245,200.150 120.536,199.951 120.642 C 199.752 120.747,199.406 120.833,199.182 120.833 C 198.958 120.833,198.723 120.916,198.661 121.017 C 198.598 121.119,198.015 121.268,197.365 121.349 C 196.715 121.430,196.034 121.577,195.852 121.676 C 195.555 121.836,194.178 122.092,191.771 122.433 C 191.313 122.498,190.891 122.617,190.833 122.699 C 190.776 122.780,189.885 122.957,188.854 123.092 C 187.823 123.228,185.995 123.483,184.792 123.659 C 183.589 123.836,182.065 124.031,181.406 124.092 C 180.747 124.154,180.208 124.279,180.208 124.372 C 180.208 124.464,178.849 124.608,177.188 124.691 C 175.526 124.774,174.167 124.924,174.167 125.025 C 174.167 125.126,173.266 125.208,172.164 125.208 L 170.162 125.208 170.308 125.990 C 170.388 126.419,170.562 126.911,170.693 127.083 C 171.240 127.796,172.342 128.750,172.619 128.750 C 172.783 128.750,172.917 128.821,172.917 128.907 C 172.917 129.120,173.901 129.542,174.793 129.712 C 175.193 129.788,175.626 129.933,175.755 130.033 C 175.884 130.134,176.892 130.275,177.995 130.348 C 179.098 130.420,180.000 130.559,180.000 130.656 C 180.000 130.754,182.859 130.833,186.354 130.833 C 189.849 130.833,192.708 130.752,192.708 130.654 C 192.708 130.555,194.513 130.405,196.719 130.321 C 198.924 130.237,200.776 130.097,200.833 130.009 C 200.891 129.921,202.156 129.782,203.646 129.700 C 205.135 129.618,206.443 129.465,206.552 129.359 C 206.661 129.253,207.200 129.167,207.750 129.167 C 208.300 129.167,208.750 129.085,208.750 128.985 C 208.750 128.885,209.594 128.738,210.625 128.657 C 211.656 128.576,212.500 128.433,212.500 128.338 C 212.500 128.243,213.063 128.101,213.750 128.021 C 214.438 127.941,215.053 127.791,215.117 127.688 C 215.181 127.585,215.462 127.500,215.741 127.500 C 216.021 127.500,216.250 127.417,216.250 127.315 C 216.250 127.213,216.577 127.068,216.978 126.993 C 217.824 126.834,219.792 125.857,219.792 125.595 C 219.792 125.497,219.928 125.417,220.096 125.417 C 220.411 125.417,221.458 124.406,221.458 124.102 C 221.458 124.007,221.609 123.778,221.793 123.594 C 222.198 123.189,222.143 119.044,221.730 118.789 C 221.599 118.708,221.427 118.385,221.348 118.071 C 221.269 117.757,221.121 117.500,221.019 117.500 C 220.917 117.500,220.833 117.394,220.833 117.263 C 220.833 117.133,220.599 116.810,220.313 116.544 C 220.026 116.279,219.792 115.974,219.792 115.867 C 219.792 115.600,215.327 111.109,214.167 110.209 C 213.651 109.809,213.058 109.270,212.849 109.012 C 212.641 108.753,212.344 108.542,212.190 108.542 C 212.036 108.542,211.878 108.468,211.840 108.378 C 211.802 108.288,211.351 107.889,210.838 107.492 C 210.326 107.095,209.780 106.654,209.626 106.510 C 209.471 106.367,209.248 106.250,209.130 106.250 C 209.011 106.250,208.730 106.016,208.504 105.729 C 208.279 105.443,208.004 105.208,207.893 105.208 C 207.679 105.208,207.615 105.164,206.431 104.174 C 206.015 103.826,205.569 103.542,205.441 103.542 C 205.313 103.542,205.208 103.454,205.208 103.347 C 205.208 103.241,205.037 103.099,204.828 103.032 C 204.619 102.966,204.264 102.749,204.039 102.550 C 203.363 101.951,202.322 101.250,202.109 101.250 C 201.999 101.250,201.878 101.177,201.840 101.087 C 201.748 100.870,199.170 99.167,198.935 99.167 C 198.833 99.167,198.750 99.071,198.750 98.953 C 198.750 98.836,198.539 98.648,198.281 98.537 C 197.743 98.304,197.028 97.871,196.875 97.686 C 196.818 97.617,195.880 97.013,194.792 96.345 C 193.703 95.676,192.781 95.054,192.743 94.961 C 192.705 94.868,192.555 94.792,192.411 94.792 C 192.266 94.792,191.876 94.557,191.543 94.271 C 191.210 93.985,190.874 93.750,190.796 93.750 C 190.718 93.750,190.109 93.391,189.442 92.952 C 188.775 92.513,187.808 91.928,187.293 91.650 C 186.778 91.373,186.197 91.005,186.002 90.833 C 185.807 90.661,185.198 90.289,184.647 90.005 C 184.096 89.721,183.599 89.433,183.542 89.364 C 183.484 89.296,183.111 89.059,182.712 88.838 C 182.313 88.618,181.861 88.320,181.708 88.177 C 181.554 88.034,181.295 87.917,181.131 87.917 C 180.967 87.917,180.833 87.834,180.833 87.733 C 180.833 87.631,180.669 87.494,180.469 87.426 C 180.115 87.307,179.378 86.877,179.167 86.667 C 179.109 86.609,178.734 86.389,178.333 86.176 C 176.774 85.351,175.308 84.515,175.208 84.396 C 175.151 84.327,174.448 83.943,173.646 83.542 C 172.844 83.141,172.156 82.742,172.118 82.656 C 172.080 82.570,171.924 82.500,171.771 82.500 C 171.618 82.500,171.462 82.430,171.424 82.344 C 171.385 82.258,170.885 81.953,170.313 81.667 C 169.740 81.380,169.224 81.099,169.167 81.042 C 168.996 80.871,167.463 80.018,166.458 79.536 C 165.943 79.288,165.474 79.023,165.417 78.946 C 165.359 78.869,165.078 78.734,164.792 78.646 C 164.505 78.558,164.224 78.428,164.167 78.357 C 163.938 78.076,160.377 76.250,160.058 76.250 C 159.911 76.250,159.792 76.156,159.792 76.042 C 159.792 75.927,159.651 75.833,159.479 75.833 C 159.307 75.833,159.167 75.750,159.167 75.648 C 159.167 75.545,158.910 75.397,158.596 75.319 C 158.282 75.240,157.977 75.112,157.919 75.036 C 157.860 74.959,157.484 74.730,157.083 74.527 L 156.354 74.158 156.422 72.237 C 156.460 71.181,156.567 70.222,156.660 70.106 C 156.753 69.990,156.897 67.996,156.980 65.674 C 157.064 63.353,157.215 61.402,157.316 61.339 C 158.203 60.791,157.226 59.490,156.299 59.985 C 156.100 60.091,155.773 60.229,155.573 60.291 C 155.372 60.353,155.208 60.594,155.208 60.827 C 155.208 61.060,155.121 61.250,155.015 61.250 C 154.909 61.250,154.757 61.766,154.678 62.396 C 154.600 63.026,154.452 63.542,154.351 63.542 C 154.250 63.542,154.167 63.782,154.167 64.076 C 154.167 64.370,154.072 64.788,153.956 65.004 C 153.840 65.220,153.686 65.964,153.614 66.657 C 153.542 67.350,153.412 67.917,153.325 67.917 C 153.239 67.917,153.102 68.667,153.021 69.583 C 152.940 70.500,152.789 71.250,152.687 71.250 C 152.584 71.250,152.500 71.444,152.500 71.681 C 152.500 72.104,151.751 72.094,151.458 71.667 C 151.401 71.583,151.120 71.442,150.833 71.354 C 150.547 71.266,150.266 71.131,150.208 71.055 C 150.063 70.861,148.633 70.208,148.354 70.208 C 148.228 70.208,148.125 70.125,148.125 70.023 C 148.125 69.920,147.873 69.774,147.565 69.696 C 147.257 69.619,146.759 69.381,146.458 69.167 C 146.158 68.953,145.660 68.714,145.352 68.637 C 145.044 68.560,144.792 68.420,144.792 68.327 C 144.792 68.234,144.510 68.096,144.167 68.021 C 143.823 67.945,143.542 67.797,143.542 67.692 C 143.542 67.586,143.409 67.500,143.246 67.500 C 142.935 67.500,141.639 66.870,141.456 66.631 C 141.398 66.554,141.070 66.423,140.727 66.339 C 140.384 66.255,140.057 66.122,140.000 66.044 C 139.831 65.814,137.110 64.583,136.770 64.583 C 136.599 64.583,136.458 64.490,136.458 64.375 C 136.458 64.260,136.318 64.167,136.146 64.167 C 135.974 64.167,135.833 64.073,135.833 63.958 C 135.833 63.844,135.716 63.747,135.573 63.743 C 135.430 63.739,134.938 63.555,134.479 63.333 C 134.021 63.112,133.529 62.928,133.385 62.924 C 133.242 62.920,133.124 62.846,133.123 62.760 C 133.121 62.674,132.723 62.428,132.237 62.212 C 130.372 61.383,129.894 61.141,129.826 60.990 C 129.788 60.904,129.678 60.833,129.581 60.833 C 129.388 60.833,127.314 59.913,125.257 58.915 C 124.048 58.328,123.488 57.918,123.894 57.916 C 123.987 57.915,124.394 57.610,124.799 57.239 C 125.204 56.867,125.954 56.238,126.466 55.841 C 126.977 55.444,127.602 54.905,127.855 54.643 C 128.107 54.381,128.366 54.167,128.429 54.167 C 128.536 54.167,129.472 53.387,130.118 52.760 C 130.266 52.617,130.453 52.500,130.534 52.500 C 130.615 52.500,130.880 52.287,131.122 52.026 C 131.364 51.766,131.759 51.414,131.998 51.245 C 132.394 50.966,133.761 49.844,134.849 48.906 C 135.082 48.706,135.332 48.542,135.405 48.542 C 135.478 48.542,135.886 48.214,136.311 47.812 C 136.736 47.411,137.154 47.083,137.240 47.082 C 137.326 47.082,137.695 46.801,138.062 46.457 C 138.428 46.114,138.792 45.833,138.871 45.833 C 138.950 45.833,139.232 45.599,139.497 45.313 C 139.763 45.026,140.038 44.792,140.109 44.792 C 140.180 44.792,140.361 44.674,140.510 44.531 C 140.660 44.388,140.991 44.130,141.246 43.958 C 141.501 43.786,142.004 43.390,142.365 43.076 C 142.726 42.763,143.096 42.505,143.187 42.503 C 143.278 42.501,143.570 42.266,143.836 41.979 C 144.101 41.693,144.418 41.458,144.540 41.458 C 144.662 41.458,144.936 41.237,145.149 40.966 C 145.362 40.695,145.744 40.407,145.997 40.327 C 146.251 40.246,146.458 40.099,146.458 40.000 C 146.458 39.901,146.622 39.767,146.823 39.703 C 147.023 39.638,147.469 39.353,147.813 39.068 C 148.156 38.783,148.534 38.470,148.651 38.373 C 148.769 38.275,149.144 38.018,149.485 37.801 C 149.825 37.584,150.179 37.286,150.271 37.140 C 150.362 36.994,150.573 36.875,150.740 36.875 C 150.906 36.875,151.042 36.788,151.042 36.681 C 151.042 36.574,151.213 36.432,151.422 36.366 C 151.631 36.299,151.984 36.082,152.208 35.883 C 152.431 35.684,153.081 35.198,153.651 34.802 C 154.221 34.407,154.734 34.032,154.792 33.969 C 154.849 33.906,155.388 33.526,155.989 33.125 C 156.591 32.724,157.083 32.326,157.083 32.240 C 157.083 32.154,157.217 32.083,157.381 32.083 C 157.545 32.083,157.802 31.961,157.954 31.811 C 158.105 31.662,158.534 31.360,158.906 31.141 C 159.279 30.923,159.583 30.670,159.583 30.580 C 159.583 30.490,159.727 30.417,159.902 30.417 C 160.078 30.417,160.272 30.285,160.334 30.123 C 160.396 29.961,160.674 29.772,160.953 29.702 C 161.231 29.633,161.458 29.483,161.458 29.371 C 161.458 29.259,161.599 29.167,161.771 29.167 C 161.943 29.167,162.083 29.073,162.083 28.958 C 162.083 28.844,162.217 28.750,162.381 28.750 C 162.545 28.750,162.804 28.633,162.957 28.490 C 163.110 28.346,163.586 28.050,164.014 27.832 C 164.442 27.613,164.792 27.366,164.792 27.281 C 164.792 27.197,165.049 27.064,165.362 26.985 C 165.676 26.906,165.981 26.779,166.040 26.701 C 166.098 26.624,166.802 26.249,167.604 25.868 C 168.406 25.488,169.206 25.102,169.382 25.011 C 169.557 24.919,170.026 24.778,170.424 24.697 C 170.821 24.616,171.441 24.448,171.801 24.324 C 173.031 23.901,174.554 24.904,174.736 26.256 C 174.797 26.711,174.928 27.083,175.027 27.083 C 175.265 27.083,175.263 31.400,175.025 31.547 C 174.925 31.609,174.774 32.927,174.691 34.476 C 174.609 36.025,174.457 37.292,174.354 37.292 C 174.251 37.292,174.167 37.802,174.167 38.425 C 174.167 39.049,174.084 39.610,173.983 39.672 C 173.883 39.734,173.733 40.677,173.651 41.767 C 173.570 42.857,173.429 43.795,173.339 43.851 C 173.249 43.907,173.108 44.750,173.027 45.726 C 172.946 46.702,172.803 47.500,172.711 47.500 C 172.618 47.500,172.490 47.898,172.426 48.385 C 172.102 50.850,171.791 52.500,171.650 52.500 C 171.564 52.500,171.428 53.203,171.347 54.063 C 171.267 54.922,171.118 55.625,171.017 55.625 C 170.916 55.625,170.833 55.901,170.833 56.238 C 170.833 56.575,170.740 56.908,170.625 56.979 C 170.510 57.050,170.417 57.337,170.417 57.616 C 170.417 58.673,173.265 58.138,174.629 56.826 C 175.354 56.129,176.458 54.662,176.458 54.397 C 176.458 54.270,176.546 54.167,176.653 54.167 C 176.759 54.167,176.913 53.956,176.993 53.698 C 177.074 53.440,177.202 53.182,177.279 53.125 C 177.472 52.980,178.125 51.549,178.125 51.271 C 178.125 51.145,178.219 51.042,178.333 51.042 C 178.448 51.042,178.542 50.878,178.543 50.677 C 178.543 50.477,178.775 49.855,179.059 49.296 C 179.342 48.738,179.634 47.964,179.706 47.578 C 179.779 47.191,179.913 46.875,180.004 46.875 C 180.095 46.875,180.234 46.406,180.313 45.833 C 180.391 45.260,180.541 44.792,180.645 44.792 C 180.748 44.792,180.833 44.557,180.833 44.271 C 180.833 43.984,180.918 43.750,181.022 43.750 C 181.126 43.750,181.275 43.281,181.354 42.709 C 181.433 42.136,181.576 41.619,181.672 41.559 C 181.767 41.500,181.910 40.938,181.989 40.309 C 182.067 39.681,182.214 39.167,182.316 39.167 C 182.417 39.167,182.500 38.891,182.500 38.554 C 182.500 38.217,182.585 37.889,182.688 37.825 C 182.791 37.761,182.941 37.146,183.021 36.458 C 183.101 35.770,183.245 35.159,183.342 35.099 C 183.438 35.039,183.582 34.336,183.661 33.537 C 183.739 32.737,183.875 32.083,183.962 32.083 C 184.132 32.083,184.224 31.667,184.622 29.115 C 184.761 28.227,184.942 27.500,185.026 27.500 C 185.109 27.500,185.243 26.656,185.324 25.625 C 185.404 24.594,185.543 23.750,185.632 23.750 C 185.797 23.750,185.856 23.358,186.258 19.583 C 186.545 16.886,186.433 11.558,186.081 11.206 C 185.945 11.070,185.833 10.790,185.833 10.583 C 185.833 10.377,185.750 10.208,185.648 10.208 C 185.545 10.208,185.401 9.966,185.327 9.670 C 185.153 8.979,184.354 8.180,183.664 8.007 C 183.367 7.932,183.125 7.788,183.125 7.686 C 183.125 7.584,182.094 7.500,180.833 7.500 C 179.573 7.500,178.542 7.581,178.542 7.680 M120.208 61.650 C 120.208 61.756,120.490 61.904,120.833 61.979 C 121.177 62.055,121.458 62.181,121.458 62.259 C 121.458 62.414,122.998 63.125,123.335 63.125 C 123.449 63.125,123.542 63.198,123.542 63.288 C 123.542 63.377,123.799 63.562,124.115 63.697 C 124.430 63.833,125.293 64.276,126.033 64.681 C 126.774 65.085,127.500 65.417,127.648 65.417 C 127.796 65.417,127.917 65.510,127.917 65.625 C 127.917 65.740,128.057 65.833,128.229 65.833 C 128.401 65.833,128.542 65.920,128.542 66.025 C 128.542 66.131,128.823 66.279,129.167 66.354 C 129.510 66.430,129.792 66.568,129.792 66.661 C 129.792 66.754,130.038 66.892,130.339 66.967 C 130.640 67.043,131.225 67.334,131.638 67.615 C 132.051 67.895,132.507 68.125,132.653 68.125 C 132.798 68.125,132.917 68.209,132.917 68.311 C 132.917 68.413,133.174 68.561,133.487 68.640 C 133.801 68.719,134.106 68.846,134.165 68.923 C 134.223 69.000,134.927 69.391,135.729 69.792 C 136.531 70.193,137.234 70.569,137.292 70.627 C 137.349 70.685,137.771 70.920,138.229 71.148 C 138.688 71.376,139.094 71.633,139.132 71.719 C 139.170 71.805,139.328 71.875,139.482 71.875 C 139.636 71.875,139.886 71.992,140.037 72.136 C 140.189 72.279,140.688 72.584,141.146 72.813 C 141.604 73.042,142.455 73.522,143.037 73.881 C 143.619 74.239,144.318 74.603,144.590 74.690 C 144.862 74.776,145.213 74.975,145.370 75.132 C 145.527 75.288,145.789 75.417,145.952 75.417 C 146.116 75.417,146.250 75.510,146.250 75.625 C 146.250 75.740,146.391 75.833,146.563 75.833 C 146.734 75.833,146.877 75.904,146.879 75.990 C 146.882 76.076,147.395 76.380,148.021 76.667 C 148.646 76.953,149.160 77.258,149.162 77.344 C 149.165 77.430,149.307 77.500,149.479 77.500 C 149.651 77.500,149.792 77.587,149.792 77.694 C 149.792 77.801,149.998 77.954,150.251 78.034 C 151.162 78.323,151.688 80.078,151.063 80.740 C 150.867 80.947,150.787 81.391,150.383 84.531 C 150.247 85.591,150.068 86.458,149.986 86.458 C 149.903 86.458,149.769 87.303,149.687 88.335 C 149.606 89.367,149.455 90.263,149.353 90.326 C 149.250 90.389,149.167 90.805,149.167 91.250 C 149.167 91.695,149.081 92.112,148.977 92.176 C 148.873 92.240,148.721 93.090,148.640 94.063 C 148.559 95.037,148.419 95.833,148.330 95.833 C 148.241 95.833,148.102 96.584,148.021 97.501 C 147.940 98.418,147.789 99.221,147.687 99.284 C 147.584 99.348,147.500 99.764,147.500 100.208 C 147.500 100.653,147.417 101.068,147.316 101.131 C 147.215 101.193,147.067 101.948,146.986 102.808 C 146.906 103.668,146.763 104.419,146.670 104.477 C 146.577 104.535,146.435 105.239,146.354 106.042 C 146.274 106.845,146.123 107.554,146.020 107.617 C 145.918 107.681,145.833 108.050,145.833 108.438 C 145.833 108.825,145.745 109.197,145.637 109.263 C 145.529 109.330,145.376 110.039,145.298 110.838 C 145.219 111.638,145.079 112.292,144.986 112.292 C 144.894 112.292,144.789 112.596,144.753 112.969 C 144.690 113.624,144.653 113.648,143.646 113.710 C 143.073 113.746,142.515 113.863,142.406 113.971 C 142.297 114.079,141.717 114.167,141.116 114.167 C 140.516 114.167,139.972 114.251,139.908 114.355 C 139.844 114.458,138.806 114.610,137.601 114.693 C 136.396 114.775,135.365 114.915,135.309 115.005 C 135.254 115.095,134.223 115.235,133.018 115.318 C 131.813 115.400,130.776 115.549,130.714 115.650 C 130.651 115.751,130.096 115.833,129.479 115.833 C 128.862 115.833,128.307 115.916,128.245 116.016 C 128.182 116.117,127.029 116.268,125.680 116.351 C 124.332 116.434,123.135 116.563,123.021 116.637 C 122.836 116.756,119.760 117.102,116.146 117.411 C 115.458 117.469,114.708 117.600,114.479 117.701 C 113.360 118.194,108.750 118.150,108.750 117.646 C 108.750 117.341,107.436 114.705,107.240 114.618 C 107.154 114.580,107.083 114.447,107.083 114.322 C 107.083 114.044,105.816 111.395,105.614 111.250 C 105.534 111.193,105.403 110.841,105.322 110.469 C 105.241 110.096,105.096 109.792,105.000 109.792 C 104.904 109.792,104.763 109.510,104.688 109.167 C 104.612 108.823,104.464 108.542,104.358 108.542 C 104.253 108.542,104.167 108.401,104.167 108.229 C 104.167 108.057,104.083 107.917,103.982 107.917 C 103.880 107.917,103.735 107.589,103.660 107.188 C 103.584 106.786,103.441 106.458,103.340 106.458 C 103.240 106.458,103.096 106.177,103.021 105.833 C 102.945 105.490,102.797 105.208,102.692 105.208 C 102.586 105.208,102.500 105.068,102.500 104.896 C 102.500 104.724,102.417 104.583,102.315 104.583 C 102.213 104.583,102.068 104.255,101.993 103.854 C 101.918 103.453,101.767 103.125,101.657 103.125 C 101.548 103.125,101.458 102.990,101.458 102.825 C 101.458 102.660,101.177 101.983,100.833 101.320 C 100.490 100.658,100.208 99.996,100.208 99.849 C 100.208 99.703,100.115 99.583,100.000 99.583 C 99.885 99.583,99.792 99.480,99.792 99.354 C 99.792 99.076,99.139 97.645,98.945 97.500 C 98.869 97.443,98.735 97.161,98.649 96.875 C 98.397 96.038,97.445 94.069,97.256 93.993 C 97.161 93.955,97.083 93.786,97.083 93.617 C 97.083 93.448,96.909 92.917,96.696 92.436 C 96.483 91.956,96.179 91.258,96.020 90.885 C 95.862 90.513,95.668 90.208,95.591 90.208 C 95.513 90.208,95.388 89.926,95.312 89.581 C 95.236 89.236,95.053 88.697,94.905 88.383 C 94.757 88.069,94.507 87.508,94.350 87.135 C 94.193 86.763,93.994 86.458,93.907 86.458 C 93.341 86.458,98.236 81.374,103.034 76.979 C 104.034 76.063,105.629 74.563,106.577 73.646 C 109.339 70.976,112.544 67.993,113.333 67.358 C 113.734 67.035,114.536 66.303,115.115 65.730 C 115.694 65.156,116.625 64.313,117.183 63.854 C 118.472 62.797,118.750 62.517,118.750 62.277 C 118.750 62.170,118.879 62.083,119.037 62.083 C 119.195 62.083,119.441 61.943,119.583 61.771 C 119.873 61.422,120.208 61.357,120.208 61.650 " stroke="none" fill="#ec1c24" fill-rule="evenodd"></path><path id="path2" d="" stroke="none" fill="#4834a0" fill-rule="evenodd"></path><path id="path3" d="" stroke="none" fill="#4834a0" fill-rule="evenodd"></path><path id="path4" d="" stroke="none" fill="#4834a0" fill-rule="evenodd"></path></g></svg>