<svg width="400" height="208.33333333333334" xmlns="http://www.w3.org/2000/svg">

 <g>
  <title>background</title>
  <rect fill="none" id="canvas_background" height="402" width="582" y="-1" x="-1"/>
 </g>
 <g>
  <title>Layer 1</title>
  <g id="svgg">
   <path fill-rule="evenodd" fill="#ffffff" d="m385.781,123.054c-0.315,0.054 -0.573,0.186 -0.573,0.293c0,0.107 -0.132,0.195 -0.294,0.195c-0.678,0 -2.414,2.25 -2.414,3.129c0,0.213 -0.094,0.446 -0.208,0.517c-0.115,0.07 -0.209,0.539 -0.209,1.041c0,0.502 0.094,0.971 0.209,1.042c0.114,0.071 0.208,0.293 0.208,0.494c0,0.982 1.035,2.46 2.292,3.274c0.986,0.638 4.989,0.935 5.372,0.399c0.082,-0.115 0.477,-0.375 0.878,-0.579c0.401,-0.203 0.916,-0.667 1.146,-1.031c0.229,-0.364 0.536,-0.854 0.683,-1.089c0.561,-0.898 0.247,-4.667 -0.473,-5.667c-1.26,-1.749 -3.752,-2.509 -6.617,-2.018m2.918,1.655c0.345,0.069 1.083,0.544 1.641,1.056l1.014,0.931l0,1.643c0,1.771 -0.544,2.783 -1.024,1.905c-0.104,-0.191 -0.252,-0.395 -0.327,-0.452c-0.076,-0.058 -0.2,-0.245 -0.277,-0.417c-0.077,-0.172 -0.258,-0.489 -0.402,-0.704c-0.209,-0.313 -0.209,-0.41 -0.001,-0.486c0.161,-0.059 0.26,-0.495 0.26,-1.147c0,-1.467 -0.448,-1.83 -2.261,-1.83c-0.819,0 -1.285,-0.075 -1.166,-0.188c0.392,-0.373 1.537,-0.513 2.543,-0.311m-3.325,4.917l-0.061,1.52l-0.573,-0.881c-0.883,-1.359 -0.733,-3.24 0.364,-4.552c0.242,-0.29 0.367,1.516 0.27,3.913m2.599,-2.907c0.149,0.428 -0.075,0.781 -0.495,0.781c-0.282,0 -0.395,-0.149 -0.395,-0.521c0,-0.557 0.713,-0.766 0.89,-0.26m0.137,3.333c0.337,0.487 0.761,1.052 0.943,1.255c0.294,0.327 0.295,0.38 0.014,0.469c-0.174,0.054 -0.474,0.149 -0.666,0.211c-0.476,0.152 -2.151,-0.115 -2.151,-0.344c0,-0.102 0.188,-0.185 0.417,-0.185c0.366,0 0.416,-0.139 0.416,-1.145c0,-1.378 0.216,-1.433 1.027,-0.261m-380.506,8.281c-0.071,0.115 -0.398,0.209 -0.728,0.209c-1.232,0 -2.966,1.269 -3.243,2.374c-0.076,0.301 -0.221,0.598 -0.323,0.661c-0.267,0.165 -0.244,50.298 0.023,50.298c0.115,0 0.209,0.125 0.209,0.278c0,0.462 1.234,1.412 1.995,1.536c0.392,0.063 0.713,0.197 0.713,0.297c0,0.235 2.024,0.236 2.17,0c0.061,-0.099 0.5,-0.232 0.974,-0.296c1.716,-0.23 2.689,-1.801 2.689,-4.341c0,-0.673 0.087,-1.224 0.193,-1.224c0.107,0 0.244,-0.773 0.307,-1.719c0.385,-5.852 0.626,-8.606 0.759,-8.698c0.084,-0.057 0.222,-1.58 0.306,-3.385c0.084,-1.805 0.235,-3.281 0.336,-3.281c0.1,0 0.183,-0.512 0.183,-1.138c0,-2.015 1.387,-3.654 3.092,-3.654c0.348,0 0.691,-0.094 0.762,-0.208c0.071,-0.115 0.807,-0.209 1.637,-0.209c0.83,0 1.598,-0.085 1.707,-0.189c0.108,-0.104 2.549,-0.256 5.423,-0.338l5.225,-0.149l0.556,0.556l0.556,0.556l0,11.24c0,7.355 0.072,11.241 0.208,11.241c0.115,0 0.209,0.478 0.209,1.062c0,1.713 1.421,3.938 2.515,3.938c0.221,0 0.401,0.094 0.401,0.208c0,0.126 0.855,0.209 2.149,0.209c2.429,0 3.438,-0.337 4.385,-1.462c0.5,-0.595 0.73,-1.029 1.354,-2.559c0.314,-0.769 0.342,-47.348 0.029,-47.542c-0.115,-0.071 -0.208,-0.357 -0.208,-0.637c0,-0.28 -0.084,-0.509 -0.186,-0.509c-0.102,0 -0.249,-0.252 -0.327,-0.561c-0.281,-1.123 -1.983,-2.355 -3.251,-2.355c-0.336,0 -0.611,-0.094 -0.611,-0.209c0,-0.114 -0.37,-0.208 -0.821,-0.208c-0.452,0 -0.879,0.094 -0.95,0.208c-0.071,0.115 -0.478,0.209 -0.904,0.209c-0.426,0 -1.006,0.16 -1.289,0.355c-0.737,0.509 -1.661,1.452 -1.661,1.695c0,0.113 -0.108,0.243 -0.24,0.287c-0.132,0.044 -0.279,0.637 -0.326,1.319c-0.048,0.682 -0.174,1.427 -0.28,1.656c-0.107,0.229 -0.218,3.705 -0.247,7.724c-0.047,6.518 -0.091,7.344 -0.403,7.656c-0.316,0.316 -1.167,0.349 -8.854,0.343c-8.684,-0.007 -9.234,-0.055 -9.234,-0.798c0,-0.13 -0.093,-0.237 -0.208,-0.237c-0.135,0 -0.208,-2.813 -0.208,-8.021c0,-4.425 -0.082,-8.021 -0.182,-8.021c-0.1,0 -0.242,-0.375 -0.315,-0.833c-0.073,-0.459 -0.226,-0.834 -0.339,-0.834c-0.113,0 -0.206,-0.125 -0.206,-0.278c0,-0.692 -2.013,-2.01 -3.073,-2.012c-0.372,-0.001 -0.677,-0.095 -0.677,-0.21c0,-0.114 -0.369,-0.208 -0.821,-0.208c-0.452,0 -0.879,0.094 -0.95,0.208m67.709,0c-0.071,0.115 -0.304,0.209 -0.517,0.209c-0.58,0 -1.654,0.674 -1.801,1.129c-0.071,0.221 -0.309,0.594 -0.529,0.83c-0.219,0.235 -0.455,0.664 -0.524,0.953c-0.068,0.289 -0.201,0.624 -0.295,0.744c-0.094,0.12 -0.233,0.612 -0.31,1.094c-0.077,0.481 -0.222,0.875 -0.322,0.875c-0.1,0 -0.182,0.13 -0.182,0.288c0,0.159 -0.14,0.558 -0.311,0.886c-0.171,0.328 -0.312,0.807 -0.312,1.065c-0.001,0.258 -0.095,0.469 -0.21,0.469c-0.115,0 -0.208,0.197 -0.208,0.437c0,0.394 -0.361,1.384 -0.837,2.298c-0.097,0.186 -0.24,0.678 -0.318,1.094c-0.078,0.415 -0.225,0.754 -0.327,0.754c-0.102,0 -0.185,0.197 -0.185,0.438c0,0.397 -0.368,1.402 -0.847,2.314c-0.103,0.195 -0.247,0.734 -0.322,1.198c-0.074,0.463 -0.215,0.842 -0.313,0.842c-0.099,0 -0.24,0.375 -0.313,0.833c-0.073,0.459 -0.215,0.834 -0.315,0.834c-0.1,0 -0.182,0.182 -0.182,0.404c0,0.222 -0.083,0.456 -0.184,0.519c-0.102,0.062 -0.246,0.439 -0.321,0.836c-0.074,0.398 -0.272,0.985 -0.439,1.305c-0.167,0.32 -0.304,0.792 -0.304,1.05c-0.001,0.258 -0.095,0.469 -0.21,0.469c-0.115,0 -0.208,0.234 -0.208,0.521c0,0.286 -0.086,0.521 -0.19,0.521c-0.105,0 -0.254,0.374 -0.331,0.832c-0.077,0.458 -0.216,0.878 -0.307,0.935c-0.092,0.057 -0.231,0.444 -0.309,0.86c-0.078,0.417 -0.221,0.91 -0.318,1.096c-0.429,0.823 -0.837,1.886 -0.837,2.181c0,0.177 -0.086,0.374 -0.19,0.439c-0.105,0.064 -0.257,0.515 -0.338,1.002c-0.082,0.486 -0.213,0.931 -0.293,0.988c-0.229,0.164 -0.846,1.839 -0.846,2.296c0,0.227 -0.083,0.412 -0.185,0.412c-0.102,0 -0.249,0.34 -0.327,0.755c-0.077,0.415 -0.221,0.907 -0.318,1.094c-0.476,0.914 -0.836,1.904 -0.836,2.297c0,0.241 -0.094,0.438 -0.209,0.438c-0.114,0 -0.208,0.196 -0.208,0.437c0,0.388 -0.351,1.357 -0.824,2.278c-0.091,0.175 -0.232,0.627 -0.315,1.003c-0.083,0.377 -0.281,0.936 -0.442,1.244c-0.16,0.307 -0.292,0.677 -0.293,0.822c0,0.145 -0.109,0.473 -0.242,0.729c-0.448,0.866 -0.539,1.103 -0.69,1.789c-0.082,0.376 -0.281,0.936 -0.442,1.243c-0.16,0.307 -0.292,0.77 -0.292,1.028c-0.001,0.257 -0.095,0.468 -0.21,0.468c-0.116,0 -0.208,0.558 -0.208,1.258c0,1.389 0.417,2.284 1.065,2.284c0.216,0 0.393,0.094 0.393,0.208c0,0.328 1.321,0.244 2.103,-0.133c0.941,-0.454 1.598,-1.216 1.89,-2.193c0.132,-0.439 0.314,-0.799 0.406,-0.799c0.091,0 0.227,-0.328 0.302,-0.729c0.075,-0.401 0.197,-0.729 0.271,-0.729c0.074,0 0.265,-0.305 0.423,-0.677c0.159,-0.372 0.463,-1.07 0.676,-1.551c0.213,-0.481 0.387,-0.973 0.387,-1.094c0,-0.121 0.072,-0.22 0.16,-0.22c0.167,0 0.882,-1.52 0.882,-1.876c0,-0.114 0.094,-0.207 0.208,-0.207c0.115,0 0.209,-0.099 0.209,-0.22c0,-0.121 0.19,-0.636 0.422,-1.146l0.421,-0.926l10.073,0l10.072,0l0.133,0.834c0.074,0.458 0.226,0.833 0.339,0.833c0.114,0 0.206,0.15 0.206,0.333c0,0.356 0.617,1.785 0.845,1.959c0.075,0.057 0.202,0.455 0.281,0.885c0.079,0.43 0.233,0.781 0.342,0.781c0.109,0 0.2,0.164 0.2,0.365c0.001,0.2 0.142,0.633 0.313,0.961c0.171,0.328 0.311,0.727 0.311,0.886c0,0.158 0.094,0.288 0.208,0.288c0.115,0 0.209,0.146 0.209,0.324c0,0.868 0.923,2.322 2.11,3.322c0.605,0.511 6.215,0.648 6.379,0.156c0.048,-0.143 0.196,-0.263 0.33,-0.267c0.632,-0.018 2.014,-1.844 2.014,-2.662c0,-0.237 0.094,-0.489 0.208,-0.56c0.258,-0.159 0.28,-2.396 0.024,-2.396c-0.102,0 -0.248,-0.422 -0.325,-0.937c-0.078,-0.516 -0.218,-0.938 -0.313,-0.938c-0.095,0 -0.234,-0.328 -0.309,-0.729c-0.076,-0.401 -0.227,-0.729 -0.336,-0.729c-0.109,0 -0.199,-0.127 -0.199,-0.281c0,-0.253 -0.372,-1.169 -0.82,-2.018c-0.093,-0.175 -0.235,-0.621 -0.316,-0.989c-0.081,-0.369 -0.233,-0.671 -0.339,-0.671c-0.105,0 -0.192,-0.234 -0.192,-0.52c0,-0.287 -0.073,-0.521 -0.163,-0.521c-0.091,0 -0.392,-0.657 -0.67,-1.459c-0.278,-0.802 -0.579,-1.458 -0.67,-1.458c-0.09,0 -0.163,-0.234 -0.163,-0.521c0,-0.286 -0.09,-0.521 -0.199,-0.521c-0.11,0 -0.261,-0.328 -0.336,-0.729c-0.075,-0.401 -0.22,-0.729 -0.322,-0.729c-0.102,0 -0.186,-0.164 -0.186,-0.365c-0.001,-0.2 -0.142,-0.633 -0.313,-0.961c-0.171,-0.328 -0.311,-0.727 -0.311,-0.885c0,-0.159 -0.083,-0.289 -0.185,-0.289c-0.102,0 -0.247,-0.328 -0.322,-0.729c-0.075,-0.401 -0.226,-0.729 -0.336,-0.729c-0.109,0 -0.199,-0.164 -0.2,-0.365c-0.001,-0.2 -0.141,-0.633 -0.312,-0.961c-0.172,-0.328 -0.312,-0.727 -0.312,-0.886c0,-0.158 -0.083,-0.288 -0.185,-0.288c-0.102,0 -0.247,-0.328 -0.322,-0.729c-0.075,-0.402 -0.226,-0.73 -0.335,-0.73c-0.11,0 -0.199,-0.216 -0.199,-0.481c0,-0.264 -0.138,-0.663 -0.306,-0.885c-0.168,-0.223 -0.309,-0.569 -0.313,-0.769c-0.003,-0.201 -0.09,-0.365 -0.191,-0.365c-0.102,0 -0.247,-0.328 -0.322,-0.729c-0.076,-0.401 -0.215,-0.729 -0.309,-0.729c-0.095,0 -0.233,-0.375 -0.306,-0.833c-0.073,-0.459 -0.203,-0.834 -0.288,-0.834c-0.18,0 -0.589,-0.89 -0.789,-1.718c-0.076,-0.316 -0.21,-0.573 -0.297,-0.573c-0.088,0 -0.219,-0.375 -0.293,-0.834c-0.073,-0.458 -0.226,-0.833 -0.339,-0.833c-0.113,0 -0.206,-0.187 -0.206,-0.417c0,-0.229 -0.093,-0.416 -0.208,-0.416c-0.115,0 -0.209,-0.164 -0.21,-0.365c0,-0.2 -0.141,-0.633 -0.312,-0.961c-0.171,-0.328 -0.311,-0.679 -0.311,-0.78c0,-0.317 -0.717,-1.853 -0.865,-1.853c-0.077,0 -0.204,-0.375 -0.281,-0.833c-0.078,-0.458 -0.226,-0.833 -0.331,-0.833c-0.104,0 -0.19,-0.15 -0.19,-0.333c0,-0.356 -0.616,-1.785 -0.845,-1.959c-0.075,-0.057 -0.201,-0.456 -0.28,-0.885c-0.079,-0.43 -0.233,-0.782 -0.343,-0.782c-0.109,0 -0.199,-0.15 -0.199,-0.333c0,-0.356 -0.616,-1.785 -0.844,-1.958c-0.076,-0.058 -0.202,-0.456 -0.281,-0.886c-0.079,-0.429 -0.223,-0.781 -0.32,-0.781c-0.097,0 -0.239,-0.252 -0.316,-0.559c-0.241,-0.96 -1.811,-2.774 -2.4,-2.774c-0.219,0 -0.455,-0.094 -0.526,-0.209c-0.071,-0.114 -0.399,-0.208 -0.729,-0.208c-0.331,0 -0.659,0.094 -0.729,0.208m86.25,0c-0.071,0.115 -0.466,0.209 -0.879,0.209c-0.818,0 -2.142,0.843 -2.142,1.364c0,0.166 -0.094,0.302 -0.209,0.302c-0.137,0 -0.208,8.68 -0.208,25.623l0,25.622l0.573,0.828c0.315,0.455 0.65,0.832 0.744,0.836c0.094,0.004 0.312,0.149 0.484,0.321c0.171,0.171 0.534,0.312 0.806,0.312c0.271,0 0.551,0.094 0.622,0.208c0.162,0.262 28.78,0.289 28.942,0.028c0.061,-0.1 0.489,-0.242 0.949,-0.315c0.461,-0.074 0.838,-0.227 0.838,-0.34c0,-0.113 0.138,-0.206 0.305,-0.206c0.168,0 0.543,-0.35 0.834,-0.778c0.918,-1.351 0.591,-4.847 -0.454,-4.847c-0.148,0 -0.268,-0.087 -0.268,-0.194c0,-0.107 -0.211,-0.26 -0.469,-0.341c-0.258,-0.08 -0.535,-0.251 -0.617,-0.378c-0.105,-0.165 -3.36,-0.251 -11.198,-0.295l-11.049,-0.062l0,-7.813c0,-8.281 0.017,-8.446 1.011,-9.454c0.407,-0.412 1.731,-1.046 2.185,-1.046c0.176,0 0.379,-0.094 0.45,-0.209c0.07,-0.114 0.545,-0.208 1.053,-0.208c0.509,0 0.926,-0.078 0.926,-0.172c0,-0.095 0.914,-0.279 2.031,-0.408c3.897,-0.451 6.064,-0.775 6.217,-0.93c0.085,-0.086 0.608,-0.157 1.161,-0.157c0.554,0 1.007,-0.081 1.007,-0.181c0,-0.099 0.365,-0.229 0.81,-0.289c0.984,-0.132 2.107,-1.065 2.107,-1.752c0,-0.267 0.094,-0.486 0.208,-0.486c0.115,0 0.209,-0.229 0.209,-0.509c0,-0.279 -0.094,-0.566 -0.209,-0.637c-0.114,-0.071 -0.208,-0.343 -0.208,-0.605c0,-0.485 -0.578,-1.166 -0.989,-1.166c-0.124,0 -0.265,-0.117 -0.313,-0.26c-0.067,-0.201 -1.935,-0.274 -8.194,-0.318c-8.14,-0.058 -9.046,-0.139 -9.046,-0.811c0,-0.153 -0.093,-0.277 -0.208,-0.277c-0.133,0 -0.208,-1.806 -0.208,-5c0,-3.195 -0.076,-5 -0.209,-5c-0.114,0 -0.208,-0.22 -0.208,-0.489c0,-0.268 -0.234,-0.761 -0.52,-1.094l-0.52,-0.605l10.668,-0.054c6.693,-0.034 10.744,-0.131 10.874,-0.26c0.113,-0.114 0.422,-0.207 0.686,-0.207c0.263,0 0.479,-0.093 0.479,-0.208c0,-0.115 0.134,-0.208 0.297,-0.208c0.467,0 1.786,-1.356 1.786,-1.836c0,-0.237 0.103,-0.495 0.228,-0.572c0.221,-0.137 0.18,-0.738 -0.14,-2.071c-0.083,-0.344 -0.206,-0.672 -0.275,-0.73c-0.069,-0.057 -0.224,-0.283 -0.345,-0.502c-0.321,-0.584 -1.535,-1.164 -2.433,-1.164c-0.432,0 -0.785,-0.094 -0.785,-0.209c0,-0.136 -4.649,-0.208 -13.529,-0.208c-8.795,0 -13.575,0.073 -13.658,0.208m48.125,0c-0.071,0.115 -0.399,0.209 -0.728,0.209c-1.083,0 -3.127,1.332 -3.127,2.038c0,0.12 -0.117,0.258 -0.26,0.305c-0.432,0.144 -0.486,50.63 -0.055,51.061c0.173,0.174 0.315,0.376 0.315,0.45c0,0.174 0.556,0.729 0.73,0.729c0.073,0 0.274,0.141 0.446,0.313c0.172,0.171 0.54,0.312 0.818,0.312c0.279,0 0.506,0.094 0.506,0.208c0,0.263 26.384,0.29 26.546,0.027c0.062,-0.1 0.402,-0.239 0.755,-0.31c0.723,-0.144 1.638,-0.986 2.025,-1.862c0.309,-0.698 0.347,-3.271 0.049,-3.271c-0.114,0 -0.208,-0.095 -0.208,-0.21c0,-0.317 -1.073,-1.457 -1.371,-1.457c-0.144,0 -0.3,-0.117 -0.348,-0.26c-0.067,-0.203 -2.447,-0.274 -10.742,-0.322l-10.656,-0.061l0.256,-0.452c0.141,-0.248 0.374,-0.579 0.517,-0.735c0.143,-0.156 0.261,-0.511 0.261,-0.789c0,-0.278 0.087,-0.506 0.193,-0.506c0.479,0 0.909,-40.856 0.435,-41.33c-0.116,-0.116 -0.212,-0.427 -0.212,-0.691c0,-0.263 -0.093,-0.479 -0.208,-0.479c-0.115,0 -0.208,-0.134 -0.208,-0.298c0,-0.817 -2.096,-2.41 -3.172,-2.41c-0.433,0 -0.787,-0.094 -0.787,-0.209c0,-0.114 -0.369,-0.208 -0.821,-0.208c-0.451,0 -0.879,0.094 -0.949,0.208m94.687,0c-0.172,0.111 -0.5,0.205 -0.729,0.209c-0.462,0.007 -1.771,1.067 -1.771,1.433c0,0.128 -0.092,0.233 -0.204,0.233c-0.113,0 -0.264,0.235 -0.335,0.521c-0.072,0.287 -0.215,0.521 -0.317,0.521c-0.102,0 -0.186,0.177 -0.186,0.393c0,0.216 -0.14,0.661 -0.311,0.989c-0.171,0.329 -0.312,0.808 -0.312,1.066c-0.001,0.258 -0.095,0.469 -0.21,0.469c-0.115,0 -0.208,0.196 -0.208,0.437c0,0.388 -0.351,1.357 -0.825,2.278c-0.09,0.175 -0.232,0.627 -0.314,1.003c-0.083,0.377 -0.282,0.936 -0.442,1.244c-0.161,0.307 -0.292,0.677 -0.293,0.822c-0.001,0.145 -0.095,0.449 -0.21,0.677c-0.506,1.005 -0.58,1.194 -0.722,1.841c-0.083,0.376 -0.281,0.936 -0.442,1.243c-0.16,0.307 -0.292,0.77 -0.293,1.028c0,0.257 -0.095,0.468 -0.209,0.468c-0.115,0 -0.209,0.235 -0.209,0.521c0,0.287 -0.085,0.521 -0.19,0.521c-0.104,0 -0.253,0.375 -0.33,0.833c-0.078,0.459 -0.216,0.834 -0.308,0.834c-0.091,0 -0.229,0.422 -0.307,0.937c-0.077,0.516 -0.228,0.938 -0.336,0.938c-0.107,0 -0.195,0.234 -0.195,0.521c0,0.286 -0.086,0.52 -0.19,0.52c-0.105,0 -0.254,0.375 -0.331,0.834c-0.078,0.458 -0.218,0.833 -0.311,0.833c-0.094,0 -0.235,0.469 -0.314,1.042c-0.079,0.573 -0.213,1.041 -0.298,1.041c-0.086,0 -0.331,0.539 -0.545,1.198c-0.215,0.659 -0.454,1.292 -0.531,1.407c-0.077,0.114 -0.21,0.536 -0.295,0.937c-0.085,0.401 -0.214,0.776 -0.286,0.833c-0.195,0.155 -0.86,2.13 -0.859,2.552c0.001,0.201 -0.084,0.365 -0.189,0.365c-0.104,0 -0.253,0.375 -0.33,0.833c-0.078,0.459 -0.227,0.834 -0.331,0.834c-0.105,0 -0.19,0.176 -0.19,0.393c0,0.216 -0.14,0.661 -0.312,0.989c-0.171,0.328 -0.311,0.808 -0.312,1.066c-0.001,0.257 -0.087,0.468 -0.191,0.468c-0.105,0 -0.254,0.375 -0.331,0.834c-0.078,0.458 -0.226,0.833 -0.331,0.833c-0.104,0 -0.19,0.229 -0.19,0.509c0,0.279 -0.094,0.566 -0.208,0.637c-0.115,0.071 -0.209,0.287 -0.21,0.481c-0.001,0.194 -0.142,0.622 -0.314,0.953c-0.173,0.33 -0.372,0.963 -0.442,1.406c-0.071,0.443 -0.211,0.806 -0.311,0.806c-0.1,0 -0.182,0.13 -0.182,0.288c0,0.159 -0.14,0.558 -0.311,0.886c-0.171,0.328 -0.312,0.807 -0.312,1.065c-0.001,0.258 -0.09,0.469 -0.197,0.469c-0.108,0 -0.259,0.422 -0.336,0.938c-0.078,0.515 -0.224,0.937 -0.326,0.937c-0.101,0 -0.184,0.13 -0.184,0.289c0,0.158 -0.14,0.557 -0.312,0.885c-0.171,0.328 -0.311,0.808 -0.312,1.066c-0.001,0.257 -0.095,0.468 -0.21,0.468c-0.117,0 -0.208,0.591 -0.208,1.355c0,0.744 0.083,1.354 0.184,1.354c0.101,0 0.233,0.187 0.293,0.416c0.065,0.25 0.284,0.417 0.545,0.417c0.24,0 0.436,0.094 0.436,0.208c0,0.353 1.334,0.231 2.237,-0.205c0.969,-0.468 1.601,-1.249 1.816,-2.243c0.081,-0.372 0.211,-0.677 0.29,-0.677c0.155,0 0.866,-1.54 0.866,-1.876c0,-0.114 0.086,-0.207 0.191,-0.207c0.106,0 0.254,-0.28 0.329,-0.623c0.075,-0.342 0.223,-0.676 0.329,-0.741c0.106,-0.065 0.192,-0.301 0.192,-0.523c0,-0.223 0.087,-0.405 0.192,-0.405c0.106,0 0.254,-0.281 0.329,-0.625c0.076,-0.343 0.219,-0.625 0.32,-0.625c0.1,0 0.244,-0.328 0.319,-0.729c0.075,-0.401 0.197,-0.73 0.27,-0.731c0.129,-0.003 0.706,-1.183 0.942,-1.925c0.108,-0.341 0.778,-0.365 10.199,-0.365l10.084,0l0.134,0.834c0.073,0.458 0.226,0.833 0.339,0.833c0.113,0 0.206,0.182 0.206,0.404c0,0.223 0.086,0.458 0.192,0.524c0.106,0.065 0.254,0.399 0.329,0.741c0.075,0.342 0.211,0.623 0.302,0.623c0.091,0 0.225,0.375 0.298,0.833c0.074,0.458 0.226,0.833 0.339,0.833c0.114,0 0.206,0.188 0.206,0.417c0,0.229 0.094,0.417 0.209,0.417c0.114,0 0.209,0.164 0.209,0.364c0.001,0.201 0.142,0.633 0.313,0.962c0.171,0.328 0.311,0.689 0.311,0.801c0,0.522 0.788,1.813 1.626,2.664l0.923,0.938l2.927,0c2.156,0 2.949,-0.069 3.013,-0.261c0.048,-0.143 0.219,-0.26 0.381,-0.26c1.507,0 3.166,-5.34 2.015,-6.49c-0.143,-0.143 -0.26,-0.429 -0.26,-0.635c0,-0.206 -0.094,-0.375 -0.208,-0.375c-0.115,0 -0.209,-0.164 -0.21,-0.365c-0.001,-0.2 -0.132,-0.616 -0.293,-0.923c-0.16,-0.307 -0.355,-0.846 -0.432,-1.198c-0.077,-0.351 -0.226,-0.639 -0.332,-0.639c-0.105,0 -0.192,-0.126 -0.192,-0.28c0,-0.253 -0.372,-1.17 -0.82,-2.019c-0.093,-0.175 -0.235,-0.62 -0.316,-0.989c-0.081,-0.369 -0.233,-0.67 -0.339,-0.67c-0.105,0 -0.191,-0.182 -0.191,-0.405c0,-0.222 -0.087,-0.458 -0.193,-0.523c-0.105,-0.065 -0.253,-0.399 -0.329,-0.741c-0.075,-0.343 -0.211,-0.623 -0.302,-0.623c-0.09,0 -0.225,-0.375 -0.298,-0.833c-0.073,-0.459 -0.226,-0.834 -0.339,-0.834c-0.113,0 -0.206,-0.126 -0.206,-0.28c0,-0.261 -0.394,-1.221 -0.847,-2.061c-0.107,-0.199 -0.197,-0.48 -0.199,-0.625c-0.003,-0.144 -0.282,-0.825 -0.621,-1.513c-0.338,-0.687 -0.617,-1.414 -0.62,-1.614c-0.003,-0.201 -0.098,-0.365 -0.213,-0.365c-0.115,0 -0.209,-0.164 -0.209,-0.365c-0.001,-0.2 -0.228,-0.812 -0.505,-1.358c-0.278,-0.547 -0.566,-1.274 -0.641,-1.615c-0.075,-0.341 -0.223,-0.62 -0.328,-0.62c-0.106,0 -0.192,-0.15 -0.192,-0.333c0,-0.356 -0.616,-1.785 -0.845,-1.959c-0.075,-0.057 -0.201,-0.456 -0.28,-0.885c-0.079,-0.43 -0.233,-0.782 -0.343,-0.782c-0.109,0 -0.199,-0.15 -0.199,-0.333c0,-0.356 -0.616,-1.785 -0.844,-1.958c-0.076,-0.058 -0.202,-0.456 -0.281,-0.886c-0.079,-0.429 -0.233,-0.781 -0.342,-0.781c-0.11,0 -0.2,-0.164 -0.201,-0.365c0,-0.2 -0.141,-0.633 -0.312,-0.961c-0.171,-0.328 -0.311,-0.727 -0.311,-0.885c0,-0.159 -0.094,-0.289 -0.209,-0.289c-0.114,0 -0.208,-0.146 -0.208,-0.324c0,-0.308 -0.62,-1.87 -1.049,-2.642c-0.111,-0.199 -0.201,-0.504 -0.201,-0.677c0,-0.173 -0.086,-0.315 -0.19,-0.315c-0.105,0 -0.253,-0.375 -0.331,-0.834c-0.077,-0.458 -0.207,-0.833 -0.288,-0.833c-0.08,0 -0.322,-0.516 -0.536,-1.146c-0.214,-0.63 -0.46,-1.146 -0.546,-1.146c-0.085,0 -0.219,-0.375 -0.296,-0.833c-0.078,-0.458 -0.207,-0.833 -0.288,-0.833c-0.081,0 -0.322,-0.516 -0.537,-1.146c-0.214,-0.63 -0.468,-1.146 -0.564,-1.146c-0.095,0 -0.174,-0.119 -0.174,-0.264c0,-0.904 -1.779,-3.069 -2.522,-3.069c-0.217,0 -0.395,-0.094 -0.395,-0.209c0,-0.266 -1.047,-0.266 -1.458,0m34.167,0c0,0.115 -0.216,0.209 -0.48,0.209c-0.606,0 -1.812,1.22 -1.812,1.833c0,0.252 -0.094,0.458 -0.208,0.458c-0.278,0 -0.289,48.817 -0.012,49.326c0.109,0.199 0.253,0.713 0.322,1.143c0.069,0.43 0.2,0.781 0.291,0.781c0.091,0 0.272,0.235 0.402,0.521c0.131,0.287 0.37,0.521 0.532,0.521c0.162,0 0.349,0.141 0.415,0.313c0.066,0.171 0.31,0.312 0.543,0.312c0.233,0 0.423,0.094 0.423,0.208c0,0.127 0.938,0.209 2.396,0.209c1.459,0 2.396,-0.082 2.396,-0.209c0,-0.114 0.137,-0.208 0.305,-0.208c0.427,0 2.104,-1.676 2.298,-2.297c0.089,-0.284 0.266,-0.582 0.394,-0.664c0.166,-0.106 0.251,-4.286 0.298,-14.688l0.065,-14.538l0.537,-0.397c0.75,-0.554 1.631,-0.063 2.428,1.355c0.325,0.577 0.722,1.1 0.883,1.161c0.16,0.062 0.292,0.236 0.292,0.388c0,0.151 0.122,0.399 0.272,0.551c0.15,0.151 0.451,0.58 0.67,0.952c0.219,0.372 0.471,0.677 0.561,0.677c0.09,0 0.164,0.136 0.164,0.302c0,0.166 0.124,0.377 0.276,0.469c0.153,0.092 0.454,0.471 0.67,0.844c0.217,0.372 0.467,0.677 0.557,0.677c0.09,0 0.163,0.099 0.163,0.22c0,0.236 1.25,1.921 1.511,2.037c0.086,0.038 0.156,0.188 0.156,0.334c0,0.145 0.211,0.498 0.469,0.784c0.76,0.842 1.406,1.703 1.406,1.876c0,0.164 0.367,0.648 1.198,1.577c0.258,0.288 0.469,0.643 0.469,0.789c0,0.145 0.07,0.296 0.156,0.334c0.261,0.116 1.51,1.801 1.51,2.036c0,0.122 0.074,0.221 0.164,0.221c0.09,0 0.34,0.305 0.556,0.677c0.217,0.372 0.518,0.752 0.67,0.844c0.152,0.091 0.277,0.262 0.277,0.379c0,0.117 0.117,0.344 0.26,0.503c0.619,0.69 0.782,0.926 0.782,1.13c0,0.119 0.07,0.22 0.156,0.223c0.086,0.003 0.386,0.378 0.667,0.833c0.281,0.455 0.585,0.828 0.677,0.828c0.091,0 0.166,0.132 0.166,0.295c0,0.162 0.075,0.326 0.165,0.364c0.091,0.039 0.38,0.421 0.642,0.851c0.263,0.43 0.563,0.781 0.669,0.781c0.105,0 0.191,0.133 0.191,0.295c0,0.163 0.074,0.327 0.165,0.365c0.091,0.038 0.38,0.421 0.642,0.851c0.262,0.429 0.563,0.781 0.668,0.781c0.106,0 0.192,0.1 0.192,0.223c0,0.123 0.117,0.354 0.26,0.514c0.595,0.663 1.168,1.534 1.333,2.023c0.067,0.201 0.199,0.365 0.294,0.365c0.095,0 0.339,0.281 0.542,0.625c0.203,0.344 0.449,0.625 0.547,0.625c0.098,0 0.319,0.141 0.491,0.313c0.172,0.171 0.54,0.312 0.818,0.312c0.279,0 0.506,0.094 0.506,0.208c0,0.115 0.422,0.209 0.938,0.209c0.515,0 0.937,-0.082 0.937,-0.181c0,-0.1 0.33,-0.235 0.733,-0.3c0.436,-0.071 1.006,-0.392 1.406,-0.793l0.674,-0.673l0,-25.416c0,-20.147 -0.054,-25.433 -0.261,-25.502c-0.143,-0.048 -0.26,-0.211 -0.26,-0.364c0,-0.779 -2.298,-2.396 -3.405,-2.396c-0.291,0 -0.587,-0.094 -0.657,-0.209c-0.071,-0.114 -0.499,-0.208 -0.95,-0.208c-0.452,0 -0.821,0.094 -0.821,0.208c0,0.115 -0.338,0.209 -0.75,0.209c-1.593,0 -3.306,1.432 -3.554,2.973c-0.069,0.432 -0.207,0.836 -0.307,0.898c-0.1,0.061 -0.181,6.707 -0.181,14.787c0,14.588 -0.002,14.675 -0.421,14.675c-0.247,0 -0.519,-0.215 -0.659,-0.521c-0.13,-0.286 -0.316,-0.521 -0.412,-0.521c-0.096,0 -0.175,-0.106 -0.175,-0.236c0,-0.13 -0.234,-0.454 -0.52,-0.719c-0.287,-0.266 -0.521,-0.567 -0.521,-0.669c0,-0.102 -0.235,-0.458 -0.522,-0.791c-0.288,-0.333 -0.575,-0.77 -0.639,-0.97c-0.065,-0.201 -0.205,-0.365 -0.312,-0.365c-0.107,0 -0.194,-0.143 -0.194,-0.319c0,-0.175 -0.129,-0.368 -0.286,-0.429c-0.158,-0.06 -0.46,-0.432 -0.673,-0.826c-0.212,-0.395 -0.458,-0.717 -0.547,-0.717c-0.088,0 -0.161,-0.134 -0.161,-0.298c0,-0.163 -0.234,-0.481 -0.52,-0.707c-0.287,-0.225 -0.521,-0.494 -0.521,-0.598c0,-0.215 -0.522,-0.944 -1.182,-1.65c-0.249,-0.266 -0.513,-0.674 -0.587,-0.907c-0.074,-0.233 -0.216,-0.424 -0.315,-0.424c-0.099,0 -0.233,-0.164 -0.297,-0.364c-0.064,-0.201 -0.35,-0.646 -0.635,-0.99c-0.285,-0.344 -0.601,-0.724 -0.702,-0.846c-0.101,-0.122 -0.29,-0.419 -0.419,-0.661c-0.13,-0.242 -0.353,-0.565 -0.497,-0.719c-0.144,-0.154 -0.585,-0.747 -0.981,-1.318c-0.395,-0.572 -0.77,-1.086 -0.833,-1.143c-0.063,-0.058 -0.438,-0.573 -0.833,-1.146c-0.395,-0.573 -0.775,-1.089 -0.845,-1.146c-0.069,-0.057 -0.325,-0.432 -0.569,-0.833c-0.245,-0.401 -0.618,-0.917 -0.829,-1.146c-0.212,-0.229 -0.601,-0.768 -0.865,-1.198c-0.263,-0.43 -0.565,-0.781 -0.67,-0.781c-0.105,0 -0.191,-0.099 -0.191,-0.22c0,-0.254 -2.276,-3.392 -2.535,-3.496c-0.096,-0.038 -0.174,-0.152 -0.174,-0.254c0,-0.254 -1.295,-2.072 -1.476,-2.072c-0.08,0 -0.202,-0.225 -0.271,-0.501c-0.182,-0.724 -2.273,-2.832 -2.809,-2.832c-0.244,0 -0.444,-0.094 -0.444,-0.209c0,-0.119 -0.625,-0.208 -1.458,-0.208c-0.833,0 -1.458,0.089 -1.458,0.208m-88.282,0.359c-0.372,0.047 -0.677,0.172 -0.677,0.28c0,0.107 -0.229,0.195 -0.508,0.195c-0.28,0 -0.56,0.083 -0.623,0.184c-0.063,0.102 -0.443,0.247 -0.846,0.322c-0.402,0.076 -0.731,0.217 -0.731,0.314c0,0.097 -0.234,0.235 -0.521,0.307c-0.286,0.072 -0.521,0.223 -0.521,0.335c0,0.112 -0.106,0.204 -0.236,0.204c-0.201,0 -2.115,1.878 -2.795,2.743c-0.451,0.574 -1.552,3.037 -1.552,3.472c0,0.248 -0.094,0.452 -0.208,0.452c-0.115,0 -0.209,0.309 -0.209,0.688c0,0.378 -0.117,0.804 -0.26,0.947c-0.196,0.196 -0.26,1.659 -0.26,5.865c0,4.206 0.064,5.669 0.26,5.865c0.143,0.143 0.26,0.569 0.26,0.948c0,0.378 0.094,0.687 0.209,0.687c0.114,0 0.208,0.197 0.208,0.437c0,0.651 1.21,3.313 1.506,3.313c0.088,0 0.161,0.109 0.161,0.243c0,0.303 2.387,2.674 2.693,2.674c0.123,0 0.223,0.092 0.223,0.204c0,0.112 0.235,0.263 0.521,0.335c0.287,0.072 0.521,0.213 0.521,0.314c0,0.101 0.375,0.243 0.833,0.317c0.459,0.073 0.834,0.215 0.834,0.315c0,0.1 0.215,0.181 0.479,0.181c0.263,0 0.596,0.118 0.739,0.261c0.195,0.195 1.925,0.275 6.865,0.319c3.632,0.033 6.792,0.143 7.021,0.244c0.229,0.102 0.885,0.241 1.458,0.308c0.573,0.068 1.073,0.217 1.111,0.33c0.038,0.113 0.156,0.205 0.261,0.205c0.807,0 2.691,2.92 2.691,4.172c0,0.327 0.093,0.653 0.208,0.724c0.115,0.071 0.208,0.498 0.208,0.95c0,0.451 -0.093,0.821 -0.208,0.821c-0.115,0 -0.208,0.463 -0.208,1.029c0,0.566 -0.083,1.081 -0.185,1.144c-0.102,0.062 -0.247,0.443 -0.322,0.845c-0.075,0.403 -0.227,0.732 -0.336,0.732c-0.109,0 -0.199,0.119 -0.199,0.266c0,0.299 -0.727,0.984 -1.044,0.984c-0.113,0 -0.206,0.092 -0.206,0.204c0,0.112 -0.234,0.263 -0.521,0.335c-0.286,0.072 -0.521,0.213 -0.521,0.314c0,0.101 -0.377,0.244 -0.838,0.317c-0.46,0.074 -0.888,0.216 -0.949,0.315c-0.062,0.1 -0.95,0.181 -1.975,0.181c-1.024,0 -1.863,0.083 -1.863,0.183c0,0.101 -1.945,0.251 -4.323,0.335c-2.377,0.083 -4.416,0.223 -4.531,0.311c-0.114,0.088 -1.896,0.226 -3.958,0.306c-2.063,0.081 -3.781,0.233 -3.82,0.339c-0.038,0.106 -0.3,0.193 -0.581,0.193c-0.845,0 -1.891,1.044 -2.321,2.318c-0.503,1.487 0.612,3.932 1.793,3.932c0.234,0 0.483,0.094 0.554,0.208c0.161,0.261 24.062,0.29 24.062,0.03c0,-0.098 0.586,-0.24 1.302,-0.315c0.717,-0.074 1.334,-0.228 1.372,-0.342c0.038,-0.113 0.199,-0.206 0.357,-0.206c0.41,0 1.761,-0.669 1.761,-0.872c0,-0.093 0.117,-0.17 0.26,-0.171c0.226,0 0.803,-0.491 1.768,-1.5c0.142,-0.148 0.54,-0.551 0.885,-0.894c0.346,-0.344 0.628,-0.743 0.628,-0.886c0.001,-0.143 0.078,-0.26 0.173,-0.26c0.228,0 1.494,-2.528 1.494,-2.982c0,-0.193 0.094,-0.352 0.209,-0.352c0.114,0 0.208,-0.229 0.208,-0.508c0,-0.28 0.085,-0.561 0.188,-0.625c0.103,-0.064 0.254,-0.702 0.336,-1.418c0.081,-0.717 0.253,-1.433 0.382,-1.592c0.348,-0.43 0.33,-9.913 -0.021,-10.263c-0.143,-0.143 -0.26,-0.499 -0.259,-0.792c0.001,-0.653 -0.646,-2.51 -0.875,-2.51c-0.092,0 -0.168,-0.133 -0.168,-0.295c0,-0.476 -1.049,-2.43 -1.371,-2.553c-0.163,-0.062 -0.295,-0.241 -0.295,-0.398c0,-0.395 -2.293,-2.702 -2.866,-2.884c-0.257,-0.081 -0.468,-0.236 -0.468,-0.342c0,-0.107 -0.14,-0.195 -0.312,-0.195c-0.172,0 -0.313,-0.093 -0.313,-0.208c0,-0.115 -0.117,-0.209 -0.26,-0.21c-0.143,0 -0.531,-0.142 -0.861,-0.314c-0.33,-0.172 -0.986,-0.372 -1.458,-0.444c-0.472,-0.072 -0.958,-0.209 -1.081,-0.304c-0.122,-0.096 -3.028,-0.209 -6.458,-0.252c-10.483,-0.13 -11.652,-0.764 -11.652,-6.308c0,-3.055 0.096,-3.376 1.455,-4.835c1.559,-1.674 1.075,-1.596 10.418,-1.665c4.934,-0.036 8.414,-0.143 8.531,-0.26c0.11,-0.11 0.509,-0.2 0.887,-0.2c0.378,0 0.688,-0.073 0.688,-0.162c0,-0.09 0.281,-0.269 0.624,-0.399c0.344,-0.129 0.688,-0.408 0.766,-0.618c0.078,-0.211 0.232,-0.444 0.343,-0.518c0.347,-0.232 0.262,-2.941 -0.116,-3.731c-0.362,-0.754 -1.156,-1.458 -1.903,-1.686c-0.472,-0.144 -19.975,-0.169 -21.121,-0.027m-174.861,21.583c0.239,0.494 0.434,1.009 0.434,1.145c0,0.136 0.084,0.247 0.185,0.247c0.102,0 0.247,0.328 0.322,0.729c0.076,0.401 0.215,0.729 0.309,0.729c0.095,0 0.233,0.375 0.306,0.833c0.073,0.459 0.226,0.834 0.339,0.834c0.113,0 0.206,0.182 0.206,0.404c0,0.222 0.087,0.458 0.192,0.523c0.106,0.066 0.254,0.399 0.329,0.742c0.076,0.342 0.211,0.622 0.302,0.622c0.091,0 0.225,0.375 0.299,0.834c0.073,0.458 0.226,0.833 0.339,0.833c0.113,0 0.206,0.142 0.206,0.315c0,0.174 0.09,0.478 0.201,0.677c0.11,0.199 0.398,0.831 0.64,1.404c0.81,1.923 1.417,3.037 2.047,3.762l0.442,0.509l-7.707,0c-4.999,0 -7.707,-0.074 -7.707,-0.209c0,-0.114 0.094,-0.208 0.209,-0.208c0.114,0 0.208,-0.187 0.208,-0.417c0,-0.229 0.094,-0.416 0.208,-0.416c0.115,0 0.212,-0.118 0.216,-0.261c0.004,-0.143 0.188,-0.635 0.409,-1.093c0.222,-0.459 0.406,-0.951 0.41,-1.094c0.004,-0.143 0.086,-0.261 0.181,-0.261c0.096,0 0.35,-0.515 0.564,-1.145c0.215,-0.631 0.464,-1.146 0.555,-1.146c0.091,0 0.165,-0.112 0.165,-0.248c0,-0.137 0.273,-0.816 0.605,-1.511c0.896,-1.868 1.27,-2.756 1.27,-3.012c0,-0.126 0.072,-0.229 0.16,-0.229c0.167,0 0.882,-1.521 0.882,-1.877c0,-0.114 0.086,-0.207 0.19,-0.207c0.105,0 0.253,-0.375 0.331,-0.833c0.077,-0.458 0.226,-0.833 0.331,-0.833c0.104,0 0.19,-0.141 0.19,-0.313c0,-0.172 0.093,-0.312 0.208,-0.312c0.115,0 0.208,-0.146 0.208,-0.325c0,-0.51 0.341,-0.172 0.816,0.808m229.185,0.246c0.001,0.114 0.133,0.46 0.293,0.767c0.161,0.307 0.355,0.846 0.432,1.198c0.078,0.351 0.227,0.639 0.333,0.639c0.105,0 0.191,0.142 0.191,0.315c0,0.174 0.088,0.478 0.195,0.677c0.447,0.83 0.821,1.751 0.951,2.339c0.075,0.345 0.224,0.627 0.329,0.627c0.106,0 0.192,0.13 0.192,0.289c0,0.159 0.14,0.557 0.311,0.885c0.171,0.329 0.312,0.761 0.313,0.962c0,0.2 0.095,0.364 0.209,0.364c0.115,0 0.209,0.164 0.21,0.365c0.002,0.559 1.979,4.404 2.526,4.914l0.484,0.451l-7.579,0.054c-8.589,0.062 -7.877,0.161 -7.351,-1.024c0.22,-0.498 0.531,-1.21 0.69,-1.583c0.159,-0.372 0.36,-0.677 0.446,-0.677c0.087,0 0.161,-0.117 0.165,-0.26c0.004,-0.143 0.188,-0.635 0.409,-1.094c0.222,-0.458 0.406,-0.997 0.41,-1.198c0.004,-0.2 0.079,-0.364 0.166,-0.364c0.168,0 0.883,-1.521 0.883,-1.877c0,-0.114 0.086,-0.207 0.191,-0.207c0.106,0 0.254,-0.28 0.329,-0.622c0.075,-0.343 0.223,-0.676 0.329,-0.742c0.106,-0.065 0.192,-0.301 0.192,-0.523c0,-0.222 0.087,-0.404 0.192,-0.404c0.106,0 0.254,-0.282 0.329,-0.625c0.076,-0.344 0.213,-0.625 0.306,-0.625c0.093,0 0.23,-0.328 0.305,-0.729c0.076,-0.402 0.211,-0.73 0.302,-0.73c0.091,0 0.341,-0.515 0.555,-1.145c0.214,-0.631 0.464,-1.146 0.554,-1.146c0.091,0 0.169,-0.164 0.173,-0.365c0.008,-0.397 1.03,0.684 1.035,1.094" id="path0"/>
   <path fill-rule="evenodd" fill="#ec1c24" d="m178.542,7.68c0,0.099 -0.42,0.238 -0.933,0.308c-0.513,0.07 -1.099,0.216 -1.302,0.325c-0.203,0.108 -1.494,0.732 -2.869,1.388c-1.375,0.655 -2.532,1.271 -2.57,1.37c-0.038,0.098 -0.196,0.179 -0.35,0.179c-0.154,0 -0.405,0.117 -0.558,0.26c-0.154,0.144 -0.629,0.44 -1.057,0.658c-0.428,0.219 -0.778,0.466 -0.778,0.551c0,0.084 -0.234,0.211 -0.521,0.283c-0.286,0.072 -0.521,0.223 -0.521,0.335c0,0.113 -0.136,0.205 -0.302,0.205c-0.166,0 -0.377,0.117 -0.469,0.26c-0.195,0.305 -0.845,0.742 -1.364,0.916c-0.201,0.067 -0.365,0.184 -0.365,0.259c0,0.075 -0.328,0.313 -0.729,0.529c-0.401,0.216 -0.729,0.472 -0.729,0.568c0,0.097 -0.136,0.176 -0.302,0.176c-0.166,0 -0.377,0.125 -0.469,0.277c-0.092,0.152 -0.471,0.453 -0.844,0.67c-0.372,0.216 -0.677,0.466 -0.677,0.556c0,0.09 -0.099,0.164 -0.22,0.164c-0.185,0 -1.733,1.097 -2.071,1.468c-0.058,0.063 -0.433,0.34 -0.834,0.615c-0.401,0.275 -0.776,0.552 -0.833,0.615c-0.057,0.064 -0.667,0.535 -1.354,1.049c-0.688,0.513 -1.457,1.146 -1.709,1.405c-0.252,0.26 -0.541,0.473 -0.642,0.473c-0.101,0 -0.457,0.278 -0.792,0.619c-0.334,0.34 -0.691,0.622 -0.794,0.625c-0.103,0.003 -0.506,0.334 -0.896,0.735c-0.389,0.401 -0.791,0.729 -0.892,0.729c-0.1,0 -0.511,0.305 -0.912,0.677c-0.4,0.372 -1.022,0.912 -1.381,1.198c-1.691,1.348 -1.991,1.6 -2.547,2.135c-0.328,0.316 -0.646,0.573 -0.707,0.573c-0.062,0 -0.237,0.118 -0.389,0.261c-0.153,0.143 -0.67,0.588 -1.151,0.989c-0.48,0.401 -1.297,1.128 -1.815,1.615c-0.517,0.487 -1.001,0.885 -1.074,0.885c-0.074,0 -0.621,0.446 -1.217,0.99c-0.596,0.544 -1.47,1.318 -1.941,1.719c-1.599,1.361 -1.973,1.69 -3.433,3.027c-0.802,0.735 -1.693,1.531 -1.979,1.769c-1.011,0.84 -4.04,3.668 -6.319,5.899c-1.269,1.241 -2.546,2.441 -2.838,2.666c-0.292,0.224 -1.481,1.341 -2.642,2.482c-1.921,1.885 -2.993,2.555 -2.993,1.867c0,-0.113 -0.375,-0.265 -0.833,-0.339c-0.458,-0.073 -0.833,-0.199 -0.833,-0.281c0,-0.081 -0.516,-0.323 -1.146,-0.537c-0.63,-0.214 -1.146,-0.456 -1.146,-0.536c0,-0.081 -0.375,-0.211 -0.833,-0.288c-0.459,-0.078 -0.834,-0.226 -0.834,-0.331c0,-0.104 -0.126,-0.19 -0.28,-0.19c-0.261,0 -1.221,-0.394 -2.061,-0.847c-0.199,-0.107 -0.466,-0.195 -0.593,-0.195c-0.246,0 -1.404,-0.478 -2.281,-0.941c-1.306,-0.69 -1.758,-0.523 -1.827,0.679l-0.063,1.091l1.73,1.114c0.951,0.612 2.151,1.34 2.667,1.617c0.516,0.276 0.969,0.573 1.007,0.659c0.038,0.086 0.202,0.156 0.365,0.156c0.162,0 0.295,0.092 0.295,0.205c0,0.112 0.234,0.263 0.521,0.335c0.286,0.072 0.52,0.207 0.52,0.3c0,0.093 0.282,0.231 0.625,0.306c0.344,0.076 0.626,0.2 0.628,0.277c0.001,0.077 0.381,0.322 0.845,0.544c0.464,0.222 0.888,0.476 0.943,0.565c0.055,0.089 -2.95,3.228 -6.679,6.976c-3.728,3.748 -6.778,6.877 -6.778,6.953c0,0.077 -1.664,1.821 -3.698,3.877c-2.034,2.055 -3.93,4.033 -4.214,4.395c-0.584,0.745 -0.933,0.633 -1.153,-0.37c-0.074,-0.334 -0.221,-0.661 -0.326,-0.727c-0.106,-0.065 -0.193,-0.301 -0.193,-0.523c0,-0.222 -0.092,-0.404 -0.206,-0.404c-0.113,0 -0.265,-0.375 -0.339,-0.834c-0.073,-0.458 -0.205,-0.833 -0.292,-0.833c-0.088,0 -0.221,-0.258 -0.298,-0.573c-0.189,-0.783 -0.605,-1.719 -0.764,-1.719c-0.072,0 -0.191,-0.375 -0.264,-0.833c-0.073,-0.458 -0.214,-0.833 -0.313,-0.833c-0.098,0 -0.239,-0.375 -0.312,-0.834c-0.073,-0.458 -0.226,-0.833 -0.339,-0.833c-0.113,0 -0.206,-0.234 -0.206,-0.521c0,-0.286 -0.086,-0.521 -0.19,-0.521c-0.105,0 -0.253,-0.375 -0.331,-0.833c-0.077,-0.458 -0.214,-0.833 -0.304,-0.833c-0.09,0 -0.223,-0.375 -0.297,-0.834c-0.073,-0.458 -0.226,-0.833 -0.339,-0.833c-0.113,0 -0.206,-0.234 -0.206,-0.521c0,-0.286 -0.085,-0.521 -0.19,-0.521c-0.104,0 -0.253,-0.375 -0.33,-0.833c-0.078,-0.458 -0.227,-0.833 -0.331,-0.833c-0.105,0 -0.191,-0.211 -0.192,-0.469c0,-0.258 -0.141,-0.737 -0.312,-1.066c-0.171,-0.328 -0.311,-0.773 -0.311,-0.989c0,-0.216 -0.086,-0.393 -0.19,-0.393c-0.105,0 -0.254,-0.375 -0.331,-0.833c-0.078,-0.459 -0.226,-0.834 -0.331,-0.834c-0.104,0 -0.19,-0.185 -0.19,-0.412c0,-0.403 -0.479,-1.854 -0.835,-2.531c-0.098,-0.186 -0.242,-0.678 -0.32,-1.094c-0.078,-0.415 -0.214,-0.754 -0.303,-0.754c-0.089,0 -0.225,-0.422 -0.302,-0.938c-0.077,-0.515 -0.229,-0.937 -0.336,-0.937c-0.108,0 -0.196,-0.235 -0.196,-0.521c0,-0.287 -0.085,-0.521 -0.188,-0.521c-0.104,0 -0.254,-0.469 -0.332,-1.042c-0.079,-0.573 -0.218,-1.041 -0.309,-1.041c-0.091,0 -0.228,-0.422 -0.306,-0.938c-0.077,-0.515 -0.228,-0.937 -0.336,-0.937c-0.107,0 -0.195,-0.229 -0.195,-0.509c0,-0.28 -0.083,-0.56 -0.185,-0.622c-0.101,-0.063 -0.247,-0.535 -0.324,-1.049c-0.077,-0.515 -0.223,-0.987 -0.325,-1.05c-0.101,-0.062 -0.247,-0.534 -0.324,-1.049c-0.077,-0.514 -0.223,-0.986 -0.325,-1.049c-0.101,-0.062 -0.184,-0.342 -0.184,-0.622c0,-0.28 -0.083,-0.509 -0.184,-0.509c-0.102,0 -0.249,-0.515 -0.328,-1.145c-0.079,-0.631 -0.221,-1.146 -0.317,-1.146c-0.095,0 -0.238,-0.469 -0.317,-1.042c-0.079,-0.573 -0.228,-1.094 -0.332,-1.158c-0.104,-0.064 -0.189,-0.392 -0.189,-0.729c0,-0.337 -0.084,-0.613 -0.188,-0.613c-0.103,0 -0.255,-0.586 -0.337,-1.302c-0.082,-0.716 -0.218,-1.349 -0.301,-1.406c-0.209,-0.145 -0.646,-3.269 -0.769,-5.504c-0.111,-2.009 0.209,-3.178 1.073,-3.916c0.451,-0.386 3.103,-0.539 3.318,-0.191c0.061,0.1 0.488,0.241 0.947,0.314c0.459,0.074 1.147,0.309 1.529,0.524c0.382,0.214 0.992,0.455 1.357,0.535c0.365,0.08 0.663,0.232 0.663,0.338c0,0.105 0.164,0.194 0.365,0.198c0.2,0.003 0.924,0.285 1.609,0.625c0.684,0.34 1.364,0.618 1.51,0.618c0.146,0 0.266,0.087 0.266,0.192c0,0.106 0.281,0.254 0.625,0.329c0.344,0.076 0.625,0.202 0.625,0.28c0,0.155 1.54,0.866 1.876,0.866c0.114,0 0.207,0.086 0.207,0.192c0,0.105 0.282,0.253 0.625,0.329c0.344,0.075 0.625,0.201 0.625,0.28c0,0.155 1.54,0.866 1.877,0.866c0.114,0 0.207,0.083 0.207,0.185c0,0.103 0.257,0.251 0.57,0.329c0.314,0.079 0.619,0.207 0.678,0.283c0.058,0.077 0.762,0.468 1.564,0.869c0.802,0.401 1.49,0.8 1.528,0.886c0.038,0.086 0.194,0.156 0.347,0.156c0.153,0 0.309,0.07 0.347,0.156c0.039,0.086 0.539,0.391 1.112,0.677c0.572,0.287 1.088,0.569 1.145,0.627c0.058,0.059 0.456,0.291 0.886,0.516c0.429,0.226 0.781,0.483 0.781,0.571c0,0.089 0.107,0.161 0.238,0.161c0.131,0 0.84,0.381 1.577,0.846c1.446,0.914 2.001,0.978 2.106,0.246c0.036,-0.257 0.154,-0.467 0.26,-0.467c0.245,0 0.257,-1.603 0.014,-1.753c-0.099,-0.061 -0.235,-0.446 -0.301,-0.854c-0.205,-1.265 -1.925,-3.425 -4.89,-6.143c-1.566,-1.434 -1.972,-1.772 -2.65,-2.205c-0.699,-0.446 -1.162,-0.804 -1.932,-1.493c-0.289,-0.257 -0.644,-0.468 -0.789,-0.468c-0.146,0 -0.296,-0.071 -0.334,-0.157c-0.1,-0.223 -1.46,-1.203 -1.893,-1.363c-0.2,-0.073 -0.364,-0.22 -0.364,-0.324c0,-0.105 -0.164,-0.246 -0.365,-0.313c-0.417,-0.141 -1.05,-0.536 -1.464,-0.916c-0.157,-0.143 -0.418,-0.261 -0.582,-0.261c-0.164,0 -0.298,-0.093 -0.298,-0.208c0,-0.115 -0.14,-0.208 -0.312,-0.208c-0.172,0 -0.313,-0.088 -0.313,-0.195c0,-0.106 -0.206,-0.259 -0.459,-0.34c-0.252,-0.08 -0.587,-0.274 -0.744,-0.43c-0.157,-0.157 -0.419,-0.285 -0.582,-0.285c-0.164,0 -0.298,-0.094 -0.298,-0.209c0,-0.114 -0.141,-0.208 -0.312,-0.208c-0.172,0 -0.313,-0.087 -0.313,-0.194c0,-0.107 -0.211,-0.26 -0.469,-0.341c-0.258,-0.08 -0.515,-0.204 -0.573,-0.274c-0.057,-0.071 -0.409,-0.293 -0.781,-0.493c-1.699,-0.915 -2.03,-1.11 -2.297,-1.354c-0.157,-0.143 -0.411,-0.261 -0.565,-0.261c-0.154,0 -0.312,-0.07 -0.35,-0.156c-0.064,-0.144 -0.567,-0.423 -3.715,-2.06c-0.63,-0.328 -1.177,-0.666 -1.215,-0.752c-0.038,-0.086 -0.173,-0.157 -0.3,-0.157c-0.127,0 -0.799,-0.272 -1.493,-0.605c-0.695,-0.333 -1.638,-0.761 -2.096,-0.951c-1.594,-0.663 -1.877,-0.785 -2.214,-0.954c-0.187,-0.093 -0.702,-0.236 -1.146,-0.318c-0.444,-0.082 -0.871,-0.248 -0.95,-0.37c-0.218,-0.336 -6.046,-0.316 -6.159,0.021c-0.048,0.143 -0.204,0.261 -0.347,0.261c-0.373,0 -1.335,1.136 -1.492,1.762c-0.073,0.291 -0.217,0.529 -0.319,0.529c-0.102,0 -0.186,0.263 -0.186,0.584c0,0.321 -0.099,0.682 -0.22,0.803c-0.374,0.374 0.03,8.197 0.423,8.197c0.091,0 0.231,0.702 0.311,1.561c0.081,0.858 0.221,1.607 0.313,1.664c0.091,0.056 0.231,0.618 0.309,1.248c0.079,0.63 0.231,1.199 0.337,1.265c0.107,0.066 0.194,0.395 0.194,0.732c0,0.337 0.087,0.613 0.193,0.613c0.107,0 0.258,0.516 0.337,1.146c0.079,0.63 0.226,1.146 0.327,1.146c0.102,0 0.185,0.185 0.185,0.412c0,0.396 0.473,1.841 0.823,2.512c0.092,0.177 0.234,0.716 0.315,1.198c0.082,0.483 0.222,0.878 0.312,0.878c0.09,0 0.224,0.379 0.298,0.842c0.074,0.463 0.226,1.026 0.339,1.25c0.506,1.008 0.577,1.19 0.718,1.835c0.083,0.376 0.282,0.936 0.442,1.243c0.161,0.307 0.292,0.677 0.293,0.822c0.001,0.145 0.087,0.426 0.192,0.625c0.481,0.911 0.851,1.921 0.851,2.32c0,0.241 0.094,0.438 0.208,0.438c0.115,0 0.209,0.15 0.209,0.333c0,0.183 0.14,0.652 0.312,1.041c0.172,0.39 0.46,1.061 0.639,1.49c0.18,0.43 0.406,0.969 0.503,1.198c0.098,0.229 0.344,0.909 0.548,1.511c0.205,0.601 0.435,1.093 0.512,1.093c0.077,0 0.201,0.375 0.274,0.834c0.073,0.458 0.226,0.833 0.339,0.833c0.113,0 0.207,0.164 0.207,0.365c0.001,0.2 0.142,0.633 0.313,0.961c0.171,0.328 0.311,0.727 0.311,0.885c0,0.159 0.083,0.289 0.185,0.289c0.102,0 0.247,0.328 0.322,0.729c0.075,0.401 0.214,0.729 0.309,0.729c0.095,0 0.232,0.375 0.306,0.834c0.073,0.458 0.226,0.833 0.339,0.833c0.113,0 0.206,0.182 0.206,0.404c0,0.223 0.086,0.458 0.192,0.524c0.106,0.065 0.254,0.399 0.329,0.741c0.075,0.342 0.223,0.623 0.329,0.623c0.105,0 0.191,0.216 0.191,0.481c0,0.264 0.138,0.663 0.306,0.885c0.168,0.223 0.309,0.569 0.313,0.769c0.003,0.201 0.1,0.365 0.215,0.365c0.114,0 0.211,0.164 0.215,0.364c0.004,0.201 0.188,0.74 0.41,1.198c0.221,0.459 0.405,0.951 0.409,1.094c0.004,0.143 0.101,0.26 0.216,0.26c0.114,0 0.208,0.182 0.208,0.405c0,0.222 0.087,0.458 0.192,0.523c0.106,0.065 0.254,0.399 0.329,0.741c0.076,0.343 0.204,0.623 0.286,0.623c0.081,0 0.324,0.516 0.538,1.146c0.214,0.63 0.464,1.146 0.554,1.146c0.091,0 0.227,0.328 0.302,0.729c0.075,0.401 0.213,0.729 0.306,0.729c0.092,0 0.23,0.281 0.306,0.625c0.075,0.344 0.223,0.625 0.329,0.625c0.105,0 0.194,0.164 0.198,0.365c0.004,0.2 0.144,0.546 0.312,0.769c0.169,0.222 0.306,0.574 0.306,0.781c0,0.207 0.094,0.377 0.209,0.377c0.114,0 0.208,0.093 0.208,0.207c0,0.336 0.711,1.876 0.866,1.876c0.078,0 0.204,0.281 0.28,0.625c0.075,0.344 0.223,0.625 0.329,0.625c0.105,0 0.192,0.15 0.192,0.332c0,0.368 0.639,1.607 0.885,1.717c0.086,0.038 0.156,0.16 0.156,0.271c0,0.229 0.724,1.942 1.088,2.576c0.131,0.229 0.368,0.698 0.527,1.042c0.158,0.343 0.375,0.787 0.482,0.986c0.256,0.475 0.25,1.201 -0.009,1.201c-0.113,0 -0.263,0.231 -0.334,0.513c-0.07,0.283 -0.307,0.57 -0.524,0.639c-0.218,0.07 -0.396,0.2 -0.396,0.291c0,0.091 -0.305,0.495 -0.677,0.899c-1.243,1.346 -2.531,2.857 -2.714,3.184c-0.099,0.178 -0.432,0.588 -0.739,0.912c-2.362,2.492 -3.53,4.11 -3.203,4.438c0.529,0.528 2.234,0.454 2.811,-0.123c0.3,-0.3 0.638,-0.545 0.752,-0.545c0.114,0 0.282,-0.119 0.374,-0.266c0.092,-0.146 0.588,-0.591 1.104,-0.989c0.93,-0.717 1.385,-1.129 4.35,-3.933c1.643,-1.554 1.914,-1.598 2.225,-0.358c0.075,0.301 0.22,0.546 0.323,0.546c0.102,0 0.185,0.15 0.185,0.333c0,0.332 0.605,1.552 0.869,1.753c0.077,0.058 0.204,0.363 0.283,0.677c0.079,0.314 0.227,0.571 0.329,0.571c0.102,0 0.186,0.103 0.186,0.229c0,0.27 0.649,1.703 0.839,1.854c0.073,0.057 0.359,0.573 0.636,1.146c0.277,0.573 0.574,1.073 0.66,1.111c0.086,0.038 0.157,0.202 0.157,0.365c0,0.162 0.083,0.295 0.185,0.295c0.102,0 0.247,0.328 0.322,0.729c0.075,0.401 0.203,0.73 0.283,0.731c0.081,0.001 0.332,0.423 0.558,0.937c0.227,0.515 0.484,0.936 0.573,0.936c0.089,0 0.162,0.134 0.162,0.298c0,0.163 0.128,0.425 0.285,0.582c0.157,0.157 0.357,0.515 0.444,0.796c0.087,0.281 0.311,0.746 0.497,1.032c0.186,0.287 0.572,0.99 0.858,1.563c0.286,0.573 0.59,1.073 0.676,1.111c0.086,0.038 0.157,0.202 0.157,0.365c0,0.162 0.093,0.295 0.208,0.295c0.115,0 0.208,0.121 0.208,0.268c0,0.148 0.332,0.875 0.736,1.615c0.405,0.74 0.848,1.604 0.984,1.919c0.135,0.315 0.312,0.573 0.393,0.573c0.08,0 0.208,0.281 0.283,0.625c0.076,0.343 0.224,0.625 0.329,0.625c0.106,0 0.192,0.14 0.192,0.312c0,0.172 0.094,0.313 0.208,0.313c0.115,0 0.209,0.134 0.209,0.297c0,0.164 0.124,0.423 0.277,0.575c0.252,0.252 0.52,0.996 0.549,1.524c0.012,0.214 -2.27,0.428 -6.867,0.643c-1.432,0.067 -2.653,0.203 -2.715,0.303c-0.062,0.1 -3.98,0.248 -8.707,0.328c-4.728,0.081 -8.644,0.225 -8.704,0.321c-0.141,0.229 -15.234,0.229 -15.375,0c-0.06,-0.096 -2.432,-0.234 -5.271,-0.307c-3.225,-0.082 -5.19,-0.212 -5.234,-0.346c-0.039,-0.117 -0.532,-0.213 -1.096,-0.213c-0.563,0 -1.024,-0.082 -1.024,-0.182c0,-0.1 -0.49,-0.246 -1.089,-0.326c-0.598,-0.079 -1.184,-0.219 -1.302,-0.31c-0.117,-0.092 -0.483,-0.231 -0.813,-0.31c-1.442,-0.346 -2.647,-3.129 -1.664,-3.845c0.196,-0.143 0.617,-0.777 0.848,-1.277c0.08,-0.172 0.222,-0.407 0.315,-0.521c0.094,-0.115 0.333,-0.407 0.532,-0.65c1.445,-1.767 2.082,-2.484 4.111,-4.625c2.505,-2.644 7.62,-7.722 9.843,-9.773c0.773,-0.714 2.009,-1.863 2.745,-2.552c0.737,-0.69 1.396,-1.254 1.466,-1.254c0.317,0 2.188,-1.988 2.127,-2.259c-0.213,-0.946 -3.994,-2.161 -3.994,-1.283c0,0.115 -0.27,0.208 -0.601,0.208c-0.751,0 -2.732,0.627 -2.732,0.865c0,0.097 -0.154,0.177 -0.342,0.177c-0.394,0 -2.228,0.86 -2.332,1.094c-0.038,0.086 -0.194,0.156 -0.347,0.156c-0.153,0 -0.309,0.07 -0.347,0.156c-0.039,0.086 -0.518,0.391 -1.067,0.677c-0.548,0.286 -1.242,0.732 -1.543,0.99c-0.3,0.258 -0.629,0.469 -0.73,0.469c-0.199,0 -0.534,0.247 -1.342,0.989c-0.281,0.258 -0.58,0.469 -0.665,0.469c-0.161,0 -1.125,0.715 -1.694,1.258c-0.185,0.176 -0.66,0.521 -1.057,0.768c-0.397,0.246 -0.86,0.641 -1.028,0.878c-0.169,0.236 -0.403,0.43 -0.521,0.432c-0.118,0.001 -0.683,0.418 -1.256,0.927c-1.825,1.621 -2.695,2.383 -3.229,2.83c-1.185,0.988 -2.847,2.453 -3.94,3.472c-0.64,0.597 -1.446,1.336 -1.789,1.641c-1.435,1.274 -2.999,2.831 -4.271,4.249c-0.745,0.831 -1.542,1.72 -1.771,1.975c-0.821,0.914 -1.354,1.665 -1.354,1.905c0,0.135 -0.142,0.3 -0.316,0.367c-0.174,0.066 -0.408,0.334 -0.52,0.595c-0.113,0.26 -0.295,0.614 -0.404,0.786c-0.109,0.172 -0.352,0.688 -0.539,1.146c-0.187,0.459 -0.426,0.996 -0.531,1.195c-0.229,0.434 -0.257,3.076 -0.033,3.076c0.087,0 0.29,0.305 0.452,0.677c0.49,1.128 2.341,2.656 3.217,2.656c0.187,0 0.34,0.094 0.34,0.209c0,0.114 0.182,0.208 0.405,0.208c0.222,0 0.458,0.087 0.524,0.194c0.066,0.106 0.635,0.258 1.265,0.337c0.63,0.078 1.191,0.217 1.247,0.308c0.057,0.091 0.923,0.227 1.925,0.301c1.002,0.075 2.009,0.221 2.239,0.325c1.326,0.602 27.776,0.606 28.538,0.005c0.116,-0.092 2.171,-0.234 4.566,-0.316c2.395,-0.082 4.504,-0.228 4.687,-0.326c0.184,-0.097 2.068,-0.278 4.188,-0.402c5.675,-0.332 6.956,-0.444 7.187,-0.629c0.115,-0.092 1.451,-0.235 2.969,-0.318c1.518,-0.083 2.76,-0.22 2.76,-0.306c0,-0.086 1.149,-0.222 2.552,-0.303c1.404,-0.081 2.642,-0.235 2.75,-0.342c0.109,-0.107 0.737,-0.195 1.394,-0.195c0.658,0 1.247,-0.082 1.31,-0.183c0.062,-0.101 1.122,-0.252 2.356,-0.335c1.233,-0.084 2.289,-0.226 2.347,-0.316c0.057,-0.09 0.666,-0.185 1.354,-0.211c1.669,-0.062 1.771,-0.044 1.771,0.301c0,0.164 0.117,0.423 0.26,0.576c0.143,0.154 0.439,0.629 0.658,1.057c0.218,0.428 0.476,0.778 0.573,0.778c0.096,0 0.175,0.134 0.175,0.298c0,0.163 0.118,0.423 0.261,0.576c0.143,0.153 0.439,0.628 0.658,1.056c0.218,0.428 0.476,0.778 0.572,0.778c0.097,0 0.176,0.134 0.176,0.298c0,0.164 0.117,0.425 0.26,0.582c0.381,0.414 0.776,1.047 0.916,1.464c0.068,0.201 0.205,0.365 0.307,0.365c0.101,0 0.184,0.143 0.184,0.319c0,0.175 0.14,0.373 0.312,0.439c0.172,0.066 0.313,0.283 0.313,0.484c0,0.2 0.222,0.603 0.493,0.896c0.272,0.293 0.556,0.779 0.631,1.081c0.402,1.602 1.868,0.288 1.707,-1.53c-0.054,-0.618 -0.198,-1.223 -0.319,-1.344c-0.122,-0.121 -0.221,-0.389 -0.221,-0.595c0,-0.207 -0.093,-0.375 -0.208,-0.375c-0.115,0 -0.209,-0.164 -0.21,-0.365c0,-0.2 -0.132,-0.616 -0.292,-0.923c-0.161,-0.308 -0.355,-0.847 -0.432,-1.198c-0.078,-0.352 -0.227,-0.639 -0.333,-0.639c-0.105,0 -0.191,-0.188 -0.191,-0.417c0,-0.229 -0.084,-0.417 -0.185,-0.417c-0.102,0 -0.247,-0.328 -0.322,-0.729c-0.076,-0.401 -0.227,-0.729 -0.336,-0.729c-0.109,0 -0.199,-0.103 -0.199,-0.229c0,-0.272 -0.65,-1.705 -0.841,-1.854c-0.832,-0.651 -0.337,-1.009 1.594,-1.153c1.076,-0.081 1.955,-0.217 1.955,-0.304c0,-0.086 0.843,-0.222 1.873,-0.303c1.029,-0.08 1.925,-0.233 1.991,-0.339c0.066,-0.106 0.582,-0.193 1.149,-0.193c0.566,0 1.029,-0.084 1.029,-0.186c0,-0.103 0.844,-0.253 1.876,-0.335c1.032,-0.082 1.922,-0.221 1.977,-0.31c0.054,-0.088 0.897,-0.227 1.872,-0.309c0.976,-0.081 1.826,-0.233 1.891,-0.337c0.064,-0.104 0.533,-0.19 1.042,-0.19c0.509,0 0.925,-0.082 0.925,-0.183c0,-0.101 0.797,-0.25 1.77,-0.331c0.974,-0.082 1.816,-0.222 1.872,-0.313c0.056,-0.09 0.9,-0.231 1.875,-0.312c0.976,-0.081 1.826,-0.233 1.891,-0.338c0.064,-0.104 0.525,-0.189 1.025,-0.189c0.499,0 0.939,-0.081 0.977,-0.179c0.208,-0.535 2.674,-0.475 2.674,0.064c0,0.292 -0.085,0.531 -0.188,0.531c-0.104,0 -0.253,0.563 -0.333,1.251c-0.08,0.687 -0.23,1.302 -0.333,1.366c-0.103,0.064 -0.188,0.386 -0.188,0.717c0,0.33 -0.089,0.655 -0.199,0.723c-0.109,0.067 -0.262,0.682 -0.339,1.366c-0.078,0.684 -0.21,1.244 -0.295,1.244c-0.085,0 -0.218,0.477 -0.296,1.06c-0.077,0.583 -0.218,1.216 -0.313,1.406c-0.257,0.514 -0.597,1.694 -0.76,2.638c-0.079,0.459 -0.219,0.93 -0.312,1.047c-0.092,0.117 -0.233,0.703 -0.312,1.302c-0.079,0.599 -0.226,1.089 -0.326,1.089c-0.1,0 -0.181,0.275 -0.181,0.612c0,0.337 -0.089,0.668 -0.197,0.734c-0.108,0.067 -0.26,0.565 -0.338,1.106c-0.079,0.542 -0.214,1.079 -0.301,1.194c-0.088,0.114 -0.225,0.606 -0.305,1.092c-0.08,0.487 -0.231,0.937 -0.336,1.002c-0.104,0.065 -0.19,0.341 -0.19,0.614c0,0.273 -0.083,0.547 -0.184,0.61c-0.102,0.063 -0.248,0.535 -0.325,1.049c-0.077,0.514 -0.22,0.984 -0.317,1.045c-0.097,0.06 -0.241,0.577 -0.32,1.15c-0.079,0.573 -0.228,1.094 -0.332,1.158c-0.104,0.064 -0.189,0.288 -0.189,0.497c0,0.209 -0.14,0.649 -0.311,0.977c-0.171,0.329 -0.312,0.808 -0.312,1.066c-0.001,0.258 -0.087,0.469 -0.19,0.469c-0.104,0 -0.254,0.468 -0.332,1.041c-0.079,0.573 -0.229,1.042 -0.333,1.042c-0.103,0 -0.188,0.229 -0.188,0.509c0,0.279 -0.086,0.561 -0.191,0.626c-0.104,0.064 -0.253,0.491 -0.33,0.948c-0.077,0.457 -0.218,0.879 -0.313,0.938c-0.094,0.058 -0.238,0.501 -0.32,0.982c-0.081,0.482 -0.219,1.021 -0.305,1.197c-0.492,1.005 -0.833,1.948 -0.833,2.307c0,0.225 -0.085,0.41 -0.189,0.41c-0.104,0 -0.253,0.468 -0.332,1.041c-0.079,0.573 -0.21,1.042 -0.291,1.042c-0.081,0 -0.316,0.492 -0.522,1.094c-0.206,0.601 -0.506,1.389 -0.666,1.75c-0.161,0.361 -0.292,0.744 -0.292,0.85c0,0.107 -0.234,0.655 -0.52,1.219c-0.286,0.563 -0.52,1.189 -0.52,1.389c-0.001,0.201 -0.085,0.365 -0.187,0.365c-0.102,0 -0.25,0.257 -0.329,0.57c-0.079,0.314 -0.206,0.619 -0.283,0.678c-0.258,0.195 -0.869,1.417 -0.869,1.735c0,0.173 -0.07,0.347 -0.156,0.385c-0.086,0.038 -0.474,0.525 -0.863,1.082c-2.316,3.319 -3.915,3.26 -6.741,-0.252c-0.201,-0.249 -0.365,-0.539 -0.365,-0.644c0,-0.105 -0.117,-0.319 -0.26,-0.475c-0.381,-0.415 -0.776,-1.048 -0.916,-1.465c-0.068,-0.2 -0.205,-0.364 -0.307,-0.364c-0.101,0 -0.184,-0.134 -0.184,-0.298c0,-0.164 -0.118,-0.421 -0.262,-0.573c-0.144,-0.151 -0.448,-0.673 -0.677,-1.158c-0.228,-0.486 -0.475,-0.884 -0.548,-0.886c-0.074,-0.001 -0.193,-0.236 -0.265,-0.523c-0.072,-0.286 -0.223,-0.521 -0.335,-0.521c-0.112,0 -0.204,-0.103 -0.204,-0.229c0,-0.278 -0.653,-1.709 -0.847,-1.854c-0.076,-0.057 -0.211,-0.339 -0.299,-0.625c-0.088,-0.286 -0.226,-0.568 -0.306,-0.625c-0.147,-0.104 -3.457,-6.801 -3.991,-8.073c-0.156,-0.372 -0.355,-0.677 -0.442,-0.677c-0.086,0 -0.157,-0.103 -0.157,-0.229c0,-0.214 -0.127,-0.532 -1.01,-2.529c-0.189,-0.428 -0.402,-0.78 -0.474,-0.781c-0.071,-0.002 -0.189,-0.378 -0.263,-0.836c-0.073,-0.458 -0.209,-0.833 -0.302,-0.833c-0.093,0 -0.256,-0.352 -0.362,-0.782c-0.397,-1.606 -2.05,-0.929 -2.845,1.166c-0.398,1.048 -0.55,6.354 -0.188,6.578c0.099,0.061 0.246,0.768 0.325,1.57c0.079,0.802 0.232,1.513 0.339,1.579c0.108,0.067 0.197,0.392 0.197,0.722c0,0.33 0.085,0.653 0.188,0.717c0.104,0.064 0.254,0.585 0.333,1.158c0.078,0.573 0.22,1.089 0.313,1.147c0.094,0.058 0.234,0.479 0.312,0.936c0.077,0.457 0.226,0.884 0.33,0.949c0.105,0.065 0.19,0.346 0.19,0.626c0,0.28 0.086,0.509 0.19,0.509c0.105,0 0.254,0.375 0.331,0.833c0.078,0.458 0.214,0.833 0.304,0.833c0.09,0 0.224,0.375 0.297,0.834c0.073,0.458 0.226,0.833 0.339,0.833c0.113,0 0.206,0.234 0.206,0.521c0,0.286 0.086,0.521 0.192,0.521c0.105,0 0.254,0.282 0.329,0.627c0.13,0.588 0.504,1.509 0.951,2.339c0.107,0.199 0.195,0.503 0.195,0.677c0,0.173 0.086,0.315 0.191,0.315c0.106,0 0.254,0.282 0.33,0.627c0.076,0.345 0.259,0.884 0.407,1.198c0.148,0.314 0.398,0.876 0.555,1.248c0.157,0.372 0.356,0.677 0.443,0.677c0.086,0 0.16,0.164 0.164,0.365c0.004,0.2 0.188,0.739 0.41,1.198c0.221,0.458 0.405,0.95 0.409,1.093c0.004,0.143 0.101,0.261 0.216,0.261c0.114,0 0.208,0.14 0.208,0.312c0,0.172 0.083,0.313 0.185,0.313c0.102,0 0.247,0.328 0.322,0.729c0.075,0.401 0.219,0.729 0.319,0.729c0.101,0 0.242,0.269 0.314,0.597c0.072,0.328 0.303,0.781 0.513,1.007c0.21,0.225 0.447,0.707 0.527,1.07c0.08,0.362 0.221,0.659 0.314,0.659c0.093,0 0.223,0.213 0.288,0.473c0.065,0.26 0.31,0.678 0.543,0.929c0.234,0.251 0.425,0.522 0.425,0.603c0,0.139 1.105,1.943 1.559,2.547c0.865,1.15 3.645,3.777 4.12,3.894c0.316,0.078 0.626,0.226 0.689,0.327c0.15,0.242 2.948,0.242 3.097,0c0.063,-0.101 0.362,-0.247 0.664,-0.323c0.604,-0.151 3.406,-2.772 3.41,-3.189c0.001,-0.143 0.09,-0.261 0.197,-0.261c0.107,0 0.259,-0.203 0.338,-0.452c0.079,-0.249 0.323,-0.646 0.543,-0.882c0.219,-0.235 0.453,-0.641 0.518,-0.901c0.065,-0.26 0.195,-0.473 0.288,-0.473c0.093,0 0.235,-0.305 0.316,-0.677c0.081,-0.372 0.207,-0.724 0.282,-0.781c0.257,-0.199 1.229,-2.251 1.37,-2.895c0.078,-0.356 0.228,-0.647 0.334,-0.647c0.105,0 0.192,-0.234 0.192,-0.521c0,-0.286 0.092,-0.521 0.206,-0.521c0.113,0 0.265,-0.375 0.339,-0.833c0.073,-0.458 0.204,-0.833 0.291,-0.833c0.088,0 0.223,-0.34 0.301,-0.755c0.077,-0.415 0.221,-0.907 0.318,-1.094c0.476,-0.914 0.836,-1.904 0.836,-2.297c0,-0.241 0.085,-0.438 0.189,-0.438c0.104,0 0.253,-0.468 0.332,-1.041c0.079,-0.573 0.228,-1.042 0.332,-1.042c0.104,0 0.189,-0.229 0.189,-0.509c0,-0.279 0.088,-0.563 0.196,-0.629c0.108,-0.067 0.26,-0.543 0.337,-1.057c0.077,-0.514 0.214,-0.981 0.305,-1.037c0.09,-0.056 0.229,-0.57 0.308,-1.143c0.079,-0.573 0.228,-1.094 0.332,-1.158c0.104,-0.064 0.189,-0.345 0.189,-0.625c0,-0.28 0.087,-0.509 0.193,-0.509c0.106,0 0.258,-0.515 0.337,-1.145c0.078,-0.631 0.219,-1.146 0.312,-1.146c0.093,0 0.234,-0.517 0.313,-1.149c0.079,-0.632 0.226,-1.2 0.327,-1.262c0.102,-0.063 0.184,-0.39 0.184,-0.727c0,-0.337 0.083,-0.612 0.185,-0.612c0.101,0 0.248,-0.514 0.327,-1.143c0.078,-0.628 0.22,-1.191 0.316,-1.25c0.095,-0.058 0.238,-0.669 0.318,-1.357c0.08,-0.688 0.22,-1.25 0.31,-1.25c0.091,0 0.217,-0.305 0.281,-0.677c0.228,-1.333 0.662,-3.181 0.795,-3.386c0.074,-0.114 0.202,-0.747 0.284,-1.406c0.082,-0.659 0.232,-1.198 0.333,-1.198c0.102,0 0.185,-0.323 0.185,-0.717c0,-0.394 0.086,-0.77 0.192,-0.835c0.105,-0.066 0.257,-0.727 0.336,-1.471c0.08,-0.744 0.219,-1.352 0.308,-1.352c0.09,0 0.229,-0.656 0.31,-1.458c0.08,-0.802 0.23,-1.459 0.333,-1.459c0.103,0 0.187,-0.322 0.187,-0.717c0,-0.394 0.089,-0.771 0.197,-0.838c0.107,-0.066 0.26,-0.775 0.339,-1.574c0.079,-0.8 0.215,-1.454 0.303,-1.454c0.089,0 0.228,-0.68 0.309,-1.51c0.082,-0.831 0.221,-1.605 0.31,-1.719c0.089,-0.115 0.216,-0.583 0.283,-1.042c0.287,-1.983 0.666,-3.974 0.793,-4.168c0.075,-0.116 0.205,-0.983 0.287,-1.928c0.082,-0.944 0.222,-1.716 0.31,-1.716c0.089,0 0.214,-0.399 0.279,-0.886c0.453,-3.407 0.673,-4.728 0.809,-4.862c0.086,-0.085 0.156,-0.46 0.156,-0.833c0,-1.085 0.18,-1.336 0.96,-1.336c0.389,0 0.707,-0.083 0.707,-0.184c0,-0.101 0.608,-0.249 1.352,-0.329c0.744,-0.08 1.405,-0.231 1.471,-0.337c0.065,-0.105 0.388,-0.192 0.719,-0.192c0.33,0 0.652,-0.084 0.716,-0.188c0.064,-0.103 0.679,-0.253 1.367,-0.332c0.687,-0.08 1.25,-0.219 1.25,-0.309c0,-0.09 0.609,-0.229 1.354,-0.309c0.745,-0.08 1.354,-0.231 1.354,-0.337c0,-0.105 0.323,-0.191 0.717,-0.191c0.394,0 0.775,-0.094 0.846,-0.209c0.071,-0.114 0.404,-0.208 0.741,-0.208c0.767,0 0.803,-0.478 0.102,-1.336l-0.496,-0.606l-4.229,0.141c-2.326,0.078 -4.322,0.234 -4.434,0.346c-0.113,0.113 -0.796,0.205 -1.517,0.205c-0.737,0 -1.313,0.091 -1.313,0.208c0,0.115 -0.152,0.209 -0.337,0.209c-0.359,0 -0.252,-3.239 0.131,-3.96c0.092,-0.173 0.235,-1.181 0.317,-2.24c0.083,-1.059 0.233,-1.925 0.333,-1.925c0.099,0 0.181,-0.51 0.181,-1.134c0,-0.623 0.085,-1.186 0.188,-1.25c0.104,-0.064 0.256,-1.102 0.338,-2.307c0.082,-1.205 0.221,-2.235 0.31,-2.29c0.088,-0.054 0.227,-1.131 0.31,-2.392c0.082,-1.262 0.233,-2.294 0.335,-2.294c0.102,0 0.186,-0.557 0.186,-1.238c0,-0.68 0.083,-1.289 0.185,-1.352c0.102,-0.063 0.253,-1.147 0.335,-2.408c0.083,-1.262 0.234,-2.294 0.336,-2.294c0.102,0 0.185,-0.361 0.185,-0.802c0,-3.598 0.285,-4.245 1.413,-3.208c0.156,0.143 0.418,0.26 0.581,0.26c0.164,0 0.298,0.094 0.298,0.209c0,0.114 0.141,0.208 0.313,0.208c0.171,0 0.312,0.087 0.312,0.194c0,0.107 0.207,0.26 0.459,0.34c0.253,0.08 0.587,0.274 0.744,0.431c0.157,0.157 0.419,0.285 0.583,0.285c0.163,0 0.297,0.094 0.297,0.208c0,0.115 0.141,0.209 0.313,0.209c0.172,0 0.312,0.087 0.312,0.194c0,0.107 0.207,0.26 0.459,0.34c0.253,0.08 0.588,0.274 0.744,0.431c0.157,0.156 0.419,0.285 0.583,0.285c0.164,0 0.298,0.093 0.298,0.208c0,0.115 0.14,0.208 0.312,0.208c0.172,0 0.313,0.092 0.313,0.205c0,0.112 0.227,0.261 0.505,0.331c0.279,0.07 0.557,0.259 0.619,0.421c0.062,0.161 0.216,0.293 0.341,0.293c0.126,0 0.536,0.235 0.912,0.521c0.376,0.287 0.791,0.521 0.924,0.521c0.132,0 0.24,0.092 0.24,0.204c0,0.113 0.235,0.264 0.521,0.335c0.287,0.072 0.521,0.195 0.521,0.272c0,0.077 0.305,0.318 0.677,0.535c0.372,0.216 0.724,0.447 0.781,0.513c0.179,0.206 0.921,0.647 1.302,0.776c0.201,0.067 0.365,0.207 0.365,0.311c0,0.104 0.211,0.281 0.469,0.392c0.592,0.256 1.164,0.623 1.692,1.087c0.227,0.199 0.583,0.416 0.792,0.482c0.209,0.067 0.38,0.209 0.38,0.315c0,0.107 0.094,0.195 0.208,0.195c0.168,0 2.121,1.319 3.022,2.041c0.114,0.092 0.348,0.232 0.52,0.312c0.44,0.203 1.049,0.613 1.456,0.98c0.69,0.623 1.555,1.25 1.723,1.25c0.184,0 0.261,0.056 1.432,1.034c0.416,0.348 0.819,0.633 0.894,0.633c0.149,0 0.247,0.073 1.398,1.034c0.416,0.348 0.821,0.632 0.9,0.632c0.079,0 0.274,0.118 0.434,0.261c0.69,0.618 0.925,0.781 1.13,0.781c0.119,0 0.217,0.091 0.217,0.203c0,0.112 0.257,0.337 0.573,0.501c0.315,0.164 0.807,0.5 1.093,0.747c0.287,0.247 0.733,0.631 0.992,0.853c0.258,0.223 0.549,0.404 0.646,0.404c0.096,0 0.454,0.258 0.795,0.573c0.341,0.315 0.832,0.714 1.092,0.886c0.26,0.172 0.656,0.468 0.88,0.658c0.224,0.19 0.773,0.644 1.22,1.008c0.849,0.692 1.057,0.869 2.891,2.464c1.798,1.563 3.195,3.065 4.181,4.496c0.165,0.24 0.393,0.499 0.506,0.576c0.113,0.077 0.246,0.694 0.295,1.371c0.104,1.443 -0.257,1.985 -1.835,2.755c-0.513,0.25 -1.096,0.541 -1.295,0.647c-0.199,0.105 -0.545,0.191 -0.769,0.191c-0.224,0 -0.459,0.083 -0.521,0.184c-0.063,0.102 -0.646,0.251 -1.296,0.332c-0.65,0.081 -1.331,0.228 -1.513,0.327c-0.297,0.16 -1.674,0.416 -4.081,0.757c-0.458,0.065 -0.88,0.184 -0.938,0.266c-0.057,0.081 -0.948,0.258 -1.979,0.393c-1.031,0.136 -2.859,0.391 -4.062,0.567c-1.203,0.177 -2.727,0.372 -3.386,0.433c-0.659,0.062 -1.198,0.187 -1.198,0.28c0,0.092 -1.359,0.236 -3.02,0.319c-1.662,0.083 -3.021,0.233 -3.021,0.334c0,0.101 -0.901,0.183 -2.003,0.183l-2.002,0l0.146,0.782c0.08,0.429 0.254,0.921 0.385,1.093c0.547,0.713 1.649,1.667 1.926,1.667c0.164,0 0.298,0.071 0.298,0.157c0,0.213 0.984,0.635 1.876,0.805c0.4,0.076 0.833,0.221 0.962,0.321c0.129,0.101 1.137,0.242 2.24,0.315c1.103,0.072 2.005,0.211 2.005,0.308c0,0.098 2.859,0.177 6.354,0.177c3.495,0 6.354,-0.081 6.354,-0.179c0,-0.099 1.805,-0.249 4.011,-0.333c2.205,-0.084 4.057,-0.224 4.114,-0.312c0.058,-0.088 1.323,-0.227 2.813,-0.309c1.489,-0.082 2.797,-0.235 2.906,-0.341c0.109,-0.106 0.648,-0.192 1.198,-0.192c0.55,0 1,-0.082 1,-0.182c0,-0.1 0.844,-0.247 1.875,-0.328c1.031,-0.081 1.875,-0.224 1.875,-0.319c0,-0.095 0.563,-0.237 1.25,-0.317c0.688,-0.08 1.303,-0.23 1.367,-0.333c0.064,-0.103 0.345,-0.188 0.624,-0.188c0.28,0 0.509,-0.083 0.509,-0.185c0,-0.102 0.327,-0.247 0.728,-0.322c0.846,-0.159 2.814,-1.136 2.814,-1.398c0,-0.098 0.136,-0.178 0.304,-0.178c0.315,0 1.362,-1.011 1.362,-1.315c0,-0.095 0.151,-0.324 0.335,-0.508c0.405,-0.405 0.35,-4.55 -0.063,-4.805c-0.131,-0.081 -0.303,-0.404 -0.382,-0.718c-0.079,-0.314 -0.227,-0.571 -0.329,-0.571c-0.102,0 -0.186,-0.106 -0.186,-0.237c0,-0.13 -0.234,-0.453 -0.52,-0.719c-0.287,-0.265 -0.521,-0.57 -0.521,-0.677c0,-0.267 -4.465,-4.758 -5.625,-5.658c-0.516,-0.4 -1.109,-0.939 -1.318,-1.197c-0.208,-0.259 -0.505,-0.47 -0.659,-0.47c-0.154,0 -0.312,-0.074 -0.35,-0.164c-0.038,-0.09 -0.489,-0.489 -1.002,-0.886c-0.512,-0.397 -1.058,-0.838 -1.212,-0.982c-0.155,-0.143 -0.378,-0.26 -0.496,-0.26c-0.119,0 -0.4,-0.234 -0.626,-0.521c-0.225,-0.286 -0.5,-0.521 -0.611,-0.521c-0.214,0 -0.278,-0.044 -1.462,-1.034c-0.416,-0.348 -0.862,-0.632 -0.99,-0.632c-0.128,0 -0.233,-0.088 -0.233,-0.195c0,-0.106 -0.171,-0.248 -0.38,-0.315c-0.209,-0.066 -0.564,-0.283 -0.789,-0.482c-0.676,-0.599 -1.717,-1.3 -1.93,-1.3c-0.11,0 -0.231,-0.073 -0.269,-0.163c-0.092,-0.217 -2.67,-1.92 -2.905,-1.92c-0.102,0 -0.185,-0.096 -0.185,-0.214c0,-0.117 -0.211,-0.305 -0.469,-0.416c-0.538,-0.233 -1.253,-0.666 -1.406,-0.851c-0.057,-0.069 -0.995,-0.673 -2.083,-1.341c-1.089,-0.669 -2.011,-1.291 -2.049,-1.384c-0.038,-0.093 -0.188,-0.169 -0.332,-0.169c-0.145,0 -0.535,-0.235 -0.868,-0.521c-0.333,-0.286 -0.669,-0.521 -0.747,-0.521c-0.078,0 -0.687,-0.359 -1.354,-0.798c-0.667,-0.439 -1.634,-1.024 -2.149,-1.302c-0.515,-0.277 -1.096,-0.645 -1.291,-0.817c-0.195,-0.172 -0.804,-0.544 -1.355,-0.828c-0.551,-0.284 -1.048,-0.572 -1.105,-0.641c-0.058,-0.068 -0.431,-0.305 -0.83,-0.526c-0.399,-0.22 -0.851,-0.518 -1.004,-0.661c-0.154,-0.143 -0.413,-0.26 -0.577,-0.26c-0.164,0 -0.298,-0.083 -0.298,-0.184c0,-0.102 -0.164,-0.239 -0.364,-0.307c-0.354,-0.119 -1.091,-0.549 -1.302,-0.759c-0.058,-0.058 -0.433,-0.278 -0.834,-0.491c-1.559,-0.825 -3.025,-1.661 -3.125,-1.78c-0.057,-0.069 -0.76,-0.453 -1.562,-0.854c-0.802,-0.401 -1.49,-0.8 -1.528,-0.886c-0.038,-0.086 -0.194,-0.156 -0.347,-0.156c-0.153,0 -0.309,-0.07 -0.347,-0.156c-0.039,-0.086 -0.539,-0.391 -1.111,-0.677c-0.573,-0.287 -1.089,-0.568 -1.146,-0.625c-0.171,-0.171 -1.704,-1.024 -2.709,-1.506c-0.515,-0.248 -0.984,-0.513 -1.041,-0.59c-0.058,-0.077 -0.339,-0.212 -0.625,-0.3c-0.287,-0.088 -0.568,-0.218 -0.625,-0.289c-0.229,-0.281 -3.79,-2.107 -4.109,-2.107c-0.147,0 -0.266,-0.094 -0.266,-0.208c0,-0.115 -0.141,-0.209 -0.313,-0.209c-0.172,0 -0.312,-0.083 -0.312,-0.185c0,-0.103 -0.257,-0.251 -0.571,-0.329c-0.314,-0.079 -0.619,-0.207 -0.677,-0.283c-0.059,-0.077 -0.435,-0.306 -0.836,-0.509l-0.729,-0.369l0.068,-1.921c0.038,-1.056 0.145,-2.015 0.238,-2.131c0.093,-0.116 0.237,-2.11 0.32,-4.432c0.084,-2.321 0.235,-4.272 0.336,-4.335c0.887,-0.548 -0.09,-1.849 -1.017,-1.354c-0.199,0.106 -0.526,0.244 -0.726,0.306c-0.201,0.062 -0.365,0.303 -0.365,0.536c0,0.233 -0.087,0.423 -0.193,0.423c-0.106,0 -0.258,0.516 -0.337,1.146c-0.078,0.63 -0.226,1.146 -0.327,1.146c-0.101,0 -0.184,0.24 -0.184,0.534c0,0.294 -0.095,0.712 -0.211,0.928c-0.116,0.216 -0.27,0.96 -0.342,1.653c-0.072,0.693 -0.202,1.26 -0.289,1.26c-0.086,0 -0.223,0.75 -0.304,1.666c-0.081,0.917 -0.232,1.667 -0.334,1.667c-0.103,0 -0.187,0.194 -0.187,0.431c0,0.423 -0.749,0.413 -1.042,-0.014c-0.057,-0.084 -0.338,-0.225 -0.625,-0.313c-0.286,-0.088 -0.567,-0.223 -0.625,-0.299c-0.145,-0.194 -1.575,-0.847 -1.854,-0.847c-0.126,0 -0.229,-0.083 -0.229,-0.185c0,-0.103 -0.252,-0.249 -0.56,-0.327c-0.308,-0.077 -0.806,-0.315 -1.107,-0.529c-0.3,-0.214 -0.798,-0.453 -1.106,-0.53c-0.308,-0.077 -0.56,-0.217 -0.56,-0.31c0,-0.093 -0.282,-0.231 -0.625,-0.306c-0.344,-0.076 -0.625,-0.224 -0.625,-0.329c0,-0.106 -0.133,-0.192 -0.296,-0.192c-0.311,0 -1.607,-0.63 -1.79,-0.869c-0.058,-0.077 -0.386,-0.208 -0.729,-0.292c-0.343,-0.084 -0.67,-0.217 -0.727,-0.295c-0.169,-0.23 -2.89,-1.461 -3.23,-1.461c-0.171,0 -0.312,-0.093 -0.312,-0.208c0,-0.115 -0.14,-0.208 -0.312,-0.208c-0.172,0 -0.313,-0.094 -0.313,-0.209c0,-0.114 -0.117,-0.211 -0.26,-0.215c-0.143,-0.004 -0.635,-0.188 -1.094,-0.41c-0.458,-0.221 -0.95,-0.405 -1.094,-0.409c-0.143,-0.004 -0.261,-0.078 -0.262,-0.164c-0.002,-0.086 -0.4,-0.332 -0.886,-0.548c-1.865,-0.829 -2.343,-1.071 -2.411,-1.222c-0.038,-0.086 -0.148,-0.157 -0.245,-0.157c-0.193,0 -2.267,-0.92 -4.324,-1.918c-1.209,-0.587 -1.769,-0.997 -1.363,-0.999c0.093,-0.001 0.5,-0.306 0.905,-0.677c0.405,-0.372 1.155,-1.001 1.667,-1.398c0.511,-0.397 1.136,-0.936 1.389,-1.198c0.252,-0.262 0.511,-0.476 0.574,-0.476c0.107,0 1.043,-0.78 1.689,-1.407c0.148,-0.143 0.335,-0.26 0.416,-0.26c0.081,0 0.346,-0.213 0.588,-0.474c0.242,-0.26 0.637,-0.612 0.876,-0.781c0.396,-0.279 1.763,-1.401 2.851,-2.339c0.233,-0.2 0.483,-0.364 0.556,-0.364c0.073,0 0.481,-0.328 0.906,-0.73c0.425,-0.401 0.843,-0.729 0.929,-0.73c0.086,0 0.455,-0.281 0.822,-0.625c0.366,-0.343 0.73,-0.624 0.809,-0.624c0.079,0 0.361,-0.234 0.626,-0.52c0.266,-0.287 0.541,-0.521 0.612,-0.521c0.071,0 0.252,-0.118 0.401,-0.261c0.15,-0.143 0.481,-0.401 0.736,-0.573c0.255,-0.172 0.758,-0.568 1.119,-0.882c0.361,-0.313 0.731,-0.571 0.822,-0.573c0.091,-0.002 0.383,-0.237 0.649,-0.524c0.265,-0.286 0.582,-0.521 0.704,-0.521c0.122,0 0.396,-0.221 0.609,-0.492c0.213,-0.271 0.595,-0.559 0.848,-0.639c0.254,-0.081 0.461,-0.228 0.461,-0.327c0,-0.099 0.164,-0.233 0.365,-0.297c0.2,-0.065 0.646,-0.35 0.99,-0.635c0.343,-0.285 0.721,-0.598 0.838,-0.695c0.118,-0.098 0.493,-0.355 0.834,-0.572c0.34,-0.217 0.694,-0.515 0.786,-0.661c0.091,-0.146 0.302,-0.265 0.469,-0.265c0.166,0 0.302,-0.087 0.302,-0.194c0,-0.107 0.171,-0.249 0.38,-0.315c0.209,-0.067 0.562,-0.284 0.786,-0.483c0.223,-0.199 0.873,-0.685 1.443,-1.081c0.57,-0.395 1.083,-0.77 1.141,-0.833c0.057,-0.063 0.596,-0.443 1.197,-0.844c0.602,-0.401 1.094,-0.799 1.094,-0.885c0,-0.086 0.134,-0.157 0.298,-0.157c0.164,0 0.421,-0.122 0.573,-0.272c0.151,-0.149 0.58,-0.451 0.952,-0.67c0.373,-0.218 0.677,-0.471 0.677,-0.561c0,-0.09 0.144,-0.163 0.319,-0.163c0.176,0 0.37,-0.132 0.432,-0.294c0.062,-0.162 0.34,-0.351 0.619,-0.421c0.278,-0.069 0.505,-0.219 0.505,-0.331c0,-0.112 0.141,-0.204 0.313,-0.204c0.172,0 0.312,-0.094 0.312,-0.209c0,-0.114 0.134,-0.208 0.298,-0.208c0.164,0 0.423,-0.117 0.576,-0.26c0.153,-0.144 0.629,-0.44 1.057,-0.658c0.428,-0.219 0.778,-0.466 0.778,-0.551c0,-0.084 0.257,-0.217 0.57,-0.296c0.314,-0.079 0.619,-0.206 0.678,-0.284c0.058,-0.077 0.762,-0.452 1.564,-0.833c0.802,-0.38 1.602,-0.766 1.778,-0.857c0.175,-0.092 0.644,-0.233 1.042,-0.314c0.397,-0.081 1.017,-0.249 1.377,-0.373c1.23,-0.423 2.753,0.58 2.935,1.932c0.061,0.455 0.192,0.827 0.291,0.827c0.238,0 0.236,4.317 -0.002,4.464c-0.1,0.062 -0.251,1.38 -0.334,2.929c-0.082,1.549 -0.234,2.816 -0.337,2.816c-0.103,0 -0.187,0.51 -0.187,1.133c0,0.624 -0.083,1.185 -0.184,1.247c-0.1,0.062 -0.25,1.005 -0.332,2.095c-0.081,1.09 -0.222,2.028 -0.312,2.084c-0.09,0.056 -0.231,0.899 -0.312,1.875c-0.081,0.976 -0.224,1.774 -0.316,1.774c-0.093,0 -0.221,0.398 -0.285,0.885c-0.324,2.465 -0.635,4.115 -0.776,4.115c-0.086,0 -0.222,0.703 -0.303,1.563c-0.08,0.859 -0.229,1.562 -0.33,1.562c-0.101,0 -0.184,0.276 -0.184,0.613c0,0.337 -0.093,0.67 -0.208,0.741c-0.115,0.071 -0.208,0.358 -0.208,0.637c0,1.057 2.848,0.522 4.212,-0.79c0.725,-0.697 1.829,-2.164 1.829,-2.429c0,-0.127 0.088,-0.23 0.195,-0.23c0.106,0 0.26,-0.211 0.34,-0.469c0.081,-0.258 0.209,-0.516 0.286,-0.573c0.193,-0.145 0.846,-1.576 0.846,-1.854c0,-0.126 0.094,-0.229 0.208,-0.229c0.115,0 0.209,-0.164 0.21,-0.365c0,-0.2 0.232,-0.822 0.516,-1.381c0.283,-0.558 0.575,-1.332 0.647,-1.718c0.073,-0.387 0.207,-0.703 0.298,-0.703c0.091,0 0.23,-0.469 0.309,-1.042c0.078,-0.573 0.228,-1.041 0.332,-1.041c0.103,0 0.188,-0.235 0.188,-0.521c0,-0.287 0.085,-0.521 0.189,-0.521c0.104,0 0.253,-0.469 0.332,-1.041c0.079,-0.573 0.222,-1.09 0.318,-1.15c0.095,-0.059 0.238,-0.621 0.317,-1.25c0.078,-0.628 0.225,-1.142 0.327,-1.142c0.101,0 0.184,-0.276 0.184,-0.613c0,-0.337 0.085,-0.665 0.188,-0.729c0.103,-0.064 0.253,-0.679 0.333,-1.367c0.08,-0.688 0.224,-1.299 0.321,-1.359c0.096,-0.06 0.24,-0.763 0.319,-1.562c0.078,-0.8 0.214,-1.454 0.301,-1.454c0.17,0 0.262,-0.416 0.66,-2.968c0.139,-0.888 0.32,-1.615 0.404,-1.615c0.083,0 0.217,-0.844 0.298,-1.875c0.08,-1.031 0.219,-1.875 0.308,-1.875c0.165,0 0.224,-0.392 0.626,-4.167c0.287,-2.697 0.175,-8.025 -0.177,-8.377c-0.136,-0.136 -0.248,-0.416 -0.248,-0.623c0,-0.206 -0.083,-0.375 -0.185,-0.375c-0.103,0 -0.247,-0.242 -0.321,-0.538c-0.174,-0.691 -0.973,-1.49 -1.663,-1.663c-0.297,-0.075 -0.539,-0.219 -0.539,-0.321c0,-0.102 -1.031,-0.186 -2.292,-0.186c-1.26,0 -2.291,0.081 -2.291,0.18m-58.334,53.97c0,0.106 0.282,0.254 0.625,0.329c0.344,0.076 0.625,0.202 0.625,0.28c0,0.155 1.54,0.866 1.877,0.866c0.114,0 0.207,0.073 0.207,0.163c0,0.089 0.257,0.274 0.573,0.409c0.315,0.136 1.178,0.579 1.918,0.984c0.741,0.404 1.467,0.736 1.615,0.736c0.148,0 0.269,0.093 0.269,0.208c0,0.115 0.14,0.208 0.312,0.208c0.172,0 0.313,0.087 0.313,0.192c0,0.106 0.281,0.254 0.625,0.329c0.343,0.076 0.625,0.214 0.625,0.307c0,0.093 0.246,0.231 0.547,0.306c0.301,0.076 0.886,0.367 1.299,0.648c0.413,0.28 0.869,0.51 1.015,0.51c0.145,0 0.264,0.084 0.264,0.186c0,0.102 0.257,0.25 0.57,0.329c0.314,0.079 0.619,0.206 0.678,0.283c0.058,0.077 0.762,0.468 1.564,0.869c0.802,0.401 1.505,0.777 1.563,0.835c0.057,0.058 0.479,0.293 0.937,0.521c0.459,0.228 0.865,0.485 0.903,0.571c0.038,0.086 0.196,0.156 0.35,0.156c0.154,0 0.404,0.117 0.555,0.261c0.152,0.143 0.651,0.448 1.109,0.677c0.458,0.229 1.309,0.709 1.891,1.068c0.582,0.358 1.281,0.722 1.553,0.809c0.272,0.086 0.623,0.285 0.78,0.442c0.157,0.156 0.419,0.285 0.582,0.285c0.164,0 0.298,0.093 0.298,0.208c0,0.115 0.141,0.208 0.313,0.208c0.171,0 0.314,0.071 0.316,0.157c0.003,0.086 0.516,0.39 1.142,0.677c0.625,0.286 1.139,0.591 1.141,0.677c0.003,0.086 0.145,0.156 0.317,0.156c0.172,0 0.313,0.087 0.313,0.194c0,0.107 0.206,0.26 0.459,0.34c0.911,0.289 1.437,2.044 0.812,2.706c-0.196,0.207 -0.276,0.651 -0.68,3.791c-0.136,1.06 -0.315,1.927 -0.397,1.927c-0.083,0 -0.217,0.845 -0.299,1.877c-0.081,1.032 -0.232,1.928 -0.334,1.991c-0.103,0.063 -0.186,0.479 -0.186,0.924c0,0.445 -0.086,0.862 -0.19,0.926c-0.104,0.064 -0.256,0.914 -0.337,1.887c-0.081,0.974 -0.221,1.77 -0.31,1.77c-0.089,0 -0.228,0.751 -0.309,1.668c-0.081,0.917 -0.232,1.72 -0.334,1.783c-0.103,0.064 -0.187,0.48 -0.187,0.924c0,0.445 -0.083,0.86 -0.184,0.923c-0.101,0.062 -0.249,0.817 -0.33,1.677c-0.08,0.86 -0.223,1.611 -0.316,1.669c-0.093,0.058 -0.235,0.762 -0.316,1.565c-0.08,0.803 -0.231,1.512 -0.334,1.575c-0.102,0.064 -0.187,0.433 -0.187,0.821c0,0.387 -0.088,0.759 -0.196,0.825c-0.108,0.067 -0.261,0.776 -0.339,1.575c-0.079,0.8 -0.219,1.454 -0.312,1.454c-0.092,0 -0.197,0.304 -0.233,0.677c-0.063,0.655 -0.1,0.679 -1.107,0.741c-0.573,0.036 -1.131,0.153 -1.24,0.261c-0.109,0.108 -0.689,0.196 -1.29,0.196c-0.6,0 -1.144,0.084 -1.208,0.188c-0.064,0.103 -1.102,0.255 -2.307,0.338c-1.205,0.082 -2.236,0.222 -2.292,0.312c-0.055,0.09 -1.086,0.23 -2.291,0.313c-1.205,0.082 -2.242,0.231 -2.304,0.332c-0.063,0.101 -0.618,0.183 -1.235,0.183c-0.617,0 -1.172,0.083 -1.234,0.183c-0.063,0.101 -1.216,0.252 -2.565,0.335c-1.348,0.083 -2.545,0.212 -2.659,0.286c-0.185,0.119 -3.261,0.465 -6.875,0.774c-0.688,0.058 -1.438,0.189 -1.667,0.29c-1.119,0.493 -5.729,0.449 -5.729,-0.055c0,-0.305 -1.314,-2.941 -1.51,-3.028c-0.086,-0.038 -0.157,-0.171 -0.157,-0.296c0,-0.278 -1.267,-2.927 -1.469,-3.072c-0.08,-0.057 -0.211,-0.409 -0.292,-0.781c-0.081,-0.373 -0.226,-0.677 -0.322,-0.677c-0.096,0 -0.237,-0.282 -0.312,-0.625c-0.076,-0.344 -0.224,-0.625 -0.33,-0.625c-0.105,0 -0.191,-0.141 -0.191,-0.313c0,-0.172 -0.084,-0.312 -0.185,-0.312c-0.102,0 -0.247,-0.328 -0.322,-0.729c-0.076,-0.402 -0.219,-0.73 -0.32,-0.73c-0.1,0 -0.244,-0.281 -0.319,-0.625c-0.076,-0.343 -0.224,-0.625 -0.329,-0.625c-0.106,0 -0.192,-0.14 -0.192,-0.312c0,-0.172 -0.083,-0.313 -0.185,-0.313c-0.102,0 -0.247,-0.328 -0.322,-0.729c-0.075,-0.401 -0.226,-0.729 -0.336,-0.729c-0.109,0 -0.199,-0.135 -0.199,-0.3c0,-0.165 -0.281,-0.842 -0.625,-1.505c-0.343,-0.662 -0.625,-1.324 -0.625,-1.471c0,-0.146 -0.093,-0.266 -0.208,-0.266c-0.115,0 -0.208,-0.103 -0.208,-0.229c0,-0.278 -0.653,-1.709 -0.847,-1.854c-0.076,-0.057 -0.21,-0.339 -0.296,-0.625c-0.252,-0.837 -1.204,-2.806 -1.393,-2.882c-0.095,-0.038 -0.173,-0.207 -0.173,-0.376c0,-0.169 -0.174,-0.7 -0.387,-1.181c-0.213,-0.48 -0.517,-1.178 -0.676,-1.551c-0.158,-0.372 -0.352,-0.677 -0.429,-0.677c-0.078,0 -0.203,-0.282 -0.279,-0.627c-0.076,-0.345 -0.259,-0.884 -0.407,-1.198c-0.148,-0.314 -0.398,-0.875 -0.555,-1.248c-0.157,-0.372 -0.356,-0.677 -0.443,-0.677c-0.566,0 4.329,-5.084 9.127,-9.479c1,-0.916 2.595,-2.416 3.543,-3.333c2.762,-2.67 5.967,-5.653 6.756,-6.288c0.401,-0.323 1.203,-1.055 1.782,-1.628c0.579,-0.574 1.51,-1.417 2.068,-1.876c1.289,-1.057 1.567,-1.337 1.567,-1.577c0,-0.107 0.129,-0.194 0.287,-0.194c0.158,0 0.404,-0.14 0.546,-0.312c0.29,-0.349 0.625,-0.414 0.625,-0.121" id="path1"/>
   <path fill-rule="evenodd" fill="#4834a0" id="path2"/>
   <path fill-rule="evenodd" fill="#4834a0" id="path3"/>
   <path fill-rule="evenodd" fill="#4834a0" id="path4"/>
  </g>
  <text font-weight="bold" stroke="#000" transform="matrix(2.830786023162196,0,0,3.258103776269735,-453.1041091275416,-81.79028330841982) " xml:space="preserve" text-anchor="start" font-family="Helvetica, Arial, sans-serif" font-size="24" id="svg_1" y="54.307179" x="234.440224" stroke-width="0" fill="#ffffff">TEST</text>
  <path d="m678.5,179.604156c0,0 -1.168213,-0.415192 -9,3c-16.397339,7.150375 -35,18 -53,28l-16,8l-13,6l-6,2" id="svg_2" stroke-opacity="null" stroke-width="0" stroke="#000" fill="none"/>
  <polyline stroke-linecap="round" id="svg_3" points="513.5,48.604156494140625 513.5,48.604156494140625 " stroke-opacity="null" stroke-width="0" stroke="#000" fill="none"/>
 </g>
</svg>