<?xml version="1.0" standalone="yes"?>
<svg xmlns="http://www.w3.org/2000/svg" width="331" height="248">
<path style="stroke:none;fill: transparent;" d="M0 0L0 248L331 248L331 0L0 0z"/>
<path style="fill:#ffffff; stroke:none;" d="M185 126L164 127C165.75 133.747 167.248 140.824 173.093 145.362C187.114 156.245 221.966 153.702 225.671 133C228.622 116.504 217.138 109.314 203 105.425C198.848 104.283 190.361 104.043 188.086 99.7261C185.833 95.4476 191.606 92.8647 195 93.2724C199.818 93.8511 202.566 97.7928 204 102L224 101C222.474 82.3442 203.978 77.9241 188 80.439C179.04 81.8493 170.512 85.5793 167.789 95C163.388 110.23 177.638 117.723 190 120.873C194.664 122.061 202.525 123.042 204.712 128.105C206.944 133.269 200.307 136.937 196 136.717C190.015 136.41 186.096 131.43 185 126M25 81L25 97L47 97L47 150L68 150L68 97L90 97L90 81L25 81M99 81L99 150L157 150L157 134L120 134L120 121L153 121L153 107L120 107L120 97L156 97L156 81L99 81M232 81L232 97L254 97L254 150L275 150L275 97L297 97L297 81L232 81z"/>
</svg>
